%TF.GenerationSoftware,KiCad,Pcbnew,(5.1.10)-1*%
%TF.CreationDate,2024-09-14T21:02:55+02:00*%
%TF.ProjectId,LightningDetector_V1_0,4c696768-746e-4696-9e67-446574656374,rev?*%
%TF.SameCoordinates,Original*%
%TF.FileFunction,Copper,L1,Top*%
%TF.FilePolarity,Positive*%
%FSLAX46Y46*%
G04 Gerber Fmt 4.6, Leading zero omitted, Abs format (unit mm)*
G04 Created by KiCad (PCBNEW (5.1.10)-1) date 2024-09-14 21:02:55*
%MOMM*%
%LPD*%
G01*
G04 APERTURE LIST*
%TA.AperFunction,ComponentPad*%
%ADD10C,3.500000*%
%TD*%
%TA.AperFunction,ComponentPad*%
%ADD11O,1.700000X2.500000*%
%TD*%
%TA.AperFunction,SMDPad,CuDef*%
%ADD12R,2.300000X2.200000*%
%TD*%
%TA.AperFunction,ComponentPad*%
%ADD13R,1.905000X4.000000*%
%TD*%
%TA.AperFunction,ComponentPad*%
%ADD14O,1.905000X4.000000*%
%TD*%
%TA.AperFunction,ComponentPad*%
%ADD15O,2.000000X1.524000*%
%TD*%
%TA.AperFunction,ComponentPad*%
%ADD16R,2.000000X1.500000*%
%TD*%
%TA.AperFunction,ComponentPad*%
%ADD17O,2.000000X2.000000*%
%TD*%
%TA.AperFunction,ComponentPad*%
%ADD18R,3.400000X3.600000*%
%TD*%
%TA.AperFunction,ComponentPad*%
%ADD19O,3.400000X3.600000*%
%TD*%
%TA.AperFunction,SMDPad,CuDef*%
%ADD20R,0.850000X0.400000*%
%TD*%
%TA.AperFunction,SMDPad,CuDef*%
%ADD21R,0.400000X0.850000*%
%TD*%
%TA.AperFunction,ComponentPad*%
%ADD22R,2.000000X2.000000*%
%TD*%
%TA.AperFunction,SMDPad,CuDef*%
%ADD23R,1.200000X1.900000*%
%TD*%
%TA.AperFunction,SMDPad,CuDef*%
%ADD24R,1.900000X1.200000*%
%TD*%
%TA.AperFunction,ComponentPad*%
%ADD25R,2.800000X2.200000*%
%TD*%
%TA.AperFunction,ComponentPad*%
%ADD26O,2.800000X2.200000*%
%TD*%
%TA.AperFunction,SMDPad,CuDef*%
%ADD27R,1.900000X2.540000*%
%TD*%
%TA.AperFunction,SMDPad,CuDef*%
%ADD28R,0.800000X1.300000*%
%TD*%
%TA.AperFunction,ComponentPad*%
%ADD29O,1.700000X2.600000*%
%TD*%
%TA.AperFunction,SMDPad,CuDef*%
%ADD30R,3.200000X1.300000*%
%TD*%
%TA.AperFunction,SMDPad,CuDef*%
%ADD31R,1.400000X1.000000*%
%TD*%
%TA.AperFunction,ComponentPad*%
%ADD32O,3.600000X3.600000*%
%TD*%
%TA.AperFunction,ComponentPad*%
%ADD33R,3.600000X3.600000*%
%TD*%
%TA.AperFunction,SMDPad,CuDef*%
%ADD34R,2.540000X1.900000*%
%TD*%
%TA.AperFunction,SMDPad,CuDef*%
%ADD35R,1.000000X2.500000*%
%TD*%
%TA.AperFunction,SMDPad,CuDef*%
%ADD36R,1.000000X1.400000*%
%TD*%
%TA.AperFunction,SMDPad,CuDef*%
%ADD37R,1.300000X0.800000*%
%TD*%
%TA.AperFunction,ComponentPad*%
%ADD38O,3.000000X1.800000*%
%TD*%
%TA.AperFunction,SMDPad,CuDef*%
%ADD39R,1.500000X2.000000*%
%TD*%
%TA.AperFunction,SMDPad,CuDef*%
%ADD40R,3.800000X2.000000*%
%TD*%
%TA.AperFunction,ViaPad*%
%ADD41C,5.000000*%
%TD*%
%TA.AperFunction,ViaPad*%
%ADD42C,0.800000*%
%TD*%
%TA.AperFunction,Conductor*%
%ADD43C,0.250000*%
%TD*%
%TA.AperFunction,Conductor*%
%ADD44C,0.254000*%
%TD*%
%TA.AperFunction,Conductor*%
%ADD45C,0.100000*%
%TD*%
G04 APERTURE END LIST*
D10*
%TO.P,U5,5*%
%TO.N,N/C*%
X139319000Y-76454000D03*
%TO.P,U5,6*%
X117348000Y-76454000D03*
%TO.P,U5,8*%
X117348000Y-54483000D03*
%TO.P,U5,7*%
X139319000Y-54483000D03*
D11*
%TO.P,U5,1*%
%TO.N,GND*%
X132161000Y-76951000D03*
%TO.P,U5,2*%
%TO.N,+3V3*%
X129621000Y-76951000D03*
%TO.P,U5,3*%
%TO.N,SCL*%
X127081000Y-76951000D03*
%TO.P,U5,4*%
%TO.N,SDA*%
X124541000Y-76951000D03*
%TD*%
D12*
%TO.P,D3,2*%
%TO.N,GND*%
X178689000Y-59146000D03*
%TO.P,D3,1*%
%TO.N,Net-(D3-Pad1)*%
X178689000Y-54646000D03*
%TD*%
D13*
%TO.P,U4,1*%
%TO.N,Net-(D3-Pad1)*%
X161798000Y-59690000D03*
D14*
%TO.P,U4,2*%
%TO.N,GND*%
X159258000Y-59690000D03*
%TO.P,U4,3*%
%TO.N,Net-(C11-Pad1)*%
X156718000Y-59690000D03*
%TD*%
D15*
%TO.P,C8,2*%
%TO.N,GND*%
X157226000Y-71989000D03*
D16*
%TO.P,C8,1*%
%TO.N,+3V3*%
X157226000Y-69489000D03*
%TD*%
D17*
%TO.P,U3,1*%
%TO.N,Net-(D2-Pad1)*%
X167767000Y-54229000D03*
%TO.P,U3,2*%
%TO.N,Net-(D3-Pad1)*%
X172867000Y-54729000D03*
%TD*%
D18*
%TO.P,CON2,1*%
%TO.N,Net-(CON2-Pad1)*%
X150891240Y-56410860D03*
D19*
%TO.P,CON2,2*%
%TO.N,GND*%
X145811240Y-56410860D03*
%TD*%
D20*
%TO.P,U2,1*%
%TO.N,Net-(C5-Pad1)*%
X170815000Y-76073000D03*
%TO.P,U2,2*%
%TO.N,Net-(C10-Pad1)*%
X170815000Y-75423000D03*
%TO.P,U2,4*%
%TO.N,GNDA*%
X170815000Y-74123000D03*
%TO.P,U2,3*%
%TO.N,Net-(C10-Pad2)*%
X170815000Y-74773000D03*
%TO.P,U2,11*%
%TO.N,SCLK*%
X166865000Y-75423000D03*
%TO.P,U2,9*%
%TO.N,GNDA*%
X166865000Y-74123000D03*
%TO.P,U2,10*%
%TO.N,IRQ*%
X166865000Y-74773000D03*
%TO.P,U2,12*%
%TO.N,MISO*%
X166865000Y-76073000D03*
D21*
%TO.P,U2,15*%
%TO.N,GNDA*%
X169165000Y-77073000D03*
%TO.P,U2,16*%
X169815000Y-77073000D03*
%TO.P,U2,14*%
%TO.N,Net-(U2-Pad14)*%
X168515000Y-77073000D03*
%TO.P,U2,13*%
%TO.N,MOSI*%
X167865000Y-77073000D03*
%TO.P,U2,7*%
%TO.N,GNDA*%
X168515000Y-73123000D03*
%TO.P,U2,5*%
%TO.N,+3.3VA*%
X169815000Y-73123000D03*
%TO.P,U2,6*%
X169165000Y-73123000D03*
%TO.P,U2,8*%
%TO.N,~CS*%
X167865000Y-73123000D03*
D22*
%TO.P,U2,17*%
%TO.N,GNDA*%
X168846500Y-75057000D03*
%TD*%
D23*
%TO.P,C1,1*%
%TO.N,GND*%
X159436000Y-106807000D03*
%TO.P,C1,2*%
%TO.N,+3V3*%
X162636000Y-106807000D03*
%TD*%
%TO.P,C2,1*%
%TO.N,+3V3*%
%TA.AperFunction,SMDPad,CuDef*%
G36*
G01*
X165253000Y-107409000D02*
X165253000Y-106459000D01*
G75*
G02*
X165503000Y-106209000I250000J0D01*
G01*
X166178000Y-106209000D01*
G75*
G02*
X166428000Y-106459000I0J-250000D01*
G01*
X166428000Y-107409000D01*
G75*
G02*
X166178000Y-107659000I-250000J0D01*
G01*
X165503000Y-107659000D01*
G75*
G02*
X165253000Y-107409000I0J250000D01*
G01*
G37*
%TD.AperFunction*%
%TO.P,C2,2*%
%TO.N,GND*%
%TA.AperFunction,SMDPad,CuDef*%
G36*
G01*
X167328000Y-107409000D02*
X167328000Y-106459000D01*
G75*
G02*
X167578000Y-106209000I250000J0D01*
G01*
X168253000Y-106209000D01*
G75*
G02*
X168503000Y-106459000I0J-250000D01*
G01*
X168503000Y-107409000D01*
G75*
G02*
X168253000Y-107659000I-250000J0D01*
G01*
X167578000Y-107659000D01*
G75*
G02*
X167328000Y-107409000I0J250000D01*
G01*
G37*
%TD.AperFunction*%
%TD*%
D24*
%TO.P,C3,1*%
%TO.N,GNDA*%
X171450000Y-63170000D03*
%TO.P,C3,2*%
%TO.N,+3.3VA*%
X171450000Y-66370000D03*
%TD*%
%TO.P,C4,2*%
%TO.N,GNDA*%
%TA.AperFunction,SMDPad,CuDef*%
G36*
G01*
X174846000Y-63812000D02*
X173896000Y-63812000D01*
G75*
G02*
X173646000Y-63562000I0J250000D01*
G01*
X173646000Y-62887000D01*
G75*
G02*
X173896000Y-62637000I250000J0D01*
G01*
X174846000Y-62637000D01*
G75*
G02*
X175096000Y-62887000I0J-250000D01*
G01*
X175096000Y-63562000D01*
G75*
G02*
X174846000Y-63812000I-250000J0D01*
G01*
G37*
%TD.AperFunction*%
%TO.P,C4,1*%
%TO.N,+3.3VA*%
%TA.AperFunction,SMDPad,CuDef*%
G36*
G01*
X174846000Y-65887000D02*
X173896000Y-65887000D01*
G75*
G02*
X173646000Y-65637000I0J250000D01*
G01*
X173646000Y-64962000D01*
G75*
G02*
X173896000Y-64712000I250000J0D01*
G01*
X174846000Y-64712000D01*
G75*
G02*
X175096000Y-64962000I0J-250000D01*
G01*
X175096000Y-65637000D01*
G75*
G02*
X174846000Y-65887000I-250000J0D01*
G01*
G37*
%TD.AperFunction*%
%TD*%
%TO.P,C5,2*%
%TO.N,GNDA*%
X172847000Y-82880000D03*
%TO.P,C5,1*%
%TO.N,Net-(C5-Pad1)*%
X172847000Y-79680000D03*
%TD*%
D23*
%TO.P,C6,2*%
%TO.N,+3V3*%
X155270000Y-65532000D03*
%TO.P,C6,1*%
%TO.N,GND*%
X152070000Y-65532000D03*
%TD*%
%TO.P,C7,1*%
%TO.N,+3V3*%
%TA.AperFunction,SMDPad,CuDef*%
G36*
G01*
X157760000Y-66007000D02*
X157760000Y-65057000D01*
G75*
G02*
X158010000Y-64807000I250000J0D01*
G01*
X158685000Y-64807000D01*
G75*
G02*
X158935000Y-65057000I0J-250000D01*
G01*
X158935000Y-66007000D01*
G75*
G02*
X158685000Y-66257000I-250000J0D01*
G01*
X158010000Y-66257000D01*
G75*
G02*
X157760000Y-66007000I0J250000D01*
G01*
G37*
%TD.AperFunction*%
%TO.P,C7,2*%
%TO.N,GND*%
%TA.AperFunction,SMDPad,CuDef*%
G36*
G01*
X159835000Y-66007000D02*
X159835000Y-65057000D01*
G75*
G02*
X160085000Y-64807000I250000J0D01*
G01*
X160760000Y-64807000D01*
G75*
G02*
X161010000Y-65057000I0J-250000D01*
G01*
X161010000Y-66007000D01*
G75*
G02*
X160760000Y-66257000I-250000J0D01*
G01*
X160085000Y-66257000D01*
G75*
G02*
X159835000Y-66007000I0J250000D01*
G01*
G37*
%TD.AperFunction*%
%TD*%
D25*
%TO.P,CON1,1*%
%TO.N,+3V3*%
X146939000Y-107315000D03*
D26*
%TO.P,CON1,2*%
%TO.N,Net-(CON1-Pad2)*%
X150749000Y-107315000D03*
%TO.P,CON1,3*%
%TO.N,GND*%
X154559000Y-107315000D03*
%TD*%
%TO.P,CON3,3*%
%TO.N,GND*%
X138303000Y-107315000D03*
%TO.P,CON3,2*%
%TO.N,UART_RX*%
X134493000Y-107315000D03*
D25*
%TO.P,CON3,1*%
%TO.N,UART_TX*%
X130683000Y-107315000D03*
%TD*%
%TO.P,D1,2*%
%TO.N,Net-(D1-Pad2)*%
%TA.AperFunction,SMDPad,CuDef*%
G36*
G01*
X117027000Y-89350001D02*
X117027000Y-88449999D01*
G75*
G02*
X117276999Y-88200000I249999J0D01*
G01*
X117927001Y-88200000D01*
G75*
G02*
X118177000Y-88449999I0J-249999D01*
G01*
X118177000Y-89350001D01*
G75*
G02*
X117927001Y-89600000I-249999J0D01*
G01*
X117276999Y-89600000D01*
G75*
G02*
X117027000Y-89350001I0J249999D01*
G01*
G37*
%TD.AperFunction*%
%TO.P,D1,1*%
%TO.N,GND*%
%TA.AperFunction,SMDPad,CuDef*%
G36*
G01*
X114977000Y-89350001D02*
X114977000Y-88449999D01*
G75*
G02*
X115226999Y-88200000I249999J0D01*
G01*
X115877001Y-88200000D01*
G75*
G02*
X116127000Y-88449999I0J-249999D01*
G01*
X116127000Y-89350001D01*
G75*
G02*
X115877001Y-89600000I-249999J0D01*
G01*
X115226999Y-89600000D01*
G75*
G02*
X114977000Y-89350001I0J249999D01*
G01*
G37*
%TD.AperFunction*%
%TD*%
D27*
%TO.P,D2,1*%
%TO.N,Net-(D2-Pad1)*%
X162433000Y-54356000D03*
%TO.P,D2,2*%
%TO.N,Net-(CON2-Pad1)*%
X156733000Y-54356000D03*
%TD*%
D28*
%TO.P,Q1,1*%
%TO.N,Net-(Q1-Pad1)*%
X120462000Y-109347000D03*
%TO.P,Q1,2*%
%TO.N,UART_TX*%
X122362000Y-109347000D03*
%TO.P,Q1,3*%
%TO.N,GND*%
X121520000Y-107061000D03*
%TD*%
%TO.P,Q2,3*%
%TO.N,GND*%
X116694000Y-91567000D03*
%TO.P,Q2,2*%
%TO.N,PIPICO_UART_RX*%
X117536000Y-93853000D03*
%TO.P,Q2,1*%
%TO.N,Net-(Q2-Pad1)*%
X115636000Y-93853000D03*
%TD*%
%TO.P,R1,1*%
%TO.N,+3V3*%
%TA.AperFunction,SMDPad,CuDef*%
G36*
G01*
X130251000Y-79940999D02*
X130251000Y-80841001D01*
G75*
G02*
X130001001Y-81091000I-249999J0D01*
G01*
X129300999Y-81091000D01*
G75*
G02*
X129051000Y-80841001I0J249999D01*
G01*
X129051000Y-79940999D01*
G75*
G02*
X129300999Y-79691000I249999J0D01*
G01*
X130001001Y-79691000D01*
G75*
G02*
X130251000Y-79940999I0J-249999D01*
G01*
G37*
%TD.AperFunction*%
%TO.P,R1,2*%
%TO.N,Net-(CON1-Pad2)*%
%TA.AperFunction,SMDPad,CuDef*%
G36*
G01*
X128251000Y-79940999D02*
X128251000Y-80841001D01*
G75*
G02*
X128001001Y-81091000I-249999J0D01*
G01*
X127300999Y-81091000D01*
G75*
G02*
X127051000Y-80841001I0J249999D01*
G01*
X127051000Y-79940999D01*
G75*
G02*
X127300999Y-79691000I249999J0D01*
G01*
X128001001Y-79691000D01*
G75*
G02*
X128251000Y-79940999I0J-249999D01*
G01*
G37*
%TD.AperFunction*%
%TD*%
%TO.P,R2,2*%
%TO.N,Net-(D1-Pad2)*%
%TA.AperFunction,SMDPad,CuDef*%
G36*
G01*
X116186000Y-84893999D02*
X116186000Y-85794001D01*
G75*
G02*
X115936001Y-86044000I-249999J0D01*
G01*
X115235999Y-86044000D01*
G75*
G02*
X114986000Y-85794001I0J249999D01*
G01*
X114986000Y-84893999D01*
G75*
G02*
X115235999Y-84644000I249999J0D01*
G01*
X115936001Y-84644000D01*
G75*
G02*
X116186000Y-84893999I0J-249999D01*
G01*
G37*
%TD.AperFunction*%
%TO.P,R2,1*%
%TO.N,Net-(R2-Pad1)*%
%TA.AperFunction,SMDPad,CuDef*%
G36*
G01*
X118186000Y-84893999D02*
X118186000Y-85794001D01*
G75*
G02*
X117936001Y-86044000I-249999J0D01*
G01*
X117235999Y-86044000D01*
G75*
G02*
X116986000Y-85794001I0J249999D01*
G01*
X116986000Y-84893999D01*
G75*
G02*
X117235999Y-84644000I249999J0D01*
G01*
X117936001Y-84644000D01*
G75*
G02*
X118186000Y-84893999I0J-249999D01*
G01*
G37*
%TD.AperFunction*%
%TD*%
%TO.P,R6,2*%
%TO.N,SCL*%
%TA.AperFunction,SMDPad,CuDef*%
G36*
G01*
X142297999Y-71647000D02*
X143198001Y-71647000D01*
G75*
G02*
X143448000Y-71896999I0J-249999D01*
G01*
X143448000Y-72597001D01*
G75*
G02*
X143198001Y-72847000I-249999J0D01*
G01*
X142297999Y-72847000D01*
G75*
G02*
X142048000Y-72597001I0J249999D01*
G01*
X142048000Y-71896999D01*
G75*
G02*
X142297999Y-71647000I249999J0D01*
G01*
G37*
%TD.AperFunction*%
%TO.P,R6,1*%
%TO.N,+3V3*%
%TA.AperFunction,SMDPad,CuDef*%
G36*
G01*
X142297999Y-69647000D02*
X143198001Y-69647000D01*
G75*
G02*
X143448000Y-69896999I0J-249999D01*
G01*
X143448000Y-70597001D01*
G75*
G02*
X143198001Y-70847000I-249999J0D01*
G01*
X142297999Y-70847000D01*
G75*
G02*
X142048000Y-70597001I0J249999D01*
G01*
X142048000Y-69896999D01*
G75*
G02*
X142297999Y-69647000I249999J0D01*
G01*
G37*
%TD.AperFunction*%
%TD*%
%TO.P,R7,1*%
%TO.N,+3V3*%
%TA.AperFunction,SMDPad,CuDef*%
G36*
G01*
X144583999Y-69647000D02*
X145484001Y-69647000D01*
G75*
G02*
X145734000Y-69896999I0J-249999D01*
G01*
X145734000Y-70597001D01*
G75*
G02*
X145484001Y-70847000I-249999J0D01*
G01*
X144583999Y-70847000D01*
G75*
G02*
X144334000Y-70597001I0J249999D01*
G01*
X144334000Y-69896999D01*
G75*
G02*
X144583999Y-69647000I249999J0D01*
G01*
G37*
%TD.AperFunction*%
%TO.P,R7,2*%
%TO.N,SDA*%
%TA.AperFunction,SMDPad,CuDef*%
G36*
G01*
X144583999Y-71647000D02*
X145484001Y-71647000D01*
G75*
G02*
X145734000Y-71896999I0J-249999D01*
G01*
X145734000Y-72597001D01*
G75*
G02*
X145484001Y-72847000I-249999J0D01*
G01*
X144583999Y-72847000D01*
G75*
G02*
X144334000Y-72597001I0J249999D01*
G01*
X144334000Y-71896999D01*
G75*
G02*
X144583999Y-71647000I249999J0D01*
G01*
G37*
%TD.AperFunction*%
%TD*%
%TO.P,R8,1*%
%TO.N,+3V3*%
%TA.AperFunction,SMDPad,CuDef*%
G36*
G01*
X125787999Y-106731000D02*
X126688001Y-106731000D01*
G75*
G02*
X126938000Y-106980999I0J-249999D01*
G01*
X126938000Y-107681001D01*
G75*
G02*
X126688001Y-107931000I-249999J0D01*
G01*
X125787999Y-107931000D01*
G75*
G02*
X125538000Y-107681001I0J249999D01*
G01*
X125538000Y-106980999D01*
G75*
G02*
X125787999Y-106731000I249999J0D01*
G01*
G37*
%TD.AperFunction*%
%TO.P,R8,2*%
%TO.N,UART_TX*%
%TA.AperFunction,SMDPad,CuDef*%
G36*
G01*
X125787999Y-108731000D02*
X126688001Y-108731000D01*
G75*
G02*
X126938000Y-108980999I0J-249999D01*
G01*
X126938000Y-109681001D01*
G75*
G02*
X126688001Y-109931000I-249999J0D01*
G01*
X125787999Y-109931000D01*
G75*
G02*
X125538000Y-109681001I0J249999D01*
G01*
X125538000Y-108980999D01*
G75*
G02*
X125787999Y-108731000I249999J0D01*
G01*
G37*
%TD.AperFunction*%
%TD*%
%TO.P,R9,1*%
%TO.N,+3V3*%
%TA.AperFunction,SMDPad,CuDef*%
G36*
G01*
X117925001Y-98882000D02*
X117024999Y-98882000D01*
G75*
G02*
X116775000Y-98632001I0J249999D01*
G01*
X116775000Y-97931999D01*
G75*
G02*
X117024999Y-97682000I249999J0D01*
G01*
X117925001Y-97682000D01*
G75*
G02*
X118175000Y-97931999I0J-249999D01*
G01*
X118175000Y-98632001D01*
G75*
G02*
X117925001Y-98882000I-249999J0D01*
G01*
G37*
%TD.AperFunction*%
%TO.P,R9,2*%
%TO.N,PIPICO_UART_RX*%
%TA.AperFunction,SMDPad,CuDef*%
G36*
G01*
X117925001Y-96882000D02*
X117024999Y-96882000D01*
G75*
G02*
X116775000Y-96632001I0J249999D01*
G01*
X116775000Y-95931999D01*
G75*
G02*
X117024999Y-95682000I249999J0D01*
G01*
X117925001Y-95682000D01*
G75*
G02*
X118175000Y-95931999I0J-249999D01*
G01*
X118175000Y-96632001D01*
G75*
G02*
X117925001Y-96882000I-249999J0D01*
G01*
G37*
%TD.AperFunction*%
%TD*%
%TO.P,R10,2*%
%TO.N,Net-(Q1-Pad1)*%
%TA.AperFunction,SMDPad,CuDef*%
G36*
G01*
X116897999Y-103524000D02*
X117798001Y-103524000D01*
G75*
G02*
X118048000Y-103773999I0J-249999D01*
G01*
X118048000Y-104474001D01*
G75*
G02*
X117798001Y-104724000I-249999J0D01*
G01*
X116897999Y-104724000D01*
G75*
G02*
X116648000Y-104474001I0J249999D01*
G01*
X116648000Y-103773999D01*
G75*
G02*
X116897999Y-103524000I249999J0D01*
G01*
G37*
%TD.AperFunction*%
%TO.P,R10,1*%
%TO.N,PIPICO_UART_TX*%
%TA.AperFunction,SMDPad,CuDef*%
G36*
G01*
X116897999Y-101524000D02*
X117798001Y-101524000D01*
G75*
G02*
X118048000Y-101773999I0J-249999D01*
G01*
X118048000Y-102474001D01*
G75*
G02*
X117798001Y-102724000I-249999J0D01*
G01*
X116897999Y-102724000D01*
G75*
G02*
X116648000Y-102474001I0J249999D01*
G01*
X116648000Y-101773999D01*
G75*
G02*
X116897999Y-101524000I249999J0D01*
G01*
G37*
%TD.AperFunction*%
%TD*%
%TO.P,R11,1*%
%TO.N,Net-(Q2-Pad1)*%
%TA.AperFunction,SMDPad,CuDef*%
G36*
G01*
X142043999Y-106731000D02*
X142944001Y-106731000D01*
G75*
G02*
X143194000Y-106980999I0J-249999D01*
G01*
X143194000Y-107681001D01*
G75*
G02*
X142944001Y-107931000I-249999J0D01*
G01*
X142043999Y-107931000D01*
G75*
G02*
X141794000Y-107681001I0J249999D01*
G01*
X141794000Y-106980999D01*
G75*
G02*
X142043999Y-106731000I249999J0D01*
G01*
G37*
%TD.AperFunction*%
%TO.P,R11,2*%
%TO.N,UART_RX*%
%TA.AperFunction,SMDPad,CuDef*%
G36*
G01*
X142043999Y-108731000D02*
X142944001Y-108731000D01*
G75*
G02*
X143194000Y-108980999I0J-249999D01*
G01*
X143194000Y-109681001D01*
G75*
G02*
X142944001Y-109931000I-249999J0D01*
G01*
X142043999Y-109931000D01*
G75*
G02*
X141794000Y-109681001I0J249999D01*
G01*
X141794000Y-108980999D01*
G75*
G02*
X142043999Y-108731000I249999J0D01*
G01*
G37*
%TD.AperFunction*%
%TD*%
D29*
%TO.P,U1,40*%
%TO.N,Net-(U1-Pad40)*%
X168402000Y-102108000D03*
%TO.P,U1,1*%
%TO.N,MISO*%
X168402000Y-84328000D03*
%TO.P,U1,39*%
%TO.N,+3V3*%
X165862000Y-102108000D03*
%TO.P,U1,2*%
%TO.N,~CS*%
X165862000Y-84328000D03*
%TO.P,U1,38*%
%TO.N,GND*%
X163322000Y-102108000D03*
%TO.P,U1,3*%
X163322000Y-84328000D03*
%TO.P,U1,37*%
%TO.N,Net-(U1-Pad37)*%
X160782000Y-102108000D03*
%TO.P,U1,4*%
%TO.N,SCLK*%
X160782000Y-84328000D03*
%TO.P,U1,36*%
%TO.N,Net-(U1-Pad36)*%
X158242000Y-102108000D03*
%TO.P,U1,5*%
%TO.N,MOSI*%
X158242000Y-84328000D03*
%TO.P,U1,35*%
%TO.N,Net-(U1-Pad35)*%
X155702000Y-102108000D03*
%TO.P,U1,6*%
%TO.N,IRQ*%
X155702000Y-84328000D03*
%TO.P,U1,34*%
%TO.N,Net-(U1-Pad34)*%
X153162000Y-102108000D03*
%TO.P,U1,7*%
%TO.N,Net-(U1-Pad7)*%
X153162000Y-84328000D03*
%TO.P,U1,33*%
%TO.N,GND*%
X150622000Y-102108000D03*
%TO.P,U1,8*%
X150622000Y-84328000D03*
%TO.P,U1,32*%
%TO.N,Net-(U1-Pad32)*%
X148082000Y-102108000D03*
%TO.P,U1,9*%
%TO.N,SDA*%
X148082000Y-84328000D03*
%TO.P,U1,31*%
%TO.N,Net-(U1-Pad31)*%
X145542000Y-102108000D03*
%TO.P,U1,10*%
%TO.N,SCL*%
X145542000Y-84328000D03*
%TO.P,U1,30*%
%TO.N,Net-(U1-Pad30)*%
X143002000Y-102108000D03*
%TO.P,U1,11*%
%TO.N,Net-(U1-Pad11)*%
X143002000Y-84328000D03*
%TO.P,U1,29*%
%TO.N,Net-(Q3-Pad1)*%
X140462000Y-102108000D03*
%TO.P,U1,12*%
%TO.N,Net-(U1-Pad12)*%
X140462000Y-84328000D03*
%TO.P,U1,28*%
%TO.N,GND*%
X137922000Y-102108000D03*
%TO.P,U1,13*%
X137922000Y-84328000D03*
%TO.P,U1,27*%
%TO.N,Net-(U1-Pad27)*%
X135382000Y-102108000D03*
%TO.P,U1,14*%
%TO.N,Net-(U1-Pad14)*%
X135382000Y-84328000D03*
%TO.P,U1,26*%
%TO.N,Net-(R2-Pad1)*%
X132842000Y-102108000D03*
%TO.P,U1,15*%
%TO.N,Net-(U1-Pad15)*%
X132842000Y-84328000D03*
%TO.P,U1,25*%
%TO.N,Net-(U1-Pad25)*%
X130302000Y-102108000D03*
%TO.P,U1,16*%
%TO.N,Net-(U1-Pad16)*%
X130302000Y-84328000D03*
%TO.P,U1,24*%
%TO.N,Net-(U1-Pad24)*%
X127762000Y-102108000D03*
%TO.P,U1,17*%
%TO.N,Net-(CON1-Pad2)*%
X127762000Y-84328000D03*
%TO.P,U1,23*%
%TO.N,GND*%
X125222000Y-102108000D03*
%TO.P,U1,18*%
X125222000Y-84328000D03*
%TO.P,U1,22*%
%TO.N,PIPICO_UART_RX*%
X122682000Y-102108000D03*
%TO.P,U1,19*%
%TO.N,Net-(U1-Pad19)*%
X122682000Y-84328000D03*
%TO.P,U1,21*%
%TO.N,PIPICO_UART_TX*%
X120142000Y-102108000D03*
%TO.P,U1,20*%
%TO.N,Net-(U1-Pad20)*%
X120142000Y-84328000D03*
%TD*%
D30*
%TO.P,L2,1*%
%TO.N,Net-(C10-Pad1)*%
X185674000Y-76327000D03*
%TO.P,L2,2*%
%TO.N,Net-(C10-Pad2)*%
X185674000Y-67027000D03*
%TD*%
D31*
%TO.P,LK1,2*%
%TO.N,+3V3*%
X150291800Y-80933800D03*
%TO.P,LK1,1*%
%TO.N,Net-(LK1-Pad1)*%
X150291800Y-79311500D03*
%TD*%
%TO.P,C9,1*%
%TO.N,Net-(C10-Pad1)*%
%TA.AperFunction,SMDPad,CuDef*%
G36*
G01*
X182974000Y-73253000D02*
X182024000Y-73253000D01*
G75*
G02*
X181774000Y-73003000I0J250000D01*
G01*
X181774000Y-72328000D01*
G75*
G02*
X182024000Y-72078000I250000J0D01*
G01*
X182974000Y-72078000D01*
G75*
G02*
X183224000Y-72328000I0J-250000D01*
G01*
X183224000Y-73003000D01*
G75*
G02*
X182974000Y-73253000I-250000J0D01*
G01*
G37*
%TD.AperFunction*%
%TO.P,C9,2*%
%TO.N,Net-(C10-Pad2)*%
%TA.AperFunction,SMDPad,CuDef*%
G36*
G01*
X182974000Y-71178000D02*
X182024000Y-71178000D01*
G75*
G02*
X181774000Y-70928000I0J250000D01*
G01*
X181774000Y-70253000D01*
G75*
G02*
X182024000Y-70003000I250000J0D01*
G01*
X182974000Y-70003000D01*
G75*
G02*
X183224000Y-70253000I0J-250000D01*
G01*
X183224000Y-70928000D01*
G75*
G02*
X182974000Y-71178000I-250000J0D01*
G01*
G37*
%TD.AperFunction*%
%TD*%
%TO.P,R12,2*%
%TO.N,Net-(C10-Pad2)*%
%TA.AperFunction,SMDPad,CuDef*%
G36*
G01*
X180663001Y-71228000D02*
X179762999Y-71228000D01*
G75*
G02*
X179513000Y-70978001I0J249999D01*
G01*
X179513000Y-70277999D01*
G75*
G02*
X179762999Y-70028000I249999J0D01*
G01*
X180663001Y-70028000D01*
G75*
G02*
X180913000Y-70277999I0J-249999D01*
G01*
X180913000Y-70978001D01*
G75*
G02*
X180663001Y-71228000I-249999J0D01*
G01*
G37*
%TD.AperFunction*%
%TO.P,R12,1*%
%TO.N,Net-(C10-Pad1)*%
%TA.AperFunction,SMDPad,CuDef*%
G36*
G01*
X180663001Y-73228000D02*
X179762999Y-73228000D01*
G75*
G02*
X179513000Y-72978001I0J249999D01*
G01*
X179513000Y-72277999D01*
G75*
G02*
X179762999Y-72028000I249999J0D01*
G01*
X180663001Y-72028000D01*
G75*
G02*
X180913000Y-72277999I0J-249999D01*
G01*
X180913000Y-72978001D01*
G75*
G02*
X180663001Y-73228000I-249999J0D01*
G01*
G37*
%TD.AperFunction*%
%TD*%
%TO.P,R13,1*%
%TO.N,~CS*%
%TA.AperFunction,SMDPad,CuDef*%
G36*
G01*
X167564000Y-81222001D02*
X167564000Y-80321999D01*
G75*
G02*
X167813999Y-80072000I249999J0D01*
G01*
X168514001Y-80072000D01*
G75*
G02*
X168764000Y-80321999I0J-249999D01*
G01*
X168764000Y-81222001D01*
G75*
G02*
X168514001Y-81472000I-249999J0D01*
G01*
X167813999Y-81472000D01*
G75*
G02*
X167564000Y-81222001I0J249999D01*
G01*
G37*
%TD.AperFunction*%
%TO.P,R13,2*%
%TO.N,+3V3*%
%TA.AperFunction,SMDPad,CuDef*%
G36*
G01*
X169564000Y-81222001D02*
X169564000Y-80321999D01*
G75*
G02*
X169813999Y-80072000I249999J0D01*
G01*
X170514001Y-80072000D01*
G75*
G02*
X170764000Y-80321999I0J-249999D01*
G01*
X170764000Y-81222001D01*
G75*
G02*
X170514001Y-81472000I-249999J0D01*
G01*
X169813999Y-81472000D01*
G75*
G02*
X169564000Y-81222001I0J249999D01*
G01*
G37*
%TD.AperFunction*%
%TD*%
%TO.P,C10,1*%
%TO.N,Net-(C10-Pad1)*%
%TA.AperFunction,SMDPad,CuDef*%
G36*
G01*
X178402000Y-73253000D02*
X177452000Y-73253000D01*
G75*
G02*
X177202000Y-73003000I0J250000D01*
G01*
X177202000Y-72328000D01*
G75*
G02*
X177452000Y-72078000I250000J0D01*
G01*
X178402000Y-72078000D01*
G75*
G02*
X178652000Y-72328000I0J-250000D01*
G01*
X178652000Y-73003000D01*
G75*
G02*
X178402000Y-73253000I-250000J0D01*
G01*
G37*
%TD.AperFunction*%
%TO.P,C10,2*%
%TO.N,Net-(C10-Pad2)*%
%TA.AperFunction,SMDPad,CuDef*%
G36*
G01*
X178402000Y-71178000D02*
X177452000Y-71178000D01*
G75*
G02*
X177202000Y-70928000I0J250000D01*
G01*
X177202000Y-70253000D01*
G75*
G02*
X177452000Y-70003000I250000J0D01*
G01*
X178402000Y-70003000D01*
G75*
G02*
X178652000Y-70253000I0J-250000D01*
G01*
X178652000Y-70928000D01*
G75*
G02*
X178402000Y-71178000I-250000J0D01*
G01*
G37*
%TD.AperFunction*%
%TD*%
D24*
%TO.P,C11,2*%
%TO.N,GND*%
X148209000Y-59868000D03*
%TO.P,C11,1*%
%TO.N,Net-(C11-Pad1)*%
X148209000Y-63068000D03*
%TD*%
D32*
%TO.P,CON4,3*%
%TO.N,Net-(CON4-Pad3)*%
X184150000Y-106045000D03*
%TO.P,CON4,2*%
%TO.N,Net-(CON4-Pad2)*%
X179070000Y-106045000D03*
D33*
%TO.P,CON4,1*%
%TO.N,Net-(CON4-Pad1)*%
X173990000Y-106045000D03*
%TD*%
D34*
%TO.P,D4,1*%
%TO.N,+5V*%
X175006000Y-89281000D03*
%TO.P,D4,2*%
%TO.N,Net-(D4-Pad2)*%
X175006000Y-94981000D03*
%TD*%
D35*
%TO.P,L1,1*%
%TO.N,+3V3*%
X164974000Y-67437000D03*
%TO.P,L1,2*%
%TO.N,+3.3VA*%
X168274000Y-67437000D03*
%TD*%
%TO.P,L3,2*%
%TO.N,GNDA*%
X168274000Y-63627000D03*
%TO.P,L3,1*%
%TO.N,GND*%
X164974000Y-63627000D03*
%TD*%
D36*
%TO.P,LK2,2*%
%TO.N,+5V*%
X149577300Y-66675000D03*
%TO.P,LK2,1*%
%TO.N,Net-(C11-Pad1)*%
X147955000Y-66675000D03*
%TD*%
D37*
%TO.P,Q3,3*%
%TO.N,Net-(D4-Pad2)*%
X175133000Y-100057000D03*
%TO.P,Q3,2*%
%TO.N,GND*%
X172847000Y-100899000D03*
%TO.P,Q3,1*%
%TO.N,Net-(Q3-Pad1)*%
X172847000Y-98999000D03*
%TD*%
D38*
%TO.P,REL1,4*%
%TO.N,Net-(CON4-Pad2)*%
X186372500Y-94488000D03*
%TO.P,REL1,2*%
%TO.N,Net-(D4-Pad2)*%
X186372500Y-84328000D03*
%TO.P,REL1,6*%
%TO.N,Net-(CON4-Pad1)*%
X186372500Y-81788000D03*
%TO.P,REL1,3*%
%TO.N,Net-(CON4-Pad2)*%
X179252500Y-94488000D03*
%TO.P,REL1,5*%
%TO.N,Net-(CON4-Pad3)*%
X179252500Y-81788000D03*
%TO.P,REL1,1*%
%TO.N,+5V*%
X179252500Y-84328000D03*
%TD*%
D39*
%TO.P,U6,1*%
%TO.N,GND*%
X152541000Y-69875000D03*
%TO.P,U6,3*%
%TO.N,+5V*%
X147941000Y-69875000D03*
%TO.P,U6,2*%
%TO.N,Net-(LK1-Pad1)*%
X150241000Y-69875000D03*
D40*
%TO.P,U6,4*%
X150241000Y-76175000D03*
%TD*%
D41*
%TO.N,*%
X185039000Y-54356000D03*
X116078000Y-107823000D03*
X185293000Y-100330000D03*
D42*
%TO.N,GND*%
X163322000Y-89789000D03*
X125231010Y-89925010D03*
X150612990Y-89925010D03*
X137912990Y-89925010D03*
X125222000Y-91567000D03*
X170434000Y-106934000D03*
X170434000Y-96774000D03*
X163322000Y-96774000D03*
X157861000Y-106807000D03*
X138303000Y-105410000D03*
X156972000Y-96774000D03*
X124460000Y-107061000D03*
X166116000Y-63627000D03*
X166116000Y-59182000D03*
X162794000Y-71989000D03*
X152547000Y-71989000D03*
X152547000Y-59182000D03*
X152527000Y-63627000D03*
X145811240Y-59166760D03*
X159258000Y-63627000D03*
X170434000Y-100965000D03*
X137922000Y-84328000D03*
X135890000Y-76962000D03*
%TO.N,+3V3*%
X143875000Y-70247000D03*
X165767010Y-91280990D03*
X165767010Y-98265990D03*
X146939000Y-109855000D03*
X164338000Y-109855000D03*
X164338000Y-106934000D03*
X126238000Y-105918000D03*
X126492000Y-98298000D03*
X157226000Y-67437000D03*
X157226000Y-65532000D03*
X129687000Y-70211000D03*
X157226000Y-69489000D03*
X154579000Y-69489000D03*
X154579000Y-80879000D03*
X170688000Y-83312000D03*
X169545000Y-91186000D03*
X141732000Y-80391000D03*
X140859000Y-98282000D03*
%TO.N,Net-(C5-Pad1)*%
X172847000Y-76073000D03*
X172847000Y-81153000D03*
%TO.N,Net-(CON1-Pad2)*%
X149352000Y-91821000D03*
X127762000Y-91821000D03*
%TO.N,Net-(D3-Pad1)*%
X161798000Y-56896000D03*
%TO.N,PIPICO_UART_RX*%
X122682000Y-96266000D03*
%TO.N,Net-(Q2-Pad1)*%
X115636000Y-95184000D03*
X120335000Y-95184000D03*
X142433000Y-95184000D03*
X142494000Y-105664000D03*
%TO.N,Net-(R2-Pad1)*%
X132842000Y-88011000D03*
%TO.N,SCL*%
X127143000Y-72247000D03*
X141367000Y-72247000D03*
X145542000Y-78994000D03*
X142113000Y-78994000D03*
%TO.N,SDA*%
X148082000Y-78486000D03*
%TO.N,MISO*%
X163893500Y-76263500D03*
X164592000Y-88011000D03*
X168402000Y-88011000D03*
%TO.N,~CS*%
X165002000Y-73123000D03*
X165735000Y-80772000D03*
%TO.N,SCLK*%
X160797000Y-75423000D03*
%TO.N,MOSI*%
X161798000Y-77089000D03*
X161798000Y-79502000D03*
X158242000Y-79502000D03*
%TO.N,IRQ*%
X155702000Y-73787000D03*
%TO.N,Net-(LK1-Pad1)*%
X150241000Y-71755000D03*
X150241000Y-77851000D03*
%TO.N,GNDA*%
X168515000Y-71388000D03*
X169672000Y-63119000D03*
X174895000Y-77073000D03*
X174895000Y-82915000D03*
%TO.N,Net-(C10-Pad2)*%
X173124590Y-73152000D03*
X173124590Y-70635590D03*
X185652500Y-70590500D03*
X185652500Y-65553500D03*
%TO.N,Net-(C11-Pad1)*%
X145720000Y-63068000D03*
X145669000Y-66675000D03*
%TO.N,Net-(CON4-Pad3)*%
X176530000Y-109347000D03*
X184150000Y-109347000D03*
%TO.N,Net-(CON4-Pad1)*%
X181864000Y-102489000D03*
X182880000Y-81788000D03*
%TO.N,+5V*%
X148971000Y-68072000D03*
X146717010Y-93312990D03*
X171005500Y-93281500D03*
X171069000Y-89281000D03*
X179197000Y-89281000D03*
%TO.N,Net-(D4-Pad2)*%
X186309000Y-91694000D03*
%TO.N,+3.3VA*%
X171675000Y-67466000D03*
%TD*%
D43*
%TO.N,GND*%
X163185990Y-89925010D02*
X150612990Y-89925010D01*
X163322000Y-89789000D02*
X163185990Y-89925010D01*
X123589020Y-91567000D02*
X116694000Y-91567000D01*
X115552000Y-88900000D02*
X115552000Y-91422000D01*
X115697000Y-91567000D02*
X116694000Y-91567000D01*
X115552000Y-91422000D02*
X115697000Y-91567000D01*
X150612990Y-89925010D02*
X137912990Y-89925010D01*
X137912990Y-89925010D02*
X125231010Y-89925010D01*
X123589020Y-91567000D02*
X125222000Y-91567000D01*
X167915500Y-106934000D02*
X170434000Y-106934000D01*
X170434000Y-96774000D02*
X163322000Y-96774000D01*
X159436000Y-106807000D02*
X157861000Y-106807000D01*
X163322000Y-96774000D02*
X156972000Y-96774000D01*
X121520000Y-107061000D02*
X124460000Y-107061000D01*
X164974000Y-63627000D02*
X166116000Y-63627000D01*
X178653000Y-59182000D02*
X178689000Y-59146000D01*
X166116000Y-59182000D02*
X178653000Y-59182000D01*
X157226000Y-71989000D02*
X152547000Y-71989000D01*
X157226000Y-71989000D02*
X162794000Y-71989000D01*
X152527000Y-65075000D02*
X152070000Y-65532000D01*
X152527000Y-63627000D02*
X152527000Y-65075000D01*
X152547000Y-69881000D02*
X152541000Y-69875000D01*
X152547000Y-71989000D02*
X152547000Y-69881000D01*
X148209000Y-59182000D02*
X148209000Y-59868000D01*
X152547000Y-59182000D02*
X148209000Y-59182000D01*
X148209000Y-59182000D02*
X145923000Y-59182000D01*
X160422500Y-63648500D02*
X160401000Y-63627000D01*
X160422500Y-65532000D02*
X160422500Y-63648500D01*
X160401000Y-63627000D02*
X152527000Y-63627000D01*
X164974000Y-63627000D02*
X160401000Y-63627000D01*
X172847000Y-100899000D02*
X170500000Y-100899000D01*
X132172000Y-76962000D02*
X132161000Y-76951000D01*
X135890000Y-76962000D02*
X132172000Y-76962000D01*
%TO.N,+3V3*%
X145034000Y-70247000D02*
X143875000Y-70247000D01*
X143875000Y-70247000D02*
X142748000Y-70247000D01*
X165767010Y-91280990D02*
X165829990Y-91280990D01*
X117475000Y-98282000D02*
X140859000Y-98282000D01*
X165862000Y-106912500D02*
X165840500Y-106934000D01*
X165862000Y-102108000D02*
X165862000Y-106912500D01*
X162763000Y-106934000D02*
X162636000Y-106807000D01*
X165840500Y-106934000D02*
X162763000Y-106934000D01*
X146939000Y-109855000D02*
X164338000Y-109855000D01*
X126238000Y-107331000D02*
X126238000Y-105918000D01*
X129621000Y-80361000D02*
X129651000Y-80391000D01*
X129621000Y-76951000D02*
X129621000Y-80361000D01*
X164974000Y-67437000D02*
X157226000Y-67437000D01*
X155270000Y-65532000D02*
X158347500Y-65532000D01*
X150291800Y-80933800D02*
X147481800Y-80933800D01*
X146939000Y-80391000D02*
X141732000Y-80391000D01*
X147481800Y-80933800D02*
X146939000Y-80391000D01*
X143875000Y-70247000D02*
X129683000Y-70247000D01*
X157226000Y-69489000D02*
X154579000Y-69489000D01*
X150346600Y-80879000D02*
X150291800Y-80933800D01*
X154579000Y-80879000D02*
X150346600Y-80879000D01*
X170164000Y-80772000D02*
X170164000Y-82788000D01*
X170164000Y-82788000D02*
X170688000Y-83312000D01*
X170688000Y-83312000D02*
X170688000Y-83312000D01*
X165862000Y-91186000D02*
X165767010Y-91280990D01*
X169545000Y-91186000D02*
X165862000Y-91186000D01*
X141732000Y-80391000D02*
X129651000Y-80391000D01*
X140859000Y-98282000D02*
X165719000Y-98282000D01*
%TO.N,Net-(C5-Pad1)*%
X170815000Y-76073000D02*
X170942000Y-76073000D01*
X170942000Y-76073000D02*
X172847000Y-76073000D01*
X172847000Y-81153000D02*
X172847000Y-79680000D01*
%TO.N,Net-(CON1-Pad2)*%
X127651000Y-84217000D02*
X127762000Y-84328000D01*
X127651000Y-80391000D02*
X127651000Y-84217000D01*
X149352000Y-91821000D02*
X143002000Y-91821000D01*
X143002000Y-91821000D02*
X139827000Y-91821000D01*
X139827000Y-91821000D02*
X127762000Y-91821000D01*
%TO.N,Net-(CON2-Pad1)*%
X156733000Y-54356000D02*
X150876000Y-54356000D01*
X150876000Y-56395620D02*
X150891240Y-56410860D01*
X150876000Y-54356000D02*
X150876000Y-56395620D01*
%TO.N,UART_RX*%
X142494000Y-109331000D02*
X142494000Y-109855000D01*
X142494000Y-109855000D02*
X142240000Y-110109000D01*
X142240000Y-110109000D02*
X134874000Y-110109000D01*
X134493000Y-109728000D02*
X134493000Y-107315000D01*
X134874000Y-110109000D02*
X134493000Y-109728000D01*
%TO.N,UART_TX*%
X126222000Y-109347000D02*
X126238000Y-109331000D01*
X122362000Y-109347000D02*
X126222000Y-109347000D01*
X126238000Y-109331000D02*
X130064000Y-109331000D01*
X130683000Y-108712000D02*
X130683000Y-107315000D01*
X130064000Y-109331000D02*
X130683000Y-108712000D01*
%TO.N,Net-(D1-Pad2)*%
X117602000Y-88900000D02*
X117602000Y-88519000D01*
X115586000Y-86503000D02*
X115586000Y-85344000D01*
X117602000Y-88519000D02*
X115586000Y-86503000D01*
%TO.N,Net-(D2-Pad1)*%
X167640000Y-54356000D02*
X167767000Y-54229000D01*
X162433000Y-54356000D02*
X167640000Y-54356000D01*
%TO.N,Net-(D3-Pad1)*%
X161798000Y-59690000D02*
X161798000Y-56896000D01*
X161798000Y-56896000D02*
X178689000Y-56896000D01*
X178689000Y-56896000D02*
X178689000Y-54646000D01*
X178606000Y-54729000D02*
X178689000Y-54646000D01*
X172867000Y-54729000D02*
X178606000Y-54729000D01*
%TO.N,Net-(Q1-Pad1)*%
X117348000Y-104124000D02*
X117586000Y-104124000D01*
X120462000Y-107000000D02*
X120462000Y-109347000D01*
X117586000Y-104124000D02*
X120462000Y-107000000D01*
%TO.N,PIPICO_UART_RX*%
X117491000Y-96266000D02*
X117475000Y-96282000D01*
X122682000Y-96266000D02*
X117491000Y-96266000D01*
X117536000Y-96221000D02*
X117475000Y-96282000D01*
X117536000Y-93853000D02*
X117536000Y-96221000D01*
%TO.N,Net-(Q2-Pad1)*%
X115636000Y-93853000D02*
X115636000Y-95184000D01*
X120335000Y-95184000D02*
X142433000Y-95184000D01*
X142494000Y-95123000D02*
X142433000Y-95184000D01*
X142494000Y-105664000D02*
X142494000Y-107331000D01*
%TO.N,Net-(R2-Pad1)*%
X117586000Y-85344000D02*
X117602000Y-85344000D01*
X117602000Y-85344000D02*
X120269000Y-88011000D01*
X120269000Y-88011000D02*
X132842000Y-88011000D01*
%TO.N,SCL*%
X142748000Y-72247000D02*
X141367000Y-72247000D01*
X140605000Y-72247000D02*
X127143000Y-72247000D01*
X141367000Y-72247000D02*
X140605000Y-72247000D01*
X145542000Y-78994000D02*
X142113000Y-78994000D01*
X142113000Y-78994000D02*
X142113000Y-78994000D01*
%TO.N,SDA*%
X124587000Y-76905000D02*
X124541000Y-76951000D01*
X148082000Y-78486000D02*
X145034000Y-75438000D01*
X124541000Y-76951000D02*
X124541000Y-75230000D01*
X124541000Y-75230000D02*
X125984000Y-73787000D01*
X125984000Y-73787000D02*
X127000000Y-73787000D01*
X127000000Y-73787000D02*
X145034000Y-73787000D01*
X145034000Y-73787000D02*
X145034000Y-72247000D01*
X145034000Y-75438000D02*
X145034000Y-73787000D01*
%TO.N,PIPICO_UART_TX*%
X117364000Y-102108000D02*
X117348000Y-102124000D01*
X120142000Y-102108000D02*
X117364000Y-102108000D01*
%TO.N,MISO*%
X166865000Y-76073000D02*
X164084000Y-76073000D01*
X164084000Y-76073000D02*
X163893500Y-76263500D01*
X163893500Y-76263500D02*
X163830000Y-76327000D01*
X164592000Y-88011000D02*
X168402000Y-88011000D01*
%TO.N,~CS*%
X167865000Y-73123000D02*
X165002000Y-73123000D01*
X168164000Y-80772000D02*
X165735000Y-80772000D01*
X165735000Y-80772000D02*
X165735000Y-80772000D01*
%TO.N,SCLK*%
X166865000Y-75423000D02*
X160797000Y-75423000D01*
%TO.N,MOSI*%
X167865000Y-77073000D02*
X163592000Y-77073000D01*
X163592000Y-77073000D02*
X163576000Y-77089000D01*
X163576000Y-77089000D02*
X161798000Y-77089000D01*
X161798000Y-79502000D02*
X158242000Y-79502000D01*
X158242000Y-79502000D02*
X158242000Y-84328000D01*
%TO.N,IRQ*%
X166865000Y-74773000D02*
X163165000Y-74773000D01*
X163165000Y-74773000D02*
X162179000Y-73787000D01*
X162179000Y-73787000D02*
X161036000Y-73787000D01*
X161036000Y-73787000D02*
X155702000Y-73787000D01*
%TO.N,Net-(LK1-Pad1)*%
X150241000Y-69875000D02*
X150241000Y-71755000D01*
X150241000Y-79260700D02*
X150291800Y-79311500D01*
X150241000Y-77851000D02*
X150241000Y-79260700D01*
X150241000Y-77851000D02*
X150241000Y-76175000D01*
%TO.N,GNDA*%
X169815000Y-77073000D02*
X169165000Y-77073000D01*
X169165000Y-75375500D02*
X168846500Y-75057000D01*
X169165000Y-77073000D02*
X169165000Y-75375500D01*
X168515000Y-74725500D02*
X168846500Y-75057000D01*
X168515000Y-73123000D02*
X168515000Y-74725500D01*
X167912500Y-74123000D02*
X168846500Y-75057000D01*
X166865000Y-74123000D02*
X167912500Y-74123000D01*
X169780500Y-74123000D02*
X168846500Y-75057000D01*
X170815000Y-74123000D02*
X169780500Y-74123000D01*
X171504500Y-63224500D02*
X171450000Y-63170000D01*
X174371000Y-63224500D02*
X171504500Y-63224500D01*
X168731000Y-63170000D02*
X168274000Y-63627000D01*
X171450000Y-63170000D02*
X168731000Y-63170000D01*
X168515000Y-73123000D02*
X168515000Y-71388000D01*
X169815000Y-77073000D02*
X174895000Y-77073000D01*
X174895000Y-77073000D02*
X174990000Y-77073000D01*
X172882000Y-82915000D02*
X172847000Y-82880000D01*
X174895000Y-82915000D02*
X172882000Y-82915000D01*
%TO.N,Net-(C10-Pad1)*%
X185674000Y-75438000D02*
X185674000Y-76327000D01*
X184658000Y-74422000D02*
X185674000Y-75438000D01*
X171490000Y-75423000D02*
X172491000Y-74422000D01*
X170815000Y-75423000D02*
X171490000Y-75423000D01*
X182499000Y-72665500D02*
X182499000Y-74422000D01*
X182499000Y-74422000D02*
X184658000Y-74422000D01*
X180213000Y-72628000D02*
X180213000Y-74422000D01*
X180213000Y-74422000D02*
X182499000Y-74422000D01*
X177927000Y-72665500D02*
X177927000Y-74422000D01*
X177927000Y-74422000D02*
X180213000Y-74422000D01*
X172491000Y-74422000D02*
X177927000Y-74422000D01*
%TO.N,Net-(C10-Pad2)*%
X171503590Y-74773000D02*
X173124590Y-73152000D01*
X170815000Y-74773000D02*
X171503590Y-74773000D01*
X177881910Y-70635590D02*
X177927000Y-70590500D01*
X173124590Y-70635590D02*
X177881910Y-70635590D01*
X180175500Y-70590500D02*
X180213000Y-70628000D01*
X177927000Y-70590500D02*
X180175500Y-70590500D01*
X182461500Y-70628000D02*
X182499000Y-70590500D01*
X180213000Y-70628000D02*
X182461500Y-70628000D01*
X182499000Y-70590500D02*
X185652500Y-70590500D01*
X185652500Y-67005500D02*
X185674000Y-67027000D01*
X185652500Y-65553500D02*
X185652500Y-67005500D01*
%TO.N,Net-(C11-Pad1)*%
X148209000Y-66421000D02*
X147955000Y-66675000D01*
X148209000Y-63068000D02*
X145720000Y-63068000D01*
X147955000Y-66675000D02*
X145669000Y-66675000D01*
X156718000Y-61849000D02*
X156718000Y-59690000D01*
X156210000Y-62357000D02*
X156718000Y-61849000D01*
X148336000Y-62357000D02*
X156210000Y-62357000D01*
X148209000Y-62484000D02*
X148336000Y-62357000D01*
X148209000Y-63068000D02*
X148209000Y-62484000D01*
%TO.N,Net-(CON4-Pad3)*%
X176530000Y-109347000D02*
X184150000Y-109347000D01*
X184150000Y-109347000D02*
X184150000Y-109347000D01*
X184150000Y-106045000D02*
X184150000Y-109347000D01*
%TO.N,Net-(CON4-Pad2)*%
X186372500Y-94488000D02*
X179252500Y-94488000D01*
%TO.N,Net-(CON4-Pad1)*%
X173990000Y-106045000D02*
X173990000Y-103505000D01*
X173990000Y-103505000D02*
X175006000Y-102489000D01*
X175006000Y-102489000D02*
X181864000Y-102489000D01*
X181864000Y-102489000D02*
X181864000Y-102489000D01*
X182880000Y-81788000D02*
X186372500Y-81788000D01*
%TO.N,+5V*%
X147941000Y-69875000D02*
X148971000Y-68845000D01*
X148971000Y-68845000D02*
X148971000Y-68072000D01*
X148971000Y-66675000D02*
X149577300Y-66675000D01*
X148971000Y-68072000D02*
X148971000Y-66675000D01*
X170974010Y-93312990D02*
X171005500Y-93281500D01*
X146717010Y-93312990D02*
X170974010Y-93312990D01*
X175006000Y-89281000D02*
X171069000Y-89281000D01*
X171069000Y-89281000D02*
X170815000Y-89281000D01*
X175006000Y-89281000D02*
X179197000Y-89281000D01*
%TO.N,Net-(D4-Pad2)*%
X175006000Y-94981000D02*
X175006000Y-93726000D01*
X175006000Y-93726000D02*
X177038000Y-91694000D01*
X177038000Y-91694000D02*
X186309000Y-91694000D01*
X175006000Y-99930000D02*
X175133000Y-100057000D01*
X175006000Y-94981000D02*
X175006000Y-99930000D01*
%TO.N,+3.3VA*%
X169815000Y-73123000D02*
X169165000Y-73123000D01*
X171450000Y-66370000D02*
X173914000Y-66370000D01*
X174371000Y-65913000D02*
X174371000Y-65299500D01*
X173914000Y-66370000D02*
X174371000Y-65913000D01*
X169815000Y-73123000D02*
X171675000Y-73123000D01*
X171675000Y-66595000D02*
X171450000Y-66370000D01*
X171646000Y-67437000D02*
X171675000Y-67408000D01*
X168274000Y-67437000D02*
X171646000Y-67437000D01*
X171675000Y-67408000D02*
X171675000Y-66595000D01*
X171675000Y-73123000D02*
X171675000Y-67466000D01*
X171675000Y-67466000D02*
X171675000Y-67408000D01*
%TO.N,Net-(Q3-Pad1)*%
X140462000Y-100203000D02*
X140462000Y-102108000D01*
X140970000Y-99695000D02*
X140462000Y-100203000D01*
X168529000Y-99695000D02*
X140970000Y-99695000D01*
X169225000Y-98999000D02*
X168529000Y-99695000D01*
X172847000Y-98999000D02*
X169225000Y-98999000D01*
%TD*%
D44*
%TO.N,GNDA*%
X175260000Y-87692928D02*
X173736000Y-87692928D01*
X173611518Y-87705188D01*
X173491820Y-87741498D01*
X173381506Y-87800463D01*
X173284815Y-87879815D01*
X173205463Y-87976506D01*
X173146498Y-88086820D01*
X173110188Y-88206518D01*
X173097928Y-88331000D01*
X173097928Y-88521000D01*
X171772711Y-88521000D01*
X171728774Y-88477063D01*
X171559256Y-88363795D01*
X171370898Y-88285774D01*
X171170939Y-88246000D01*
X170967061Y-88246000D01*
X170767102Y-88285774D01*
X170578744Y-88363795D01*
X170409226Y-88477063D01*
X170265063Y-88621226D01*
X170151795Y-88790744D01*
X170073774Y-88979102D01*
X170034000Y-89179061D01*
X170034000Y-89382939D01*
X170073774Y-89582898D01*
X170151795Y-89771256D01*
X170265063Y-89940774D01*
X170409226Y-90084937D01*
X170578744Y-90198205D01*
X170767102Y-90276226D01*
X170967061Y-90316000D01*
X171170939Y-90316000D01*
X171370898Y-90276226D01*
X171559256Y-90198205D01*
X171728774Y-90084937D01*
X171772711Y-90041000D01*
X173097928Y-90041000D01*
X173097928Y-90231000D01*
X173110188Y-90355482D01*
X173146498Y-90475180D01*
X173187025Y-90551000D01*
X170365490Y-90551000D01*
X170348937Y-90526226D01*
X170204774Y-90382063D01*
X170035256Y-90268795D01*
X169846898Y-90190774D01*
X169646939Y-90151000D01*
X169443061Y-90151000D01*
X169243102Y-90190774D01*
X169054744Y-90268795D01*
X168885226Y-90382063D01*
X168841289Y-90426000D01*
X166350378Y-90426000D01*
X166257266Y-90363785D01*
X166068908Y-90285764D01*
X165868949Y-90245990D01*
X165665071Y-90245990D01*
X165465112Y-90285764D01*
X165276754Y-90363785D01*
X165107236Y-90477053D01*
X165033289Y-90551000D01*
X164023711Y-90551000D01*
X164125937Y-90448774D01*
X164239205Y-90279256D01*
X164317226Y-90090898D01*
X164357000Y-89890939D01*
X164357000Y-89687061D01*
X164317226Y-89487102D01*
X164239205Y-89298744D01*
X164125937Y-89129226D01*
X163981774Y-88985063D01*
X163812256Y-88871795D01*
X163623898Y-88793774D01*
X163423939Y-88754000D01*
X163220061Y-88754000D01*
X163020102Y-88793774D01*
X162831744Y-88871795D01*
X162662226Y-88985063D01*
X162518063Y-89129226D01*
X162494153Y-89165010D01*
X162052000Y-89165010D01*
X162052000Y-87909061D01*
X163557000Y-87909061D01*
X163557000Y-88112939D01*
X163596774Y-88312898D01*
X163674795Y-88501256D01*
X163788063Y-88670774D01*
X163932226Y-88814937D01*
X164101744Y-88928205D01*
X164290102Y-89006226D01*
X164490061Y-89046000D01*
X164693939Y-89046000D01*
X164893898Y-89006226D01*
X165082256Y-88928205D01*
X165251774Y-88814937D01*
X165295711Y-88771000D01*
X167698289Y-88771000D01*
X167742226Y-88814937D01*
X167911744Y-88928205D01*
X168100102Y-89006226D01*
X168300061Y-89046000D01*
X168503939Y-89046000D01*
X168703898Y-89006226D01*
X168892256Y-88928205D01*
X169061774Y-88814937D01*
X169205937Y-88670774D01*
X169319205Y-88501256D01*
X169397226Y-88312898D01*
X169437000Y-88112939D01*
X169437000Y-87909061D01*
X169397226Y-87709102D01*
X169319205Y-87520744D01*
X169205937Y-87351226D01*
X169061774Y-87207063D01*
X168892256Y-87093795D01*
X168703898Y-87015774D01*
X168503939Y-86976000D01*
X168300061Y-86976000D01*
X168100102Y-87015774D01*
X167911744Y-87093795D01*
X167742226Y-87207063D01*
X167698289Y-87251000D01*
X165295711Y-87251000D01*
X165251774Y-87207063D01*
X165082256Y-87093795D01*
X164893898Y-87015774D01*
X164693939Y-86976000D01*
X164490061Y-86976000D01*
X164290102Y-87015774D01*
X164101744Y-87093795D01*
X163932226Y-87207063D01*
X163788063Y-87351226D01*
X163674795Y-87520744D01*
X163596774Y-87709102D01*
X163557000Y-87909061D01*
X162052000Y-87909061D01*
X162052000Y-85552208D01*
X162081294Y-85607013D01*
X162266866Y-85833134D01*
X162492986Y-86018706D01*
X162750966Y-86156599D01*
X163030889Y-86241513D01*
X163322000Y-86270185D01*
X163613110Y-86241513D01*
X163893033Y-86156599D01*
X164151013Y-86018706D01*
X164377134Y-85833134D01*
X164562706Y-85607014D01*
X164592000Y-85552208D01*
X164621294Y-85607013D01*
X164806866Y-85833134D01*
X165032986Y-86018706D01*
X165290966Y-86156599D01*
X165570889Y-86241513D01*
X165862000Y-86270185D01*
X166153110Y-86241513D01*
X166433033Y-86156599D01*
X166691013Y-86018706D01*
X166917134Y-85833134D01*
X167102706Y-85607014D01*
X167132000Y-85552208D01*
X167161294Y-85607013D01*
X167346866Y-85833134D01*
X167572986Y-86018706D01*
X167830966Y-86156599D01*
X168110889Y-86241513D01*
X168402000Y-86270185D01*
X168693110Y-86241513D01*
X168973033Y-86156599D01*
X169231013Y-86018706D01*
X169457134Y-85833134D01*
X169642706Y-85607014D01*
X169780599Y-85349034D01*
X169865513Y-85069111D01*
X169887000Y-84850950D01*
X169887000Y-83974711D01*
X170028226Y-84115937D01*
X170197744Y-84229205D01*
X170386102Y-84307226D01*
X170586061Y-84347000D01*
X170789939Y-84347000D01*
X170989898Y-84307226D01*
X171178256Y-84229205D01*
X171347774Y-84115937D01*
X171491937Y-83971774D01*
X171493118Y-83970006D01*
X171542506Y-84010537D01*
X171652820Y-84069502D01*
X171772518Y-84105812D01*
X171897000Y-84118072D01*
X172561250Y-84115000D01*
X172720000Y-83956250D01*
X172720000Y-83007000D01*
X172974000Y-83007000D01*
X172974000Y-83956250D01*
X173132750Y-84115000D01*
X173797000Y-84118072D01*
X173921482Y-84105812D01*
X174041180Y-84069502D01*
X174151494Y-84010537D01*
X174248185Y-83931185D01*
X174327537Y-83834494D01*
X174386502Y-83724180D01*
X174422812Y-83604482D01*
X174435072Y-83480000D01*
X174432000Y-83165750D01*
X174273250Y-83007000D01*
X172974000Y-83007000D01*
X172720000Y-83007000D01*
X172700000Y-83007000D01*
X172700000Y-82753000D01*
X172720000Y-82753000D01*
X172720000Y-82733000D01*
X172974000Y-82733000D01*
X172974000Y-82753000D01*
X174273250Y-82753000D01*
X174432000Y-82594250D01*
X174435072Y-82280000D01*
X174422812Y-82155518D01*
X174386502Y-82035820D01*
X174327537Y-81925506D01*
X174248185Y-81828815D01*
X174151494Y-81749463D01*
X174041180Y-81690498D01*
X173921482Y-81654188D01*
X173797000Y-81641928D01*
X173764693Y-81642077D01*
X173842226Y-81454898D01*
X173882000Y-81254939D01*
X173882000Y-81051061D01*
X173854422Y-80912417D01*
X173921482Y-80905812D01*
X174041180Y-80869502D01*
X174151494Y-80810537D01*
X174248185Y-80731185D01*
X174327537Y-80634494D01*
X174386502Y-80524180D01*
X174422812Y-80404482D01*
X174435072Y-80280000D01*
X174435072Y-79080000D01*
X174422812Y-78955518D01*
X174386502Y-78835820D01*
X174327537Y-78725506D01*
X174248185Y-78628815D01*
X174151494Y-78549463D01*
X174041180Y-78490498D01*
X173921482Y-78454188D01*
X173797000Y-78441928D01*
X171897000Y-78441928D01*
X171772518Y-78454188D01*
X171652820Y-78490498D01*
X171542506Y-78549463D01*
X171445815Y-78628815D01*
X171366463Y-78725506D01*
X171307498Y-78835820D01*
X171271188Y-78955518D01*
X171258928Y-79080000D01*
X171258928Y-79840817D01*
X171252405Y-79828613D01*
X171141962Y-79694038D01*
X171007387Y-79583595D01*
X170853851Y-79501528D01*
X170687255Y-79450992D01*
X170514001Y-79433928D01*
X169813999Y-79433928D01*
X169640745Y-79450992D01*
X169474149Y-79501528D01*
X169320613Y-79583595D01*
X169186038Y-79694038D01*
X169164000Y-79720891D01*
X169141962Y-79694038D01*
X169007387Y-79583595D01*
X168853851Y-79501528D01*
X168687255Y-79450992D01*
X168514001Y-79433928D01*
X167813999Y-79433928D01*
X167640745Y-79450992D01*
X167474149Y-79501528D01*
X167320613Y-79583595D01*
X167186038Y-79694038D01*
X167075595Y-79828613D01*
X166993528Y-79982149D01*
X166984473Y-80012000D01*
X166438711Y-80012000D01*
X166394774Y-79968063D01*
X166225256Y-79854795D01*
X166036898Y-79776774D01*
X165836939Y-79737000D01*
X165633061Y-79737000D01*
X165433102Y-79776774D01*
X165244744Y-79854795D01*
X165075226Y-79968063D01*
X164931063Y-80112226D01*
X164817795Y-80281744D01*
X164739774Y-80470102D01*
X164700000Y-80670061D01*
X164700000Y-80873939D01*
X164739774Y-81073898D01*
X164817795Y-81262256D01*
X164931063Y-81431774D01*
X165075226Y-81575937D01*
X165244744Y-81689205D01*
X165433102Y-81767226D01*
X165633061Y-81807000D01*
X165836939Y-81807000D01*
X166036898Y-81767226D01*
X166225256Y-81689205D01*
X166394774Y-81575937D01*
X166438711Y-81532000D01*
X166984473Y-81532000D01*
X166993528Y-81561851D01*
X167075595Y-81715387D01*
X167186038Y-81849962D01*
X167320613Y-81960405D01*
X167474149Y-82042472D01*
X167640745Y-82093008D01*
X167813999Y-82110072D01*
X168514001Y-82110072D01*
X168687255Y-82093008D01*
X168853851Y-82042472D01*
X169007387Y-81960405D01*
X169141962Y-81849962D01*
X169164000Y-81823109D01*
X169186038Y-81849962D01*
X169320613Y-81960405D01*
X169404001Y-82004977D01*
X169404001Y-82750668D01*
X169401395Y-82777122D01*
X169231014Y-82637294D01*
X168973034Y-82499401D01*
X168693111Y-82414487D01*
X168402000Y-82385815D01*
X168110890Y-82414487D01*
X167830967Y-82499401D01*
X167572987Y-82637294D01*
X167346867Y-82822866D01*
X167161294Y-83048986D01*
X167132000Y-83103791D01*
X167102706Y-83048986D01*
X166917134Y-82822866D01*
X166691014Y-82637294D01*
X166433034Y-82499401D01*
X166153111Y-82414487D01*
X165862000Y-82385815D01*
X165570890Y-82414487D01*
X165290967Y-82499401D01*
X165032987Y-82637294D01*
X164806867Y-82822866D01*
X164621294Y-83048986D01*
X164592000Y-83103791D01*
X164562706Y-83048986D01*
X164377134Y-82822866D01*
X164151014Y-82637294D01*
X163893034Y-82499401D01*
X163613111Y-82414487D01*
X163322000Y-82385815D01*
X163030890Y-82414487D01*
X162750967Y-82499401D01*
X162492987Y-82637294D01*
X162266867Y-82822866D01*
X162081294Y-83048986D01*
X162052000Y-83103791D01*
X162052000Y-80506753D01*
X162099898Y-80497226D01*
X162288256Y-80419205D01*
X162457774Y-80305937D01*
X162601937Y-80161774D01*
X162715205Y-79992256D01*
X162793226Y-79803898D01*
X162833000Y-79603939D01*
X162833000Y-79400061D01*
X162793226Y-79200102D01*
X162715205Y-79011744D01*
X162601937Y-78842226D01*
X162457774Y-78698063D01*
X162288256Y-78584795D01*
X162099898Y-78506774D01*
X162052000Y-78497247D01*
X162052000Y-78093753D01*
X162099898Y-78084226D01*
X162288256Y-78006205D01*
X162457774Y-77892937D01*
X162501711Y-77849000D01*
X163538678Y-77849000D01*
X163576000Y-77852676D01*
X163613322Y-77849000D01*
X163613333Y-77849000D01*
X163724986Y-77838003D01*
X163741479Y-77833000D01*
X167124043Y-77833000D01*
X167134463Y-77852494D01*
X167213815Y-77949185D01*
X167310506Y-78028537D01*
X167420820Y-78087502D01*
X167540518Y-78123812D01*
X167665000Y-78136072D01*
X168065000Y-78136072D01*
X168189482Y-78123812D01*
X168190000Y-78123655D01*
X168190518Y-78123812D01*
X168315000Y-78136072D01*
X168715000Y-78136072D01*
X168839482Y-78123812D01*
X168842873Y-78122783D01*
X168933250Y-78133000D01*
X169001218Y-78065032D01*
X169069494Y-78028537D01*
X169165910Y-77949411D01*
X169249247Y-78020839D01*
X169329994Y-78066244D01*
X169396750Y-78133000D01*
X169490000Y-78122458D01*
X169583250Y-78133000D01*
X169650006Y-78066244D01*
X169730753Y-78020839D01*
X169825726Y-77939438D01*
X169888000Y-77860160D01*
X169888000Y-77974250D01*
X170046750Y-78133000D01*
X170152830Y-78121008D01*
X170271725Y-78082147D01*
X170380753Y-78020839D01*
X170475726Y-77939438D01*
X170552994Y-77841072D01*
X170609586Y-77729523D01*
X170643330Y-77609076D01*
X170652926Y-77484361D01*
X170650000Y-77358750D01*
X170491250Y-77200000D01*
X169888000Y-77200000D01*
X169888000Y-77246750D01*
X169841250Y-77200000D01*
X169668000Y-77200000D01*
X169668000Y-76946000D01*
X169841250Y-76946000D01*
X169861250Y-76926000D01*
X169888000Y-76926000D01*
X169888000Y-76946000D01*
X170491250Y-76946000D01*
X170526178Y-76911072D01*
X171240000Y-76911072D01*
X171364482Y-76898812D01*
X171484180Y-76862502D01*
X171539373Y-76833000D01*
X172143289Y-76833000D01*
X172187226Y-76876937D01*
X172356744Y-76990205D01*
X172545102Y-77068226D01*
X172745061Y-77108000D01*
X172948939Y-77108000D01*
X173148898Y-77068226D01*
X173337256Y-76990205D01*
X173506774Y-76876937D01*
X173650937Y-76732774D01*
X173764205Y-76563256D01*
X173842226Y-76374898D01*
X173882000Y-76174939D01*
X173882000Y-76110664D01*
X175260000Y-76076214D01*
X175260000Y-87692928D01*
%TA.AperFunction,Conductor*%
D45*
G36*
X175260000Y-87692928D02*
G01*
X173736000Y-87692928D01*
X173611518Y-87705188D01*
X173491820Y-87741498D01*
X173381506Y-87800463D01*
X173284815Y-87879815D01*
X173205463Y-87976506D01*
X173146498Y-88086820D01*
X173110188Y-88206518D01*
X173097928Y-88331000D01*
X173097928Y-88521000D01*
X171772711Y-88521000D01*
X171728774Y-88477063D01*
X171559256Y-88363795D01*
X171370898Y-88285774D01*
X171170939Y-88246000D01*
X170967061Y-88246000D01*
X170767102Y-88285774D01*
X170578744Y-88363795D01*
X170409226Y-88477063D01*
X170265063Y-88621226D01*
X170151795Y-88790744D01*
X170073774Y-88979102D01*
X170034000Y-89179061D01*
X170034000Y-89382939D01*
X170073774Y-89582898D01*
X170151795Y-89771256D01*
X170265063Y-89940774D01*
X170409226Y-90084937D01*
X170578744Y-90198205D01*
X170767102Y-90276226D01*
X170967061Y-90316000D01*
X171170939Y-90316000D01*
X171370898Y-90276226D01*
X171559256Y-90198205D01*
X171728774Y-90084937D01*
X171772711Y-90041000D01*
X173097928Y-90041000D01*
X173097928Y-90231000D01*
X173110188Y-90355482D01*
X173146498Y-90475180D01*
X173187025Y-90551000D01*
X170365490Y-90551000D01*
X170348937Y-90526226D01*
X170204774Y-90382063D01*
X170035256Y-90268795D01*
X169846898Y-90190774D01*
X169646939Y-90151000D01*
X169443061Y-90151000D01*
X169243102Y-90190774D01*
X169054744Y-90268795D01*
X168885226Y-90382063D01*
X168841289Y-90426000D01*
X166350378Y-90426000D01*
X166257266Y-90363785D01*
X166068908Y-90285764D01*
X165868949Y-90245990D01*
X165665071Y-90245990D01*
X165465112Y-90285764D01*
X165276754Y-90363785D01*
X165107236Y-90477053D01*
X165033289Y-90551000D01*
X164023711Y-90551000D01*
X164125937Y-90448774D01*
X164239205Y-90279256D01*
X164317226Y-90090898D01*
X164357000Y-89890939D01*
X164357000Y-89687061D01*
X164317226Y-89487102D01*
X164239205Y-89298744D01*
X164125937Y-89129226D01*
X163981774Y-88985063D01*
X163812256Y-88871795D01*
X163623898Y-88793774D01*
X163423939Y-88754000D01*
X163220061Y-88754000D01*
X163020102Y-88793774D01*
X162831744Y-88871795D01*
X162662226Y-88985063D01*
X162518063Y-89129226D01*
X162494153Y-89165010D01*
X162052000Y-89165010D01*
X162052000Y-87909061D01*
X163557000Y-87909061D01*
X163557000Y-88112939D01*
X163596774Y-88312898D01*
X163674795Y-88501256D01*
X163788063Y-88670774D01*
X163932226Y-88814937D01*
X164101744Y-88928205D01*
X164290102Y-89006226D01*
X164490061Y-89046000D01*
X164693939Y-89046000D01*
X164893898Y-89006226D01*
X165082256Y-88928205D01*
X165251774Y-88814937D01*
X165295711Y-88771000D01*
X167698289Y-88771000D01*
X167742226Y-88814937D01*
X167911744Y-88928205D01*
X168100102Y-89006226D01*
X168300061Y-89046000D01*
X168503939Y-89046000D01*
X168703898Y-89006226D01*
X168892256Y-88928205D01*
X169061774Y-88814937D01*
X169205937Y-88670774D01*
X169319205Y-88501256D01*
X169397226Y-88312898D01*
X169437000Y-88112939D01*
X169437000Y-87909061D01*
X169397226Y-87709102D01*
X169319205Y-87520744D01*
X169205937Y-87351226D01*
X169061774Y-87207063D01*
X168892256Y-87093795D01*
X168703898Y-87015774D01*
X168503939Y-86976000D01*
X168300061Y-86976000D01*
X168100102Y-87015774D01*
X167911744Y-87093795D01*
X167742226Y-87207063D01*
X167698289Y-87251000D01*
X165295711Y-87251000D01*
X165251774Y-87207063D01*
X165082256Y-87093795D01*
X164893898Y-87015774D01*
X164693939Y-86976000D01*
X164490061Y-86976000D01*
X164290102Y-87015774D01*
X164101744Y-87093795D01*
X163932226Y-87207063D01*
X163788063Y-87351226D01*
X163674795Y-87520744D01*
X163596774Y-87709102D01*
X163557000Y-87909061D01*
X162052000Y-87909061D01*
X162052000Y-85552208D01*
X162081294Y-85607013D01*
X162266866Y-85833134D01*
X162492986Y-86018706D01*
X162750966Y-86156599D01*
X163030889Y-86241513D01*
X163322000Y-86270185D01*
X163613110Y-86241513D01*
X163893033Y-86156599D01*
X164151013Y-86018706D01*
X164377134Y-85833134D01*
X164562706Y-85607014D01*
X164592000Y-85552208D01*
X164621294Y-85607013D01*
X164806866Y-85833134D01*
X165032986Y-86018706D01*
X165290966Y-86156599D01*
X165570889Y-86241513D01*
X165862000Y-86270185D01*
X166153110Y-86241513D01*
X166433033Y-86156599D01*
X166691013Y-86018706D01*
X166917134Y-85833134D01*
X167102706Y-85607014D01*
X167132000Y-85552208D01*
X167161294Y-85607013D01*
X167346866Y-85833134D01*
X167572986Y-86018706D01*
X167830966Y-86156599D01*
X168110889Y-86241513D01*
X168402000Y-86270185D01*
X168693110Y-86241513D01*
X168973033Y-86156599D01*
X169231013Y-86018706D01*
X169457134Y-85833134D01*
X169642706Y-85607014D01*
X169780599Y-85349034D01*
X169865513Y-85069111D01*
X169887000Y-84850950D01*
X169887000Y-83974711D01*
X170028226Y-84115937D01*
X170197744Y-84229205D01*
X170386102Y-84307226D01*
X170586061Y-84347000D01*
X170789939Y-84347000D01*
X170989898Y-84307226D01*
X171178256Y-84229205D01*
X171347774Y-84115937D01*
X171491937Y-83971774D01*
X171493118Y-83970006D01*
X171542506Y-84010537D01*
X171652820Y-84069502D01*
X171772518Y-84105812D01*
X171897000Y-84118072D01*
X172561250Y-84115000D01*
X172720000Y-83956250D01*
X172720000Y-83007000D01*
X172974000Y-83007000D01*
X172974000Y-83956250D01*
X173132750Y-84115000D01*
X173797000Y-84118072D01*
X173921482Y-84105812D01*
X174041180Y-84069502D01*
X174151494Y-84010537D01*
X174248185Y-83931185D01*
X174327537Y-83834494D01*
X174386502Y-83724180D01*
X174422812Y-83604482D01*
X174435072Y-83480000D01*
X174432000Y-83165750D01*
X174273250Y-83007000D01*
X172974000Y-83007000D01*
X172720000Y-83007000D01*
X172700000Y-83007000D01*
X172700000Y-82753000D01*
X172720000Y-82753000D01*
X172720000Y-82733000D01*
X172974000Y-82733000D01*
X172974000Y-82753000D01*
X174273250Y-82753000D01*
X174432000Y-82594250D01*
X174435072Y-82280000D01*
X174422812Y-82155518D01*
X174386502Y-82035820D01*
X174327537Y-81925506D01*
X174248185Y-81828815D01*
X174151494Y-81749463D01*
X174041180Y-81690498D01*
X173921482Y-81654188D01*
X173797000Y-81641928D01*
X173764693Y-81642077D01*
X173842226Y-81454898D01*
X173882000Y-81254939D01*
X173882000Y-81051061D01*
X173854422Y-80912417D01*
X173921482Y-80905812D01*
X174041180Y-80869502D01*
X174151494Y-80810537D01*
X174248185Y-80731185D01*
X174327537Y-80634494D01*
X174386502Y-80524180D01*
X174422812Y-80404482D01*
X174435072Y-80280000D01*
X174435072Y-79080000D01*
X174422812Y-78955518D01*
X174386502Y-78835820D01*
X174327537Y-78725506D01*
X174248185Y-78628815D01*
X174151494Y-78549463D01*
X174041180Y-78490498D01*
X173921482Y-78454188D01*
X173797000Y-78441928D01*
X171897000Y-78441928D01*
X171772518Y-78454188D01*
X171652820Y-78490498D01*
X171542506Y-78549463D01*
X171445815Y-78628815D01*
X171366463Y-78725506D01*
X171307498Y-78835820D01*
X171271188Y-78955518D01*
X171258928Y-79080000D01*
X171258928Y-79840817D01*
X171252405Y-79828613D01*
X171141962Y-79694038D01*
X171007387Y-79583595D01*
X170853851Y-79501528D01*
X170687255Y-79450992D01*
X170514001Y-79433928D01*
X169813999Y-79433928D01*
X169640745Y-79450992D01*
X169474149Y-79501528D01*
X169320613Y-79583595D01*
X169186038Y-79694038D01*
X169164000Y-79720891D01*
X169141962Y-79694038D01*
X169007387Y-79583595D01*
X168853851Y-79501528D01*
X168687255Y-79450992D01*
X168514001Y-79433928D01*
X167813999Y-79433928D01*
X167640745Y-79450992D01*
X167474149Y-79501528D01*
X167320613Y-79583595D01*
X167186038Y-79694038D01*
X167075595Y-79828613D01*
X166993528Y-79982149D01*
X166984473Y-80012000D01*
X166438711Y-80012000D01*
X166394774Y-79968063D01*
X166225256Y-79854795D01*
X166036898Y-79776774D01*
X165836939Y-79737000D01*
X165633061Y-79737000D01*
X165433102Y-79776774D01*
X165244744Y-79854795D01*
X165075226Y-79968063D01*
X164931063Y-80112226D01*
X164817795Y-80281744D01*
X164739774Y-80470102D01*
X164700000Y-80670061D01*
X164700000Y-80873939D01*
X164739774Y-81073898D01*
X164817795Y-81262256D01*
X164931063Y-81431774D01*
X165075226Y-81575937D01*
X165244744Y-81689205D01*
X165433102Y-81767226D01*
X165633061Y-81807000D01*
X165836939Y-81807000D01*
X166036898Y-81767226D01*
X166225256Y-81689205D01*
X166394774Y-81575937D01*
X166438711Y-81532000D01*
X166984473Y-81532000D01*
X166993528Y-81561851D01*
X167075595Y-81715387D01*
X167186038Y-81849962D01*
X167320613Y-81960405D01*
X167474149Y-82042472D01*
X167640745Y-82093008D01*
X167813999Y-82110072D01*
X168514001Y-82110072D01*
X168687255Y-82093008D01*
X168853851Y-82042472D01*
X169007387Y-81960405D01*
X169141962Y-81849962D01*
X169164000Y-81823109D01*
X169186038Y-81849962D01*
X169320613Y-81960405D01*
X169404001Y-82004977D01*
X169404001Y-82750668D01*
X169401395Y-82777122D01*
X169231014Y-82637294D01*
X168973034Y-82499401D01*
X168693111Y-82414487D01*
X168402000Y-82385815D01*
X168110890Y-82414487D01*
X167830967Y-82499401D01*
X167572987Y-82637294D01*
X167346867Y-82822866D01*
X167161294Y-83048986D01*
X167132000Y-83103791D01*
X167102706Y-83048986D01*
X166917134Y-82822866D01*
X166691014Y-82637294D01*
X166433034Y-82499401D01*
X166153111Y-82414487D01*
X165862000Y-82385815D01*
X165570890Y-82414487D01*
X165290967Y-82499401D01*
X165032987Y-82637294D01*
X164806867Y-82822866D01*
X164621294Y-83048986D01*
X164592000Y-83103791D01*
X164562706Y-83048986D01*
X164377134Y-82822866D01*
X164151014Y-82637294D01*
X163893034Y-82499401D01*
X163613111Y-82414487D01*
X163322000Y-82385815D01*
X163030890Y-82414487D01*
X162750967Y-82499401D01*
X162492987Y-82637294D01*
X162266867Y-82822866D01*
X162081294Y-83048986D01*
X162052000Y-83103791D01*
X162052000Y-80506753D01*
X162099898Y-80497226D01*
X162288256Y-80419205D01*
X162457774Y-80305937D01*
X162601937Y-80161774D01*
X162715205Y-79992256D01*
X162793226Y-79803898D01*
X162833000Y-79603939D01*
X162833000Y-79400061D01*
X162793226Y-79200102D01*
X162715205Y-79011744D01*
X162601937Y-78842226D01*
X162457774Y-78698063D01*
X162288256Y-78584795D01*
X162099898Y-78506774D01*
X162052000Y-78497247D01*
X162052000Y-78093753D01*
X162099898Y-78084226D01*
X162288256Y-78006205D01*
X162457774Y-77892937D01*
X162501711Y-77849000D01*
X163538678Y-77849000D01*
X163576000Y-77852676D01*
X163613322Y-77849000D01*
X163613333Y-77849000D01*
X163724986Y-77838003D01*
X163741479Y-77833000D01*
X167124043Y-77833000D01*
X167134463Y-77852494D01*
X167213815Y-77949185D01*
X167310506Y-78028537D01*
X167420820Y-78087502D01*
X167540518Y-78123812D01*
X167665000Y-78136072D01*
X168065000Y-78136072D01*
X168189482Y-78123812D01*
X168190000Y-78123655D01*
X168190518Y-78123812D01*
X168315000Y-78136072D01*
X168715000Y-78136072D01*
X168839482Y-78123812D01*
X168842873Y-78122783D01*
X168933250Y-78133000D01*
X169001218Y-78065032D01*
X169069494Y-78028537D01*
X169165910Y-77949411D01*
X169249247Y-78020839D01*
X169329994Y-78066244D01*
X169396750Y-78133000D01*
X169490000Y-78122458D01*
X169583250Y-78133000D01*
X169650006Y-78066244D01*
X169730753Y-78020839D01*
X169825726Y-77939438D01*
X169888000Y-77860160D01*
X169888000Y-77974250D01*
X170046750Y-78133000D01*
X170152830Y-78121008D01*
X170271725Y-78082147D01*
X170380753Y-78020839D01*
X170475726Y-77939438D01*
X170552994Y-77841072D01*
X170609586Y-77729523D01*
X170643330Y-77609076D01*
X170652926Y-77484361D01*
X170650000Y-77358750D01*
X170491250Y-77200000D01*
X169888000Y-77200000D01*
X169888000Y-77246750D01*
X169841250Y-77200000D01*
X169668000Y-77200000D01*
X169668000Y-76946000D01*
X169841250Y-76946000D01*
X169861250Y-76926000D01*
X169888000Y-76926000D01*
X169888000Y-76946000D01*
X170491250Y-76946000D01*
X170526178Y-76911072D01*
X171240000Y-76911072D01*
X171364482Y-76898812D01*
X171484180Y-76862502D01*
X171539373Y-76833000D01*
X172143289Y-76833000D01*
X172187226Y-76876937D01*
X172356744Y-76990205D01*
X172545102Y-77068226D01*
X172745061Y-77108000D01*
X172948939Y-77108000D01*
X173148898Y-77068226D01*
X173337256Y-76990205D01*
X173506774Y-76876937D01*
X173650937Y-76732774D01*
X173764205Y-76563256D01*
X173842226Y-76374898D01*
X173882000Y-76174939D01*
X173882000Y-76110664D01*
X175260000Y-76076214D01*
X175260000Y-87692928D01*
G37*
%TD.AperFunction*%
D44*
X168973500Y-74930000D02*
X168993500Y-74930000D01*
X168993500Y-75184000D01*
X168973500Y-75184000D01*
X168973500Y-75204000D01*
X168719500Y-75204000D01*
X168719500Y-75184000D01*
X168699500Y-75184000D01*
X168699500Y-74930000D01*
X168719500Y-74930000D01*
X168719500Y-74910000D01*
X168973500Y-74910000D01*
X168973500Y-74930000D01*
%TA.AperFunction,Conductor*%
D45*
G36*
X168973500Y-74930000D02*
G01*
X168993500Y-74930000D01*
X168993500Y-75184000D01*
X168973500Y-75184000D01*
X168973500Y-75204000D01*
X168719500Y-75204000D01*
X168719500Y-75184000D01*
X168699500Y-75184000D01*
X168699500Y-74930000D01*
X168719500Y-74930000D01*
X168719500Y-74910000D01*
X168973500Y-74910000D01*
X168973500Y-74930000D01*
G37*
%TD.AperFunction*%
D44*
X169874188Y-62445518D02*
X169861928Y-62570000D01*
X169865000Y-62884250D01*
X170023750Y-63043000D01*
X171323000Y-63043000D01*
X171323000Y-63023000D01*
X171577000Y-63023000D01*
X171577000Y-63043000D01*
X172876250Y-63043000D01*
X173010693Y-62908557D01*
X173011000Y-62938750D01*
X173169750Y-63097500D01*
X173482000Y-63097500D01*
X173482000Y-63351500D01*
X173169750Y-63351500D01*
X173035295Y-63485955D01*
X173035000Y-63455750D01*
X172876250Y-63297000D01*
X171577000Y-63297000D01*
X171577000Y-64246250D01*
X171735750Y-64405000D01*
X172400000Y-64408072D01*
X172524482Y-64395812D01*
X172644180Y-64359502D01*
X172754494Y-64300537D01*
X172851185Y-64221185D01*
X172930537Y-64124494D01*
X172989502Y-64014180D01*
X173018444Y-63918772D01*
X173020188Y-63936482D01*
X173056498Y-64056180D01*
X173115463Y-64166494D01*
X173194815Y-64263185D01*
X173274594Y-64328658D01*
X173268038Y-64334038D01*
X173157595Y-64468614D01*
X173075528Y-64622150D01*
X173024992Y-64788746D01*
X173007928Y-64962000D01*
X173007928Y-65586562D01*
X172989502Y-65525820D01*
X172930537Y-65415506D01*
X172851185Y-65318815D01*
X172754494Y-65239463D01*
X172644180Y-65180498D01*
X172524482Y-65144188D01*
X172400000Y-65131928D01*
X170500000Y-65131928D01*
X170375518Y-65144188D01*
X170255820Y-65180498D01*
X170145506Y-65239463D01*
X170048815Y-65318815D01*
X169969463Y-65415506D01*
X169910498Y-65525820D01*
X169874188Y-65645518D01*
X169861928Y-65770000D01*
X169861928Y-66677000D01*
X169412072Y-66677000D01*
X169412072Y-66187000D01*
X169399812Y-66062518D01*
X169363502Y-65942820D01*
X169304537Y-65832506D01*
X169225185Y-65735815D01*
X169128494Y-65656463D01*
X169018180Y-65597498D01*
X168898482Y-65561188D01*
X168774000Y-65548928D01*
X167774000Y-65548928D01*
X167649518Y-65561188D01*
X167529820Y-65597498D01*
X167419506Y-65656463D01*
X167322815Y-65735815D01*
X167243463Y-65832506D01*
X167184498Y-65942820D01*
X167148188Y-66062518D01*
X167135928Y-66187000D01*
X167135928Y-68687000D01*
X167148188Y-68811482D01*
X167184498Y-68931180D01*
X167243463Y-69041494D01*
X167322815Y-69138185D01*
X167419506Y-69217537D01*
X167529820Y-69276502D01*
X167649518Y-69312812D01*
X167774000Y-69325072D01*
X168774000Y-69325072D01*
X168898482Y-69312812D01*
X169018180Y-69276502D01*
X169128494Y-69217537D01*
X169225185Y-69138185D01*
X169304537Y-69041494D01*
X169363502Y-68931180D01*
X169399812Y-68811482D01*
X169412072Y-68687000D01*
X169412072Y-68197000D01*
X170915001Y-68197000D01*
X170915001Y-69215000D01*
X170307000Y-69215000D01*
X170282224Y-69217440D01*
X170258399Y-69224667D01*
X170236443Y-69236403D01*
X170217197Y-69252197D01*
X170201403Y-69271443D01*
X170189667Y-69293399D01*
X170182440Y-69317224D01*
X170180000Y-69342000D01*
X170180000Y-72084479D01*
X170139482Y-72072188D01*
X170015000Y-72059928D01*
X169615000Y-72059928D01*
X169490518Y-72072188D01*
X169490000Y-72072345D01*
X169489482Y-72072188D01*
X169365000Y-72059928D01*
X168965000Y-72059928D01*
X168840518Y-72072188D01*
X168837127Y-72073217D01*
X168746750Y-72063000D01*
X168678782Y-72130968D01*
X168610506Y-72167463D01*
X168515000Y-72245842D01*
X168419494Y-72167463D01*
X168351218Y-72130968D01*
X168283250Y-72063000D01*
X168192873Y-72073217D01*
X168189482Y-72072188D01*
X168065000Y-72059928D01*
X167665000Y-72059928D01*
X167540518Y-72072188D01*
X167420820Y-72108498D01*
X167310506Y-72167463D01*
X167213815Y-72246815D01*
X167134463Y-72343506D01*
X167124043Y-72363000D01*
X165705711Y-72363000D01*
X165661774Y-72319063D01*
X165492256Y-72205795D01*
X165303898Y-72127774D01*
X165103939Y-72088000D01*
X164900061Y-72088000D01*
X164700102Y-72127774D01*
X164511744Y-72205795D01*
X164342226Y-72319063D01*
X164198063Y-72463226D01*
X164084795Y-72632744D01*
X164006774Y-72821102D01*
X163967000Y-73021061D01*
X163967000Y-73224939D01*
X164006774Y-73424898D01*
X164084795Y-73613256D01*
X164198063Y-73782774D01*
X164342226Y-73926937D01*
X164471029Y-74013000D01*
X163479802Y-74013000D01*
X162742804Y-73276002D01*
X162719001Y-73246999D01*
X162603276Y-73152026D01*
X162471247Y-73081454D01*
X162327986Y-73037997D01*
X162216333Y-73027000D01*
X162216322Y-73027000D01*
X162179000Y-73023324D01*
X162141678Y-73027000D01*
X162052000Y-73027000D01*
X162052000Y-72749000D01*
X162090289Y-72749000D01*
X162134226Y-72792937D01*
X162303744Y-72906205D01*
X162492102Y-72984226D01*
X162692061Y-73024000D01*
X162895939Y-73024000D01*
X163095898Y-72984226D01*
X163284256Y-72906205D01*
X163453774Y-72792937D01*
X163597937Y-72648774D01*
X163711205Y-72479256D01*
X163789226Y-72290898D01*
X163829000Y-72090939D01*
X163829000Y-71887061D01*
X163789226Y-71687102D01*
X163711205Y-71498744D01*
X163597937Y-71329226D01*
X163453774Y-71185063D01*
X163284256Y-71071795D01*
X163095898Y-70993774D01*
X162895939Y-70954000D01*
X162692061Y-70954000D01*
X162492102Y-70993774D01*
X162303744Y-71071795D01*
X162134226Y-71185063D01*
X162090289Y-71229000D01*
X162052000Y-71229000D01*
X162052000Y-68197000D01*
X163835928Y-68197000D01*
X163835928Y-68687000D01*
X163848188Y-68811482D01*
X163884498Y-68931180D01*
X163943463Y-69041494D01*
X164022815Y-69138185D01*
X164119506Y-69217537D01*
X164229820Y-69276502D01*
X164349518Y-69312812D01*
X164474000Y-69325072D01*
X165474000Y-69325072D01*
X165598482Y-69312812D01*
X165718180Y-69276502D01*
X165828494Y-69217537D01*
X165925185Y-69138185D01*
X166004537Y-69041494D01*
X166063502Y-68931180D01*
X166099812Y-68811482D01*
X166112072Y-68687000D01*
X166112072Y-66187000D01*
X166099812Y-66062518D01*
X166063502Y-65942820D01*
X166004537Y-65832506D01*
X165925185Y-65735815D01*
X165828494Y-65656463D01*
X165718180Y-65597498D01*
X165598482Y-65561188D01*
X165474000Y-65548928D01*
X164474000Y-65548928D01*
X164349518Y-65561188D01*
X164229820Y-65597498D01*
X164119506Y-65656463D01*
X164022815Y-65735815D01*
X163943463Y-65832506D01*
X163884498Y-65942820D01*
X163848188Y-66062518D01*
X163835928Y-66187000D01*
X163835928Y-66677000D01*
X162052000Y-66677000D01*
X162052000Y-64387000D01*
X163835928Y-64387000D01*
X163835928Y-64877000D01*
X163848188Y-65001482D01*
X163884498Y-65121180D01*
X163943463Y-65231494D01*
X164022815Y-65328185D01*
X164119506Y-65407537D01*
X164229820Y-65466502D01*
X164349518Y-65502812D01*
X164474000Y-65515072D01*
X165474000Y-65515072D01*
X165598482Y-65502812D01*
X165718180Y-65466502D01*
X165828494Y-65407537D01*
X165925185Y-65328185D01*
X166004537Y-65231494D01*
X166063502Y-65121180D01*
X166099812Y-65001482D01*
X166112072Y-64877000D01*
X166112072Y-64662000D01*
X166217939Y-64662000D01*
X166417898Y-64622226D01*
X166606256Y-64544205D01*
X166775774Y-64430937D01*
X166919937Y-64286774D01*
X167033205Y-64117256D01*
X167111226Y-63928898D01*
X167146015Y-63754002D01*
X167297748Y-63754002D01*
X167139000Y-63912750D01*
X167135928Y-64877000D01*
X167148188Y-65001482D01*
X167184498Y-65121180D01*
X167243463Y-65231494D01*
X167322815Y-65328185D01*
X167419506Y-65407537D01*
X167529820Y-65466502D01*
X167649518Y-65502812D01*
X167774000Y-65515072D01*
X167988250Y-65512000D01*
X168147000Y-65353250D01*
X168147000Y-63754000D01*
X168401000Y-63754000D01*
X168401000Y-65353250D01*
X168559750Y-65512000D01*
X168774000Y-65515072D01*
X168898482Y-65502812D01*
X169018180Y-65466502D01*
X169128494Y-65407537D01*
X169225185Y-65328185D01*
X169304537Y-65231494D01*
X169363502Y-65121180D01*
X169399812Y-65001482D01*
X169412072Y-64877000D01*
X169409000Y-63912750D01*
X169266250Y-63770000D01*
X169861928Y-63770000D01*
X169874188Y-63894482D01*
X169910498Y-64014180D01*
X169969463Y-64124494D01*
X170048815Y-64221185D01*
X170145506Y-64300537D01*
X170255820Y-64359502D01*
X170375518Y-64395812D01*
X170500000Y-64408072D01*
X171164250Y-64405000D01*
X171323000Y-64246250D01*
X171323000Y-63297000D01*
X170023750Y-63297000D01*
X169865000Y-63455750D01*
X169861928Y-63770000D01*
X169266250Y-63770000D01*
X169250250Y-63754000D01*
X168401000Y-63754000D01*
X168147000Y-63754000D01*
X168127000Y-63754000D01*
X168127000Y-63500000D01*
X168147000Y-63500000D01*
X168147000Y-63480000D01*
X168401000Y-63480000D01*
X168401000Y-63500000D01*
X169250250Y-63500000D01*
X169409000Y-63341250D01*
X169412072Y-62377000D01*
X169410102Y-62357000D01*
X169901040Y-62357000D01*
X169874188Y-62445518D01*
%TA.AperFunction,Conductor*%
D45*
G36*
X169874188Y-62445518D02*
G01*
X169861928Y-62570000D01*
X169865000Y-62884250D01*
X170023750Y-63043000D01*
X171323000Y-63043000D01*
X171323000Y-63023000D01*
X171577000Y-63023000D01*
X171577000Y-63043000D01*
X172876250Y-63043000D01*
X173010693Y-62908557D01*
X173011000Y-62938750D01*
X173169750Y-63097500D01*
X173482000Y-63097500D01*
X173482000Y-63351500D01*
X173169750Y-63351500D01*
X173035295Y-63485955D01*
X173035000Y-63455750D01*
X172876250Y-63297000D01*
X171577000Y-63297000D01*
X171577000Y-64246250D01*
X171735750Y-64405000D01*
X172400000Y-64408072D01*
X172524482Y-64395812D01*
X172644180Y-64359502D01*
X172754494Y-64300537D01*
X172851185Y-64221185D01*
X172930537Y-64124494D01*
X172989502Y-64014180D01*
X173018444Y-63918772D01*
X173020188Y-63936482D01*
X173056498Y-64056180D01*
X173115463Y-64166494D01*
X173194815Y-64263185D01*
X173274594Y-64328658D01*
X173268038Y-64334038D01*
X173157595Y-64468614D01*
X173075528Y-64622150D01*
X173024992Y-64788746D01*
X173007928Y-64962000D01*
X173007928Y-65586562D01*
X172989502Y-65525820D01*
X172930537Y-65415506D01*
X172851185Y-65318815D01*
X172754494Y-65239463D01*
X172644180Y-65180498D01*
X172524482Y-65144188D01*
X172400000Y-65131928D01*
X170500000Y-65131928D01*
X170375518Y-65144188D01*
X170255820Y-65180498D01*
X170145506Y-65239463D01*
X170048815Y-65318815D01*
X169969463Y-65415506D01*
X169910498Y-65525820D01*
X169874188Y-65645518D01*
X169861928Y-65770000D01*
X169861928Y-66677000D01*
X169412072Y-66677000D01*
X169412072Y-66187000D01*
X169399812Y-66062518D01*
X169363502Y-65942820D01*
X169304537Y-65832506D01*
X169225185Y-65735815D01*
X169128494Y-65656463D01*
X169018180Y-65597498D01*
X168898482Y-65561188D01*
X168774000Y-65548928D01*
X167774000Y-65548928D01*
X167649518Y-65561188D01*
X167529820Y-65597498D01*
X167419506Y-65656463D01*
X167322815Y-65735815D01*
X167243463Y-65832506D01*
X167184498Y-65942820D01*
X167148188Y-66062518D01*
X167135928Y-66187000D01*
X167135928Y-68687000D01*
X167148188Y-68811482D01*
X167184498Y-68931180D01*
X167243463Y-69041494D01*
X167322815Y-69138185D01*
X167419506Y-69217537D01*
X167529820Y-69276502D01*
X167649518Y-69312812D01*
X167774000Y-69325072D01*
X168774000Y-69325072D01*
X168898482Y-69312812D01*
X169018180Y-69276502D01*
X169128494Y-69217537D01*
X169225185Y-69138185D01*
X169304537Y-69041494D01*
X169363502Y-68931180D01*
X169399812Y-68811482D01*
X169412072Y-68687000D01*
X169412072Y-68197000D01*
X170915001Y-68197000D01*
X170915001Y-69215000D01*
X170307000Y-69215000D01*
X170282224Y-69217440D01*
X170258399Y-69224667D01*
X170236443Y-69236403D01*
X170217197Y-69252197D01*
X170201403Y-69271443D01*
X170189667Y-69293399D01*
X170182440Y-69317224D01*
X170180000Y-69342000D01*
X170180000Y-72084479D01*
X170139482Y-72072188D01*
X170015000Y-72059928D01*
X169615000Y-72059928D01*
X169490518Y-72072188D01*
X169490000Y-72072345D01*
X169489482Y-72072188D01*
X169365000Y-72059928D01*
X168965000Y-72059928D01*
X168840518Y-72072188D01*
X168837127Y-72073217D01*
X168746750Y-72063000D01*
X168678782Y-72130968D01*
X168610506Y-72167463D01*
X168515000Y-72245842D01*
X168419494Y-72167463D01*
X168351218Y-72130968D01*
X168283250Y-72063000D01*
X168192873Y-72073217D01*
X168189482Y-72072188D01*
X168065000Y-72059928D01*
X167665000Y-72059928D01*
X167540518Y-72072188D01*
X167420820Y-72108498D01*
X167310506Y-72167463D01*
X167213815Y-72246815D01*
X167134463Y-72343506D01*
X167124043Y-72363000D01*
X165705711Y-72363000D01*
X165661774Y-72319063D01*
X165492256Y-72205795D01*
X165303898Y-72127774D01*
X165103939Y-72088000D01*
X164900061Y-72088000D01*
X164700102Y-72127774D01*
X164511744Y-72205795D01*
X164342226Y-72319063D01*
X164198063Y-72463226D01*
X164084795Y-72632744D01*
X164006774Y-72821102D01*
X163967000Y-73021061D01*
X163967000Y-73224939D01*
X164006774Y-73424898D01*
X164084795Y-73613256D01*
X164198063Y-73782774D01*
X164342226Y-73926937D01*
X164471029Y-74013000D01*
X163479802Y-74013000D01*
X162742804Y-73276002D01*
X162719001Y-73246999D01*
X162603276Y-73152026D01*
X162471247Y-73081454D01*
X162327986Y-73037997D01*
X162216333Y-73027000D01*
X162216322Y-73027000D01*
X162179000Y-73023324D01*
X162141678Y-73027000D01*
X162052000Y-73027000D01*
X162052000Y-72749000D01*
X162090289Y-72749000D01*
X162134226Y-72792937D01*
X162303744Y-72906205D01*
X162492102Y-72984226D01*
X162692061Y-73024000D01*
X162895939Y-73024000D01*
X163095898Y-72984226D01*
X163284256Y-72906205D01*
X163453774Y-72792937D01*
X163597937Y-72648774D01*
X163711205Y-72479256D01*
X163789226Y-72290898D01*
X163829000Y-72090939D01*
X163829000Y-71887061D01*
X163789226Y-71687102D01*
X163711205Y-71498744D01*
X163597937Y-71329226D01*
X163453774Y-71185063D01*
X163284256Y-71071795D01*
X163095898Y-70993774D01*
X162895939Y-70954000D01*
X162692061Y-70954000D01*
X162492102Y-70993774D01*
X162303744Y-71071795D01*
X162134226Y-71185063D01*
X162090289Y-71229000D01*
X162052000Y-71229000D01*
X162052000Y-68197000D01*
X163835928Y-68197000D01*
X163835928Y-68687000D01*
X163848188Y-68811482D01*
X163884498Y-68931180D01*
X163943463Y-69041494D01*
X164022815Y-69138185D01*
X164119506Y-69217537D01*
X164229820Y-69276502D01*
X164349518Y-69312812D01*
X164474000Y-69325072D01*
X165474000Y-69325072D01*
X165598482Y-69312812D01*
X165718180Y-69276502D01*
X165828494Y-69217537D01*
X165925185Y-69138185D01*
X166004537Y-69041494D01*
X166063502Y-68931180D01*
X166099812Y-68811482D01*
X166112072Y-68687000D01*
X166112072Y-66187000D01*
X166099812Y-66062518D01*
X166063502Y-65942820D01*
X166004537Y-65832506D01*
X165925185Y-65735815D01*
X165828494Y-65656463D01*
X165718180Y-65597498D01*
X165598482Y-65561188D01*
X165474000Y-65548928D01*
X164474000Y-65548928D01*
X164349518Y-65561188D01*
X164229820Y-65597498D01*
X164119506Y-65656463D01*
X164022815Y-65735815D01*
X163943463Y-65832506D01*
X163884498Y-65942820D01*
X163848188Y-66062518D01*
X163835928Y-66187000D01*
X163835928Y-66677000D01*
X162052000Y-66677000D01*
X162052000Y-64387000D01*
X163835928Y-64387000D01*
X163835928Y-64877000D01*
X163848188Y-65001482D01*
X163884498Y-65121180D01*
X163943463Y-65231494D01*
X164022815Y-65328185D01*
X164119506Y-65407537D01*
X164229820Y-65466502D01*
X164349518Y-65502812D01*
X164474000Y-65515072D01*
X165474000Y-65515072D01*
X165598482Y-65502812D01*
X165718180Y-65466502D01*
X165828494Y-65407537D01*
X165925185Y-65328185D01*
X166004537Y-65231494D01*
X166063502Y-65121180D01*
X166099812Y-65001482D01*
X166112072Y-64877000D01*
X166112072Y-64662000D01*
X166217939Y-64662000D01*
X166417898Y-64622226D01*
X166606256Y-64544205D01*
X166775774Y-64430937D01*
X166919937Y-64286774D01*
X167033205Y-64117256D01*
X167111226Y-63928898D01*
X167146015Y-63754002D01*
X167297748Y-63754002D01*
X167139000Y-63912750D01*
X167135928Y-64877000D01*
X167148188Y-65001482D01*
X167184498Y-65121180D01*
X167243463Y-65231494D01*
X167322815Y-65328185D01*
X167419506Y-65407537D01*
X167529820Y-65466502D01*
X167649518Y-65502812D01*
X167774000Y-65515072D01*
X167988250Y-65512000D01*
X168147000Y-65353250D01*
X168147000Y-63754000D01*
X168401000Y-63754000D01*
X168401000Y-65353250D01*
X168559750Y-65512000D01*
X168774000Y-65515072D01*
X168898482Y-65502812D01*
X169018180Y-65466502D01*
X169128494Y-65407537D01*
X169225185Y-65328185D01*
X169304537Y-65231494D01*
X169363502Y-65121180D01*
X169399812Y-65001482D01*
X169412072Y-64877000D01*
X169409000Y-63912750D01*
X169266250Y-63770000D01*
X169861928Y-63770000D01*
X169874188Y-63894482D01*
X169910498Y-64014180D01*
X169969463Y-64124494D01*
X170048815Y-64221185D01*
X170145506Y-64300537D01*
X170255820Y-64359502D01*
X170375518Y-64395812D01*
X170500000Y-64408072D01*
X171164250Y-64405000D01*
X171323000Y-64246250D01*
X171323000Y-63297000D01*
X170023750Y-63297000D01*
X169865000Y-63455750D01*
X169861928Y-63770000D01*
X169266250Y-63770000D01*
X169250250Y-63754000D01*
X168401000Y-63754000D01*
X168147000Y-63754000D01*
X168127000Y-63754000D01*
X168127000Y-63500000D01*
X168147000Y-63500000D01*
X168147000Y-63480000D01*
X168401000Y-63480000D01*
X168401000Y-63500000D01*
X169250250Y-63500000D01*
X169409000Y-63341250D01*
X169412072Y-62377000D01*
X169410102Y-62357000D01*
X169901040Y-62357000D01*
X169874188Y-62445518D01*
G37*
%TD.AperFunction*%
%TD*%
M02*
