%TF.GenerationSoftware,KiCad,Pcbnew,(5.1.10)-1*%
%TF.CreationDate,2024-09-14T21:02:55+02:00*%
%TF.ProjectId,LightningDetector_V1_0,4c696768-746e-4696-9e67-446574656374,rev?*%
%TF.SameCoordinates,Original*%
%TF.FileFunction,Soldermask,Bot*%
%TF.FilePolarity,Negative*%
%FSLAX46Y46*%
G04 Gerber Fmt 4.6, Leading zero omitted, Abs format (unit mm)*
G04 Created by KiCad (PCBNEW (5.1.10)-1) date 2024-09-14 21:02:55*
%MOMM*%
%LPD*%
G01*
G04 APERTURE LIST*
%ADD10C,3.500000*%
%ADD11O,1.700000X2.500000*%
%ADD12R,1.905000X4.000000*%
%ADD13O,1.905000X4.000000*%
%ADD14O,2.000000X1.524000*%
%ADD15R,2.000000X1.500000*%
%ADD16O,2.000000X2.000000*%
%ADD17R,3.400000X3.600000*%
%ADD18O,3.400000X3.600000*%
%ADD19R,2.000000X2.000000*%
%ADD20R,2.800000X2.200000*%
%ADD21O,2.800000X2.200000*%
%ADD22O,1.700000X2.600000*%
%ADD23O,3.600000X3.600000*%
%ADD24R,3.600000X3.600000*%
%ADD25O,3.000000X1.800000*%
G04 APERTURE END LIST*
D10*
%TO.C,U5*%
X139319000Y-76454000D03*
X117348000Y-76454000D03*
X117348000Y-54483000D03*
X139319000Y-54483000D03*
D11*
X132161000Y-76951000D03*
X129621000Y-76951000D03*
X127081000Y-76951000D03*
X124541000Y-76951000D03*
%TD*%
D12*
%TO.C,U4*%
X161798000Y-59690000D03*
D13*
X159258000Y-59690000D03*
X156718000Y-59690000D03*
%TD*%
D14*
%TO.C,C8*%
X157226000Y-71989000D03*
D15*
X157226000Y-69489000D03*
%TD*%
D16*
%TO.C,U3*%
X167767000Y-54229000D03*
X172867000Y-54729000D03*
%TD*%
D17*
%TO.C,CON2*%
X150891240Y-56410860D03*
D18*
X145811240Y-56410860D03*
%TD*%
D19*
%TO.C,U2*%
X168846500Y-75057000D03*
%TD*%
D20*
%TO.C,CON1*%
X146939000Y-107315000D03*
D21*
X150749000Y-107315000D03*
X154559000Y-107315000D03*
%TD*%
%TO.C,CON3*%
X138303000Y-107315000D03*
X134493000Y-107315000D03*
D20*
X130683000Y-107315000D03*
%TD*%
D22*
%TO.C,U1*%
X168402000Y-102108000D03*
X168402000Y-84328000D03*
X165862000Y-102108000D03*
X165862000Y-84328000D03*
X163322000Y-102108000D03*
X163322000Y-84328000D03*
X160782000Y-102108000D03*
X160782000Y-84328000D03*
X158242000Y-102108000D03*
X158242000Y-84328000D03*
X155702000Y-102108000D03*
X155702000Y-84328000D03*
X153162000Y-102108000D03*
X153162000Y-84328000D03*
X150622000Y-102108000D03*
X150622000Y-84328000D03*
X148082000Y-102108000D03*
X148082000Y-84328000D03*
X145542000Y-102108000D03*
X145542000Y-84328000D03*
X143002000Y-102108000D03*
X143002000Y-84328000D03*
X140462000Y-102108000D03*
X140462000Y-84328000D03*
X137922000Y-102108000D03*
X137922000Y-84328000D03*
X135382000Y-102108000D03*
X135382000Y-84328000D03*
X132842000Y-102108000D03*
X132842000Y-84328000D03*
X130302000Y-102108000D03*
X130302000Y-84328000D03*
X127762000Y-102108000D03*
X127762000Y-84328000D03*
X125222000Y-102108000D03*
X125222000Y-84328000D03*
X122682000Y-102108000D03*
X122682000Y-84328000D03*
X120142000Y-102108000D03*
X120142000Y-84328000D03*
%TD*%
D23*
%TO.C,CON4*%
X184150000Y-106045000D03*
X179070000Y-106045000D03*
D24*
X173990000Y-106045000D03*
%TD*%
D25*
%TO.C,REL1*%
X186372500Y-94488000D03*
X186372500Y-84328000D03*
X186372500Y-81788000D03*
X179252500Y-94488000D03*
X179252500Y-81788000D03*
X179252500Y-84328000D03*
%TD*%
M02*
