M48
; DRILL file {KiCad (5.1.10)-1} date 09/14/24 21:03:05
; FORMAT={-:-/ absolute / inch / decimal}
; #@! TF.CreationDate,2024-09-14T21:03:05+02:00
; #@! TF.GenerationSoftware,Kicad,Pcbnew,(5.1.10)-1
; #@! TF.FileFunction,Plated,1,2,PTH
FMAT,2
INCH
T1C0.0157
T2C0.0300
T3C0.0301
T4C0.0394
T5C0.0433
T6C0.0669
T7C0.0984
T8C0.1378
%
G90
G05
T1
X4.5526Y-3.7474
X4.7376Y-3.7474
X4.83Y-3.79
X4.9Y-4.215
X4.93Y-3.605
X4.9304Y-3.5404
X4.97Y-4.17
X4.98Y-3.87
X5.0056Y-2.8444
X5.03Y-3.615
X5.1058Y-2.7642
X5.23Y-3.465
X5.35Y-3.03
X5.4296Y-3.5404
X5.43Y-3.32
X5.445Y-4.15
X5.5456Y-3.8694
X5.5656Y-2.8444
X5.58Y-3.165
X5.595Y-3.11
X5.6076Y-3.7474
X5.61Y-4.16
X5.6644Y-2.7656
X5.73Y-3.11
X5.735Y-2.625
X5.737Y-2.483
X5.7406Y-2.3294
X5.7763Y-3.6737
X5.785Y-4.325
X5.83Y-3.09
X5.865Y-2.68
X5.88Y-3.615
X5.915Y-2.825
X5.915Y-3.065
X5.9296Y-3.5404
X6.005Y-2.505
X6.0058Y-2.33
X6.0058Y-2.8342
X6.0858Y-2.7358
X6.0858Y-3.1842
X6.13Y-2.905
X6.18Y-3.81
X6.19Y-2.58
X6.19Y-2.655
X6.19Y-2.7358
X6.215Y-4.205
X6.23Y-3.13
X6.27Y-2.505
X6.3306Y-2.9694
X6.37Y-2.24
X6.37Y-3.035
X6.37Y-3.13
X6.4092Y-2.8342
X6.43Y-3.535
X6.43Y-3.81
X6.4525Y-3.0025
X6.47Y-4.21
X6.47Y-4.325
X6.48Y-3.465
X6.4961Y-2.8789
X6.525Y-3.18
X6.5263Y-3.5937
X6.5263Y-3.8687
X6.54Y-2.33
X6.54Y-2.505
X6.63Y-3.465
X6.6344Y-2.8106
X6.675Y-3.59
X6.68Y-2.485
X6.71Y-3.81
X6.71Y-3.975
X6.71Y-4.21
X6.72Y-3.28
X6.7325Y-3.6725
X6.735Y-3.515
X6.7589Y-2.6561
X6.805Y-2.995
X6.805Y-3.195
X6.8159Y-2.7809
X6.8159Y-2.88
X6.8856Y-3.0344
X6.8856Y-3.2644
X6.95Y-4.305
X7.055Y-3.515
X7.16Y-4.035
X7.2Y-3.22
X7.25Y-4.305
X7.3092Y-2.5808
X7.3092Y-2.7792
X7.335Y-3.61
T2
X6.19Y-2.8342
X6.605Y-2.135
X6.8058Y-2.1547
T3
X6.19Y-2.7358
T4
X4.73Y-3.32
X4.73Y-4.02
X4.83Y-3.32
X4.83Y-4.02
X4.9032Y-3.0296
X4.93Y-3.32
X4.93Y-4.02
X5.0032Y-3.0296
X5.03Y-3.32
X5.03Y-4.02
X5.1032Y-3.0296
X5.13Y-3.32
X5.13Y-4.02
X5.2032Y-3.0296
X5.23Y-3.32
X5.23Y-4.02
X5.33Y-3.32
X5.33Y-4.02
X5.43Y-3.32
X5.43Y-4.02
X5.53Y-3.32
X5.53Y-4.02
X5.63Y-3.32
X5.63Y-4.02
X5.73Y-3.32
X5.73Y-4.02
X5.83Y-3.32
X5.83Y-4.02
X5.93Y-3.32
X5.93Y-4.02
X6.03Y-3.32
X6.03Y-4.02
X6.13Y-3.32
X6.13Y-4.02
X6.23Y-3.32
X6.23Y-4.02
X6.33Y-3.32
X6.33Y-4.02
X6.43Y-3.32
X6.43Y-4.02
X6.53Y-3.32
X6.53Y-4.02
X6.63Y-3.32
X6.63Y-4.02
X6.6475Y-2.955
X7.0572Y-3.22
X7.0572Y-3.32
X7.0572Y-3.72
X7.3375Y-3.22
X7.3375Y-3.32
X7.3375Y-3.72
T5
X5.145Y-4.225
X5.295Y-4.225
X5.445Y-4.225
X5.785Y-4.225
X5.935Y-4.225
X6.085Y-4.225
X6.17Y-2.35
X6.27Y-2.35
X6.37Y-2.35
T6
X5.7406Y-2.2209
X5.9406Y-2.2209
X6.85Y-4.175
X7.05Y-4.175
X7.25Y-4.175
T7
X4.62Y-2.145
X4.62Y-3.01
X5.485Y-2.145
X5.485Y-3.01
T8
X4.57Y-4.245
X7.285Y-2.14
X7.295Y-3.95
T0
M30
