%TF.GenerationSoftware,KiCad,Pcbnew,(5.1.10)-1*%
%TF.CreationDate,2024-09-14T21:02:55+02:00*%
%TF.ProjectId,LightningDetector_V1_0,4c696768-746e-4696-9e67-446574656374,rev?*%
%TF.SameCoordinates,Original*%
%TF.FileFunction,Legend,Bot*%
%TF.FilePolarity,Positive*%
%FSLAX46Y46*%
G04 Gerber Fmt 4.6, Leading zero omitted, Abs format (unit mm)*
G04 Created by KiCad (PCBNEW (5.1.10)-1) date 2024-09-14 21:02:55*
%MOMM*%
%LPD*%
G01*
G04 APERTURE LIST*
%ADD10C,0.150000*%
G04 APERTURE END LIST*
D10*
X136754142Y-63000380D02*
X137230333Y-63000380D01*
X137230333Y-62000380D01*
X136420809Y-63000380D02*
X136420809Y-62333714D01*
X136420809Y-62000380D02*
X136468428Y-62048000D01*
X136420809Y-62095619D01*
X136373190Y-62048000D01*
X136420809Y-62000380D01*
X136420809Y-62095619D01*
X135516047Y-62333714D02*
X135516047Y-63143238D01*
X135563666Y-63238476D01*
X135611285Y-63286095D01*
X135706523Y-63333714D01*
X135849380Y-63333714D01*
X135944619Y-63286095D01*
X135516047Y-62952761D02*
X135611285Y-63000380D01*
X135801761Y-63000380D01*
X135897000Y-62952761D01*
X135944619Y-62905142D01*
X135992238Y-62809904D01*
X135992238Y-62524190D01*
X135944619Y-62428952D01*
X135897000Y-62381333D01*
X135801761Y-62333714D01*
X135611285Y-62333714D01*
X135516047Y-62381333D01*
X135039857Y-63000380D02*
X135039857Y-62000380D01*
X134611285Y-63000380D02*
X134611285Y-62476571D01*
X134658904Y-62381333D01*
X134754142Y-62333714D01*
X134897000Y-62333714D01*
X134992238Y-62381333D01*
X135039857Y-62428952D01*
X134277952Y-62333714D02*
X133897000Y-62333714D01*
X134135095Y-62000380D02*
X134135095Y-62857523D01*
X134087476Y-62952761D01*
X133992238Y-63000380D01*
X133897000Y-63000380D01*
X133563666Y-62333714D02*
X133563666Y-63000380D01*
X133563666Y-62428952D02*
X133516047Y-62381333D01*
X133420809Y-62333714D01*
X133277952Y-62333714D01*
X133182714Y-62381333D01*
X133135095Y-62476571D01*
X133135095Y-63000380D01*
X132658904Y-63000380D02*
X132658904Y-62333714D01*
X132658904Y-62000380D02*
X132706523Y-62048000D01*
X132658904Y-62095619D01*
X132611285Y-62048000D01*
X132658904Y-62000380D01*
X132658904Y-62095619D01*
X132182714Y-62333714D02*
X132182714Y-63000380D01*
X132182714Y-62428952D02*
X132135095Y-62381333D01*
X132039857Y-62333714D01*
X131897000Y-62333714D01*
X131801761Y-62381333D01*
X131754142Y-62476571D01*
X131754142Y-63000380D01*
X130849380Y-62333714D02*
X130849380Y-63143238D01*
X130897000Y-63238476D01*
X130944619Y-63286095D01*
X131039857Y-63333714D01*
X131182714Y-63333714D01*
X131277952Y-63286095D01*
X130849380Y-62952761D02*
X130944619Y-63000380D01*
X131135095Y-63000380D01*
X131230333Y-62952761D01*
X131277952Y-62905142D01*
X131325571Y-62809904D01*
X131325571Y-62524190D01*
X131277952Y-62428952D01*
X131230333Y-62381333D01*
X131135095Y-62333714D01*
X130944619Y-62333714D01*
X130849380Y-62381333D01*
X129611285Y-63000380D02*
X129611285Y-62000380D01*
X129373190Y-62000380D01*
X129230333Y-62048000D01*
X129135095Y-62143238D01*
X129087476Y-62238476D01*
X129039857Y-62428952D01*
X129039857Y-62571809D01*
X129087476Y-62762285D01*
X129135095Y-62857523D01*
X129230333Y-62952761D01*
X129373190Y-63000380D01*
X129611285Y-63000380D01*
X128230333Y-62952761D02*
X128325571Y-63000380D01*
X128516047Y-63000380D01*
X128611285Y-62952761D01*
X128658904Y-62857523D01*
X128658904Y-62476571D01*
X128611285Y-62381333D01*
X128516047Y-62333714D01*
X128325571Y-62333714D01*
X128230333Y-62381333D01*
X128182714Y-62476571D01*
X128182714Y-62571809D01*
X128658904Y-62667047D01*
X127897000Y-62333714D02*
X127516047Y-62333714D01*
X127754142Y-62000380D02*
X127754142Y-62857523D01*
X127706523Y-62952761D01*
X127611285Y-63000380D01*
X127516047Y-63000380D01*
X126801761Y-62952761D02*
X126897000Y-63000380D01*
X127087476Y-63000380D01*
X127182714Y-62952761D01*
X127230333Y-62857523D01*
X127230333Y-62476571D01*
X127182714Y-62381333D01*
X127087476Y-62333714D01*
X126897000Y-62333714D01*
X126801761Y-62381333D01*
X126754142Y-62476571D01*
X126754142Y-62571809D01*
X127230333Y-62667047D01*
X125897000Y-62952761D02*
X125992238Y-63000380D01*
X126182714Y-63000380D01*
X126277952Y-62952761D01*
X126325571Y-62905142D01*
X126373190Y-62809904D01*
X126373190Y-62524190D01*
X126325571Y-62428952D01*
X126277952Y-62381333D01*
X126182714Y-62333714D01*
X125992238Y-62333714D01*
X125897000Y-62381333D01*
X125611285Y-62333714D02*
X125230333Y-62333714D01*
X125468428Y-62000380D02*
X125468428Y-62857523D01*
X125420809Y-62952761D01*
X125325571Y-63000380D01*
X125230333Y-63000380D01*
X124754142Y-63000380D02*
X124849380Y-62952761D01*
X124897000Y-62905142D01*
X124944619Y-62809904D01*
X124944619Y-62524190D01*
X124897000Y-62428952D01*
X124849380Y-62381333D01*
X124754142Y-62333714D01*
X124611285Y-62333714D01*
X124516047Y-62381333D01*
X124468428Y-62428952D01*
X124420809Y-62524190D01*
X124420809Y-62809904D01*
X124468428Y-62905142D01*
X124516047Y-62952761D01*
X124611285Y-63000380D01*
X124754142Y-63000380D01*
X123992238Y-63000380D02*
X123992238Y-62333714D01*
X123992238Y-62524190D02*
X123944619Y-62428952D01*
X123897000Y-62381333D01*
X123801761Y-62333714D01*
X123706523Y-62333714D01*
X122754142Y-62000380D02*
X122420809Y-63000380D01*
X122087476Y-62000380D01*
X121230333Y-63000380D02*
X121801761Y-63000380D01*
X121516047Y-63000380D02*
X121516047Y-62000380D01*
X121611285Y-62143238D01*
X121706523Y-62238476D01*
X121801761Y-62286095D01*
X121039857Y-63095619D02*
X120277952Y-63095619D01*
X119849380Y-62000380D02*
X119754142Y-62000380D01*
X119658904Y-62048000D01*
X119611285Y-62095619D01*
X119563666Y-62190857D01*
X119516047Y-62381333D01*
X119516047Y-62619428D01*
X119563666Y-62809904D01*
X119611285Y-62905142D01*
X119658904Y-62952761D01*
X119754142Y-63000380D01*
X119849380Y-63000380D01*
X119944619Y-62952761D01*
X119992238Y-62905142D01*
X120039857Y-62809904D01*
X120087476Y-62619428D01*
X120087476Y-62381333D01*
X120039857Y-62190857D01*
X119992238Y-62095619D01*
X119944619Y-62048000D01*
X119849380Y-62000380D01*
X135182714Y-64650380D02*
X135754142Y-64650380D01*
X135468428Y-64650380D02*
X135468428Y-63650380D01*
X135563666Y-63793238D01*
X135658904Y-63888476D01*
X135754142Y-63936095D01*
X134325571Y-63983714D02*
X134325571Y-64650380D01*
X134563666Y-63602761D02*
X134801761Y-64317047D01*
X134182714Y-64317047D01*
X133087476Y-64602761D02*
X132944619Y-64650380D01*
X132706523Y-64650380D01*
X132611285Y-64602761D01*
X132563666Y-64555142D01*
X132516047Y-64459904D01*
X132516047Y-64364666D01*
X132563666Y-64269428D01*
X132611285Y-64221809D01*
X132706523Y-64174190D01*
X132897000Y-64126571D01*
X132992238Y-64078952D01*
X133039857Y-64031333D01*
X133087476Y-63936095D01*
X133087476Y-63840857D01*
X133039857Y-63745619D01*
X132992238Y-63698000D01*
X132897000Y-63650380D01*
X132658904Y-63650380D01*
X132516047Y-63698000D01*
X131706523Y-64602761D02*
X131801761Y-64650380D01*
X131992238Y-64650380D01*
X132087476Y-64602761D01*
X132135095Y-64507523D01*
X132135095Y-64126571D01*
X132087476Y-64031333D01*
X131992238Y-63983714D01*
X131801761Y-63983714D01*
X131706523Y-64031333D01*
X131658904Y-64126571D01*
X131658904Y-64221809D01*
X132135095Y-64317047D01*
X131230333Y-63983714D02*
X131230333Y-64983714D01*
X131230333Y-64031333D02*
X131135095Y-63983714D01*
X130944619Y-63983714D01*
X130849380Y-64031333D01*
X130801761Y-64078952D01*
X130754142Y-64174190D01*
X130754142Y-64459904D01*
X130801761Y-64555142D01*
X130849380Y-64602761D01*
X130944619Y-64650380D01*
X131135095Y-64650380D01*
X131230333Y-64602761D01*
X130468428Y-63983714D02*
X130087476Y-63983714D01*
X130325571Y-63650380D02*
X130325571Y-64507523D01*
X130277952Y-64602761D01*
X130182714Y-64650380D01*
X130087476Y-64650380D01*
X129373190Y-64602761D02*
X129468428Y-64650380D01*
X129658904Y-64650380D01*
X129754142Y-64602761D01*
X129801761Y-64507523D01*
X129801761Y-64126571D01*
X129754142Y-64031333D01*
X129658904Y-63983714D01*
X129468428Y-63983714D01*
X129373190Y-64031333D01*
X129325571Y-64126571D01*
X129325571Y-64221809D01*
X129801761Y-64317047D01*
X128897000Y-64650380D02*
X128897000Y-63983714D01*
X128897000Y-64078952D02*
X128849380Y-64031333D01*
X128754142Y-63983714D01*
X128611285Y-63983714D01*
X128516047Y-64031333D01*
X128468428Y-64126571D01*
X128468428Y-64650380D01*
X128468428Y-64126571D02*
X128420809Y-64031333D01*
X128325571Y-63983714D01*
X128182714Y-63983714D01*
X128087476Y-64031333D01*
X128039857Y-64126571D01*
X128039857Y-64650380D01*
X127563666Y-64650380D02*
X127563666Y-63650380D01*
X127563666Y-64031333D02*
X127468428Y-63983714D01*
X127277952Y-63983714D01*
X127182714Y-64031333D01*
X127135095Y-64078952D01*
X127087476Y-64174190D01*
X127087476Y-64459904D01*
X127135095Y-64555142D01*
X127182714Y-64602761D01*
X127277952Y-64650380D01*
X127468428Y-64650380D01*
X127563666Y-64602761D01*
X126277952Y-64602761D02*
X126373190Y-64650380D01*
X126563666Y-64650380D01*
X126658904Y-64602761D01*
X126706523Y-64507523D01*
X126706523Y-64126571D01*
X126658904Y-64031333D01*
X126563666Y-63983714D01*
X126373190Y-63983714D01*
X126277952Y-64031333D01*
X126230333Y-64126571D01*
X126230333Y-64221809D01*
X126706523Y-64317047D01*
X125801761Y-64650380D02*
X125801761Y-63983714D01*
X125801761Y-64174190D02*
X125754142Y-64078952D01*
X125706523Y-64031333D01*
X125611285Y-63983714D01*
X125516047Y-63983714D01*
X124468428Y-63745619D02*
X124420809Y-63698000D01*
X124325571Y-63650380D01*
X124087476Y-63650380D01*
X123992238Y-63698000D01*
X123944619Y-63745619D01*
X123897000Y-63840857D01*
X123897000Y-63936095D01*
X123944619Y-64078952D01*
X124516047Y-64650380D01*
X123897000Y-64650380D01*
X123277952Y-63650380D02*
X123182714Y-63650380D01*
X123087476Y-63698000D01*
X123039857Y-63745619D01*
X122992238Y-63840857D01*
X122944619Y-64031333D01*
X122944619Y-64269428D01*
X122992238Y-64459904D01*
X123039857Y-64555142D01*
X123087476Y-64602761D01*
X123182714Y-64650380D01*
X123277952Y-64650380D01*
X123373190Y-64602761D01*
X123420809Y-64555142D01*
X123468428Y-64459904D01*
X123516047Y-64269428D01*
X123516047Y-64031333D01*
X123468428Y-63840857D01*
X123420809Y-63745619D01*
X123373190Y-63698000D01*
X123277952Y-63650380D01*
X122563666Y-63745619D02*
X122516047Y-63698000D01*
X122420809Y-63650380D01*
X122182714Y-63650380D01*
X122087476Y-63698000D01*
X122039857Y-63745619D01*
X121992238Y-63840857D01*
X121992238Y-63936095D01*
X122039857Y-64078952D01*
X122611285Y-64650380D01*
X121992238Y-64650380D01*
X121135095Y-63983714D02*
X121135095Y-64650380D01*
X121373190Y-63602761D02*
X121611285Y-64317047D01*
X120992238Y-64317047D01*
M02*
