%TF.GenerationSoftware,KiCad,Pcbnew,(5.1.10)-1*%
%TF.CreationDate,2024-09-14T21:02:55+02:00*%
%TF.ProjectId,LightningDetector_V1_0,4c696768-746e-4696-9e67-446574656374,rev?*%
%TF.SameCoordinates,Original*%
%TF.FileFunction,Copper,L2,Bot*%
%TF.FilePolarity,Positive*%
%FSLAX46Y46*%
G04 Gerber Fmt 4.6, Leading zero omitted, Abs format (unit mm)*
G04 Created by KiCad (PCBNEW (5.1.10)-1) date 2024-09-14 21:02:55*
%MOMM*%
%LPD*%
G01*
G04 APERTURE LIST*
%TA.AperFunction,ComponentPad*%
%ADD10C,3.500000*%
%TD*%
%TA.AperFunction,ComponentPad*%
%ADD11O,1.700000X2.500000*%
%TD*%
%TA.AperFunction,ComponentPad*%
%ADD12R,1.905000X4.000000*%
%TD*%
%TA.AperFunction,ComponentPad*%
%ADD13O,1.905000X4.000000*%
%TD*%
%TA.AperFunction,ComponentPad*%
%ADD14O,2.000000X1.524000*%
%TD*%
%TA.AperFunction,ComponentPad*%
%ADD15R,2.000000X1.500000*%
%TD*%
%TA.AperFunction,ComponentPad*%
%ADD16O,2.000000X2.000000*%
%TD*%
%TA.AperFunction,ComponentPad*%
%ADD17R,3.400000X3.600000*%
%TD*%
%TA.AperFunction,ComponentPad*%
%ADD18O,3.400000X3.600000*%
%TD*%
%TA.AperFunction,ComponentPad*%
%ADD19R,2.000000X2.000000*%
%TD*%
%TA.AperFunction,ComponentPad*%
%ADD20R,2.800000X2.200000*%
%TD*%
%TA.AperFunction,ComponentPad*%
%ADD21O,2.800000X2.200000*%
%TD*%
%TA.AperFunction,ComponentPad*%
%ADD22O,1.700000X2.600000*%
%TD*%
%TA.AperFunction,ComponentPad*%
%ADD23O,3.600000X3.600000*%
%TD*%
%TA.AperFunction,ComponentPad*%
%ADD24R,3.600000X3.600000*%
%TD*%
%TA.AperFunction,ComponentPad*%
%ADD25O,3.000000X1.800000*%
%TD*%
%TA.AperFunction,ViaPad*%
%ADD26C,5.000000*%
%TD*%
%TA.AperFunction,ViaPad*%
%ADD27C,0.800000*%
%TD*%
%TA.AperFunction,Conductor*%
%ADD28C,0.250000*%
%TD*%
%TA.AperFunction,Conductor*%
%ADD29C,0.254000*%
%TD*%
%TA.AperFunction,Conductor*%
%ADD30C,0.100000*%
%TD*%
G04 APERTURE END LIST*
D10*
%TO.P,U5,5*%
%TO.N,N/C*%
X139319000Y-76454000D03*
%TO.P,U5,6*%
X117348000Y-76454000D03*
%TO.P,U5,8*%
X117348000Y-54483000D03*
%TO.P,U5,7*%
X139319000Y-54483000D03*
D11*
%TO.P,U5,1*%
%TO.N,GND*%
X132161000Y-76951000D03*
%TO.P,U5,2*%
%TO.N,+3V3*%
X129621000Y-76951000D03*
%TO.P,U5,3*%
%TO.N,SCL*%
X127081000Y-76951000D03*
%TO.P,U5,4*%
%TO.N,SDA*%
X124541000Y-76951000D03*
%TD*%
D12*
%TO.P,U4,1*%
%TO.N,Net-(D3-Pad1)*%
X161798000Y-59690000D03*
D13*
%TO.P,U4,2*%
%TO.N,GND*%
X159258000Y-59690000D03*
%TO.P,U4,3*%
%TO.N,Net-(C11-Pad1)*%
X156718000Y-59690000D03*
%TD*%
D14*
%TO.P,C8,2*%
%TO.N,GND*%
X157226000Y-71989000D03*
D15*
%TO.P,C8,1*%
%TO.N,+3V3*%
X157226000Y-69489000D03*
%TD*%
D16*
%TO.P,U3,1*%
%TO.N,Net-(D2-Pad1)*%
X167767000Y-54229000D03*
%TO.P,U3,2*%
%TO.N,Net-(D3-Pad1)*%
X172867000Y-54729000D03*
%TD*%
D17*
%TO.P,CON2,1*%
%TO.N,Net-(CON2-Pad1)*%
X150891240Y-56410860D03*
D18*
%TO.P,CON2,2*%
%TO.N,GND*%
X145811240Y-56410860D03*
%TD*%
D19*
%TO.P,U2,17*%
%TO.N,GNDA*%
X168846500Y-75057000D03*
%TD*%
D20*
%TO.P,CON1,1*%
%TO.N,+3V3*%
X146939000Y-107315000D03*
D21*
%TO.P,CON1,2*%
%TO.N,Net-(CON1-Pad2)*%
X150749000Y-107315000D03*
%TO.P,CON1,3*%
%TO.N,GND*%
X154559000Y-107315000D03*
%TD*%
%TO.P,CON3,3*%
%TO.N,GND*%
X138303000Y-107315000D03*
%TO.P,CON3,2*%
%TO.N,UART_RX*%
X134493000Y-107315000D03*
D20*
%TO.P,CON3,1*%
%TO.N,UART_TX*%
X130683000Y-107315000D03*
%TD*%
D22*
%TO.P,U1,40*%
%TO.N,Net-(U1-Pad40)*%
X168402000Y-102108000D03*
%TO.P,U1,1*%
%TO.N,MISO*%
X168402000Y-84328000D03*
%TO.P,U1,39*%
%TO.N,+3V3*%
X165862000Y-102108000D03*
%TO.P,U1,2*%
%TO.N,~CS*%
X165862000Y-84328000D03*
%TO.P,U1,38*%
%TO.N,GND*%
X163322000Y-102108000D03*
%TO.P,U1,3*%
X163322000Y-84328000D03*
%TO.P,U1,37*%
%TO.N,Net-(U1-Pad37)*%
X160782000Y-102108000D03*
%TO.P,U1,4*%
%TO.N,SCLK*%
X160782000Y-84328000D03*
%TO.P,U1,36*%
%TO.N,Net-(U1-Pad36)*%
X158242000Y-102108000D03*
%TO.P,U1,5*%
%TO.N,MOSI*%
X158242000Y-84328000D03*
%TO.P,U1,35*%
%TO.N,Net-(U1-Pad35)*%
X155702000Y-102108000D03*
%TO.P,U1,6*%
%TO.N,IRQ*%
X155702000Y-84328000D03*
%TO.P,U1,34*%
%TO.N,Net-(U1-Pad34)*%
X153162000Y-102108000D03*
%TO.P,U1,7*%
%TO.N,Net-(U1-Pad7)*%
X153162000Y-84328000D03*
%TO.P,U1,33*%
%TO.N,GND*%
X150622000Y-102108000D03*
%TO.P,U1,8*%
X150622000Y-84328000D03*
%TO.P,U1,32*%
%TO.N,Net-(U1-Pad32)*%
X148082000Y-102108000D03*
%TO.P,U1,9*%
%TO.N,SDA*%
X148082000Y-84328000D03*
%TO.P,U1,31*%
%TO.N,Net-(U1-Pad31)*%
X145542000Y-102108000D03*
%TO.P,U1,10*%
%TO.N,SCL*%
X145542000Y-84328000D03*
%TO.P,U1,30*%
%TO.N,Net-(U1-Pad30)*%
X143002000Y-102108000D03*
%TO.P,U1,11*%
%TO.N,Net-(U1-Pad11)*%
X143002000Y-84328000D03*
%TO.P,U1,29*%
%TO.N,Net-(Q3-Pad1)*%
X140462000Y-102108000D03*
%TO.P,U1,12*%
%TO.N,Net-(U1-Pad12)*%
X140462000Y-84328000D03*
%TO.P,U1,28*%
%TO.N,GND*%
X137922000Y-102108000D03*
%TO.P,U1,13*%
X137922000Y-84328000D03*
%TO.P,U1,27*%
%TO.N,Net-(U1-Pad27)*%
X135382000Y-102108000D03*
%TO.P,U1,14*%
%TO.N,Net-(U1-Pad14)*%
X135382000Y-84328000D03*
%TO.P,U1,26*%
%TO.N,Net-(R2-Pad1)*%
X132842000Y-102108000D03*
%TO.P,U1,15*%
%TO.N,Net-(U1-Pad15)*%
X132842000Y-84328000D03*
%TO.P,U1,25*%
%TO.N,Net-(U1-Pad25)*%
X130302000Y-102108000D03*
%TO.P,U1,16*%
%TO.N,Net-(U1-Pad16)*%
X130302000Y-84328000D03*
%TO.P,U1,24*%
%TO.N,Net-(U1-Pad24)*%
X127762000Y-102108000D03*
%TO.P,U1,17*%
%TO.N,Net-(CON1-Pad2)*%
X127762000Y-84328000D03*
%TO.P,U1,23*%
%TO.N,GND*%
X125222000Y-102108000D03*
%TO.P,U1,18*%
X125222000Y-84328000D03*
%TO.P,U1,22*%
%TO.N,PIPICO_UART_RX*%
X122682000Y-102108000D03*
%TO.P,U1,19*%
%TO.N,Net-(U1-Pad19)*%
X122682000Y-84328000D03*
%TO.P,U1,21*%
%TO.N,PIPICO_UART_TX*%
X120142000Y-102108000D03*
%TO.P,U1,20*%
%TO.N,Net-(U1-Pad20)*%
X120142000Y-84328000D03*
%TD*%
D23*
%TO.P,CON4,3*%
%TO.N,Net-(CON4-Pad3)*%
X184150000Y-106045000D03*
%TO.P,CON4,2*%
%TO.N,Net-(CON4-Pad2)*%
X179070000Y-106045000D03*
D24*
%TO.P,CON4,1*%
%TO.N,Net-(CON4-Pad1)*%
X173990000Y-106045000D03*
%TD*%
D25*
%TO.P,REL1,4*%
%TO.N,Net-(CON4-Pad2)*%
X186372500Y-94488000D03*
%TO.P,REL1,2*%
%TO.N,Net-(D4-Pad2)*%
X186372500Y-84328000D03*
%TO.P,REL1,6*%
%TO.N,Net-(CON4-Pad1)*%
X186372500Y-81788000D03*
%TO.P,REL1,3*%
%TO.N,Net-(CON4-Pad2)*%
X179252500Y-94488000D03*
%TO.P,REL1,5*%
%TO.N,Net-(CON4-Pad3)*%
X179252500Y-81788000D03*
%TO.P,REL1,1*%
%TO.N,+5V*%
X179252500Y-84328000D03*
%TD*%
D26*
%TO.N,*%
X185039000Y-54356000D03*
X116078000Y-107823000D03*
X185293000Y-100330000D03*
D27*
%TO.N,GND*%
X163322000Y-89789000D03*
X125231010Y-89925010D03*
X150612990Y-89925010D03*
X137912990Y-89925010D03*
X125222000Y-91567000D03*
X170434000Y-106934000D03*
X170434000Y-96774000D03*
X163322000Y-96774000D03*
X157861000Y-106807000D03*
X138303000Y-105410000D03*
X156972000Y-96774000D03*
X124460000Y-107061000D03*
X166116000Y-63627000D03*
X166116000Y-59182000D03*
X162794000Y-71989000D03*
X152547000Y-71989000D03*
X152547000Y-59182000D03*
X152527000Y-63627000D03*
X145811240Y-59166760D03*
X159258000Y-63627000D03*
X170434000Y-100965000D03*
X137922000Y-84328000D03*
X135890000Y-76962000D03*
%TO.N,+3V3*%
X143875000Y-70247000D03*
X165767010Y-91280990D03*
X165767010Y-98265990D03*
X146939000Y-109855000D03*
X164338000Y-109855000D03*
X164338000Y-106934000D03*
X126238000Y-105918000D03*
X126492000Y-98298000D03*
X157226000Y-67437000D03*
X157226000Y-65532000D03*
X129687000Y-70211000D03*
X157226000Y-69489000D03*
X154579000Y-69489000D03*
X154579000Y-80879000D03*
X170688000Y-83312000D03*
X169545000Y-91186000D03*
X141732000Y-80391000D03*
X140859000Y-98282000D03*
%TO.N,Net-(C5-Pad1)*%
X172847000Y-76073000D03*
X172847000Y-81153000D03*
%TO.N,Net-(CON1-Pad2)*%
X149352000Y-91821000D03*
X127762000Y-91821000D03*
%TO.N,Net-(D3-Pad1)*%
X161798000Y-56896000D03*
%TO.N,PIPICO_UART_RX*%
X122682000Y-96266000D03*
%TO.N,Net-(Q2-Pad1)*%
X115636000Y-95184000D03*
X120335000Y-95184000D03*
X142433000Y-95184000D03*
X142494000Y-105664000D03*
%TO.N,Net-(R2-Pad1)*%
X132842000Y-88011000D03*
%TO.N,SCL*%
X127143000Y-72247000D03*
X141367000Y-72247000D03*
X145542000Y-78994000D03*
X142113000Y-78994000D03*
%TO.N,SDA*%
X148082000Y-78486000D03*
%TO.N,MISO*%
X163893500Y-76263500D03*
X164592000Y-88011000D03*
X168402000Y-88011000D03*
%TO.N,~CS*%
X165002000Y-73123000D03*
X165735000Y-80772000D03*
%TO.N,SCLK*%
X160797000Y-75423000D03*
%TO.N,MOSI*%
X161798000Y-77089000D03*
X161798000Y-79502000D03*
X158242000Y-79502000D03*
%TO.N,IRQ*%
X155702000Y-73787000D03*
%TO.N,Net-(LK1-Pad1)*%
X150241000Y-71755000D03*
X150241000Y-77851000D03*
%TO.N,GNDA*%
X168515000Y-71388000D03*
X169672000Y-63119000D03*
X174895000Y-77073000D03*
X174895000Y-82915000D03*
%TO.N,Net-(C10-Pad2)*%
X173124590Y-73152000D03*
X173124590Y-70635590D03*
X185652500Y-70590500D03*
X185652500Y-65553500D03*
%TO.N,Net-(C11-Pad1)*%
X145720000Y-63068000D03*
X145669000Y-66675000D03*
%TO.N,Net-(CON4-Pad3)*%
X176530000Y-109347000D03*
X184150000Y-109347000D03*
%TO.N,Net-(CON4-Pad1)*%
X181864000Y-102489000D03*
X182880000Y-81788000D03*
%TO.N,+5V*%
X148971000Y-68072000D03*
X146717010Y-93312990D03*
X171005500Y-93281500D03*
X171069000Y-89281000D03*
X179197000Y-89281000D03*
%TO.N,Net-(D4-Pad2)*%
X186309000Y-91694000D03*
%TO.N,+3.3VA*%
X171675000Y-67466000D03*
%TD*%
D28*
%TO.N,GND*%
X163322000Y-84328000D02*
X163322000Y-89789000D01*
X125222000Y-89916000D02*
X125231010Y-89925010D01*
X125222000Y-84328000D02*
X125222000Y-89916000D01*
X137922000Y-84328000D02*
X137922000Y-84328000D01*
X150622000Y-84328000D02*
X150622000Y-89916000D01*
X163322000Y-89789000D02*
X163322000Y-102108000D01*
X150622000Y-89934020D02*
X150612990Y-89925010D01*
X150622000Y-102108000D02*
X150622000Y-89934020D01*
X137922000Y-89934020D02*
X137912990Y-89925010D01*
X137922000Y-102108000D02*
X137922000Y-89934020D01*
X125222000Y-89934020D02*
X125231010Y-89925010D01*
X125222000Y-102108000D02*
X125222000Y-89934020D01*
X170434000Y-106934000D02*
X170434000Y-100965000D01*
X137922000Y-106934000D02*
X138303000Y-107315000D01*
X157861000Y-106807000D02*
X156972000Y-106807000D01*
X156464000Y-107315000D02*
X154559000Y-107315000D01*
X156972000Y-106807000D02*
X156464000Y-107315000D01*
X137922000Y-102108000D02*
X137922000Y-104394000D01*
X138303000Y-104775000D02*
X138303000Y-105410000D01*
X137922000Y-104394000D02*
X138303000Y-104775000D01*
X138303000Y-105410000D02*
X138303000Y-107315000D01*
X157861000Y-106807000D02*
X157861000Y-105410000D01*
X157861000Y-105410000D02*
X156972000Y-104521000D01*
X156972000Y-104521000D02*
X156972000Y-102870000D01*
X156972000Y-102870000D02*
X156972000Y-96774000D01*
X125222000Y-102108000D02*
X125222000Y-104140000D01*
X124460000Y-104902000D02*
X124460000Y-107061000D01*
X125222000Y-104140000D02*
X124460000Y-104902000D01*
X166116000Y-63627000D02*
X166116000Y-59690000D01*
X166116000Y-59690000D02*
X166116000Y-59563000D01*
X166116000Y-59563000D02*
X166116000Y-59309000D01*
X166116000Y-59309000D02*
X166116000Y-59182000D01*
X152547000Y-63607000D02*
X152527000Y-63627000D01*
X152547000Y-59182000D02*
X152547000Y-63607000D01*
X152527000Y-71969000D02*
X152547000Y-71989000D01*
X152527000Y-63627000D02*
X152527000Y-71969000D01*
X145811240Y-56410860D02*
X145811240Y-59166760D01*
X159258000Y-59690000D02*
X159258000Y-63627000D01*
X170434000Y-100965000D02*
X170434000Y-96774000D01*
X137922000Y-84328000D02*
X137922000Y-89916000D01*
X137922000Y-84328000D02*
X137922000Y-80391000D01*
X137922000Y-80391000D02*
X135890000Y-78359000D01*
X135890000Y-78359000D02*
X135890000Y-76962000D01*
X135890000Y-76962000D02*
X135890000Y-76962000D01*
X163322000Y-84328000D02*
X163322000Y-79502000D01*
X163322000Y-79502000D02*
X162814000Y-78994000D01*
X162814000Y-72009000D02*
X162794000Y-71989000D01*
X162814000Y-78994000D02*
X162814000Y-72009000D01*
%TO.N,+3V3*%
X129687000Y-76885000D02*
X129621000Y-76951000D01*
X165767010Y-102013010D02*
X165862000Y-102108000D01*
X165767010Y-91280990D02*
X165767010Y-98265990D01*
X165767010Y-98265990D02*
X165767010Y-102013010D01*
X146939000Y-107315000D02*
X146939000Y-109855000D01*
X164338000Y-109855000D02*
X164338000Y-106934000D01*
X126238000Y-105918000D02*
X126238000Y-103505000D01*
X126238000Y-103505000D02*
X126492000Y-103251000D01*
X126492000Y-103251000D02*
X126492000Y-98298000D01*
X157226000Y-67437000D02*
X157226000Y-69489000D01*
X157226000Y-67437000D02*
X157226000Y-65532000D01*
X129687000Y-70211000D02*
X129687000Y-76885000D01*
X154579000Y-69489000D02*
X154579000Y-80879000D01*
X170688000Y-83312000D02*
X170688000Y-87249000D01*
X170688000Y-87249000D02*
X169545000Y-88392000D01*
X169545000Y-88392000D02*
X169545000Y-91186000D01*
X169545000Y-91186000D02*
X169545000Y-91186000D01*
X141732000Y-80391000D02*
X141732000Y-85852000D01*
X141732000Y-85852000D02*
X141732000Y-92583000D01*
X141732000Y-92583000D02*
X140843000Y-93472000D01*
X140843000Y-93472000D02*
X140843000Y-98298000D01*
%TO.N,Net-(C5-Pad1)*%
X172847000Y-76073000D02*
X172847000Y-81153000D01*
%TO.N,Net-(CON1-Pad2)*%
X150749000Y-107315000D02*
X150749000Y-106553000D01*
X150749000Y-106553000D02*
X149352000Y-105156000D01*
X149352000Y-105156000D02*
X149352000Y-91821000D01*
X127762000Y-91821000D02*
X127762000Y-84328000D01*
%TO.N,PIPICO_UART_RX*%
X122682000Y-102108000D02*
X122682000Y-96266000D01*
%TO.N,Net-(Q2-Pad1)*%
X115636000Y-95184000D02*
X120335000Y-95184000D01*
X142433000Y-95184000D02*
X142433000Y-98613000D01*
X142433000Y-98613000D02*
X141732000Y-99314000D01*
X141732000Y-99314000D02*
X141732000Y-101600000D01*
X141732000Y-101600000D02*
X141732000Y-104902000D01*
X141732000Y-104902000D02*
X142494000Y-105664000D01*
%TO.N,Net-(R2-Pad1)*%
X132842000Y-88011000D02*
X132842000Y-102108000D01*
%TO.N,SCL*%
X127143000Y-76889000D02*
X127081000Y-76951000D01*
X127143000Y-72247000D02*
X127143000Y-76889000D01*
X141367000Y-72247000D02*
X141367000Y-74057000D01*
X145542000Y-84328000D02*
X145542000Y-78994000D01*
X145542000Y-78994000D02*
X145542000Y-78994000D01*
X142113000Y-78994000D02*
X142113000Y-74803000D01*
X142113000Y-74803000D02*
X141367000Y-74057000D01*
%TO.N,SDA*%
X148082000Y-84328000D02*
X148082000Y-78486000D01*
X148082000Y-78486000D02*
X148082000Y-78486000D01*
%TO.N,MISO*%
X163893500Y-76263500D02*
X163893500Y-78930500D01*
X163893500Y-78930500D02*
X164592000Y-79629000D01*
X164592000Y-79629000D02*
X164592000Y-84074000D01*
X164592000Y-84074000D02*
X164592000Y-88011000D01*
X168402000Y-88011000D02*
X168402000Y-84328000D01*
%TO.N,~CS*%
X165002000Y-73123000D02*
X165002000Y-78007000D01*
X165002000Y-78007000D02*
X165735000Y-78740000D01*
X165735000Y-84201000D02*
X165862000Y-84328000D01*
X165735000Y-78740000D02*
X165735000Y-84201000D01*
%TO.N,SCLK*%
X160797000Y-84313000D02*
X160782000Y-84328000D01*
X160797000Y-75423000D02*
X160797000Y-84313000D01*
%TO.N,MOSI*%
X161798000Y-77089000D02*
X161798000Y-79502000D01*
%TO.N,IRQ*%
X155702000Y-73787000D02*
X155702000Y-84328000D01*
%TO.N,Net-(LK1-Pad1)*%
X150241000Y-71755000D02*
X150241000Y-77851000D01*
%TO.N,GNDA*%
X168515000Y-71388000D02*
X168515000Y-65546000D01*
X168515000Y-65546000D02*
X169672000Y-64389000D01*
X169672000Y-64389000D02*
X169672000Y-63119000D01*
X174895000Y-77073000D02*
X174895000Y-82915000D01*
X174879000Y-82931000D02*
X174895000Y-82915000D01*
X174895000Y-82915000D02*
X174895000Y-82915000D01*
%TO.N,Net-(C10-Pad2)*%
X173124590Y-73152000D02*
X173124590Y-70635590D01*
X185652500Y-70590500D02*
X185652500Y-65553500D01*
%TO.N,Net-(C11-Pad1)*%
X145720000Y-66624000D02*
X145669000Y-66675000D01*
X145720000Y-63068000D02*
X145720000Y-66624000D01*
%TO.N,Net-(CON4-Pad3)*%
X179252500Y-81788000D02*
X177927000Y-81788000D01*
X177927000Y-81788000D02*
X177427490Y-82287510D01*
X177427490Y-82287510D02*
X176784000Y-82931000D01*
X176784000Y-82931000D02*
X176784000Y-102235000D01*
X176784000Y-102235000D02*
X176784000Y-104267000D01*
X176784000Y-104267000D02*
X176530000Y-104521000D01*
X176530000Y-104521000D02*
X176530000Y-109347000D01*
X176530000Y-109347000D02*
X176530000Y-109347000D01*
%TO.N,Net-(CON4-Pad2)*%
X179252500Y-105862500D02*
X179070000Y-106045000D01*
X179252500Y-94488000D02*
X179252500Y-105862500D01*
%TO.N,Net-(CON4-Pad1)*%
X181864000Y-102489000D02*
X181864000Y-85979000D01*
X181864000Y-85979000D02*
X182880000Y-84963000D01*
X182880000Y-84963000D02*
X182880000Y-81788000D01*
X182880000Y-81788000D02*
X182880000Y-81788000D01*
%TO.N,+5V*%
X148971000Y-68072000D02*
X148971000Y-68961000D01*
X148971000Y-68961000D02*
X147066000Y-70866000D01*
X146717010Y-83581275D02*
X146717010Y-88613990D01*
X147066000Y-83232285D02*
X146717010Y-83581275D01*
X147066000Y-70866000D02*
X147066000Y-83232285D01*
X146717010Y-88613990D02*
X146717010Y-93312990D01*
X171069000Y-93218000D02*
X171005500Y-93281500D01*
X171069000Y-89281000D02*
X171069000Y-93218000D01*
X179252500Y-89225500D02*
X179197000Y-89281000D01*
X179252500Y-84328000D02*
X179252500Y-89225500D01*
%TO.N,Net-(D4-Pad2)*%
X186372500Y-91630500D02*
X186309000Y-91694000D01*
X186372500Y-84328000D02*
X186372500Y-91630500D01*
%TD*%
D29*
%TO.N,+3.3VA*%
X165356000Y-62923289D02*
X165312063Y-62967226D01*
X165198795Y-63136744D01*
X165120774Y-63325102D01*
X165081000Y-63525061D01*
X165081000Y-63728939D01*
X165120774Y-63928898D01*
X165198795Y-64117256D01*
X165312063Y-64286774D01*
X165456226Y-64430937D01*
X165625744Y-64544205D01*
X165814102Y-64622226D01*
X166014061Y-64662000D01*
X166217939Y-64662000D01*
X166417898Y-64622226D01*
X166606256Y-64544205D01*
X166775774Y-64430937D01*
X166919937Y-64286774D01*
X167033205Y-64117256D01*
X167111226Y-63928898D01*
X167151000Y-63728939D01*
X167151000Y-63525061D01*
X167111226Y-63325102D01*
X167033205Y-63136744D01*
X166919937Y-62967226D01*
X166876000Y-62923289D01*
X166876000Y-62357000D01*
X168970289Y-62357000D01*
X168868063Y-62459226D01*
X168754795Y-62628744D01*
X168676774Y-62817102D01*
X168637000Y-63017061D01*
X168637000Y-63220939D01*
X168676774Y-63420898D01*
X168754795Y-63609256D01*
X168868063Y-63778774D01*
X168912000Y-63822711D01*
X168912000Y-64074198D01*
X168003998Y-64982201D01*
X167975000Y-65005999D01*
X167951202Y-65034997D01*
X167951201Y-65034998D01*
X167880026Y-65121724D01*
X167809454Y-65253754D01*
X167765998Y-65397015D01*
X167751324Y-65546000D01*
X167755001Y-65583332D01*
X167755000Y-70684289D01*
X167711063Y-70728226D01*
X167597795Y-70897744D01*
X167519774Y-71086102D01*
X167480000Y-71286061D01*
X167480000Y-71489939D01*
X167519774Y-71689898D01*
X167597795Y-71878256D01*
X167711063Y-72047774D01*
X167855226Y-72191937D01*
X168024744Y-72305205D01*
X168213102Y-72383226D01*
X168413061Y-72423000D01*
X168616939Y-72423000D01*
X168816898Y-72383226D01*
X169005256Y-72305205D01*
X169174774Y-72191937D01*
X169318937Y-72047774D01*
X169432205Y-71878256D01*
X169510226Y-71689898D01*
X169550000Y-71489939D01*
X169550000Y-71286061D01*
X169510226Y-71086102D01*
X169432205Y-70897744D01*
X169318937Y-70728226D01*
X169275000Y-70684289D01*
X169275000Y-65860801D01*
X170183004Y-64952798D01*
X170212001Y-64929001D01*
X170284670Y-64840454D01*
X170306974Y-64813277D01*
X170377546Y-64681247D01*
X170383384Y-64662000D01*
X170421003Y-64537986D01*
X170432000Y-64426333D01*
X170432000Y-64426324D01*
X170435676Y-64389001D01*
X170432000Y-64351678D01*
X170432000Y-63822711D01*
X170475937Y-63778774D01*
X170589205Y-63609256D01*
X170667226Y-63420898D01*
X170707000Y-63220939D01*
X170707000Y-63017061D01*
X170667226Y-62817102D01*
X170589205Y-62628744D01*
X170475937Y-62459226D01*
X170373711Y-62357000D01*
X173482000Y-62357000D01*
X173482000Y-69215000D01*
X170180000Y-69215000D01*
X170155224Y-69217440D01*
X170131399Y-69224667D01*
X170109443Y-69236403D01*
X170090197Y-69252197D01*
X170074403Y-69271443D01*
X170062667Y-69293399D01*
X170055440Y-69317224D01*
X170053000Y-69342000D01*
X170053000Y-73456068D01*
X169970982Y-73431188D01*
X169846500Y-73418928D01*
X167846500Y-73418928D01*
X167722018Y-73431188D01*
X167602320Y-73467498D01*
X167492006Y-73526463D01*
X167395315Y-73605815D01*
X167315963Y-73702506D01*
X167256998Y-73812820D01*
X167220688Y-73932518D01*
X167208428Y-74057000D01*
X167208428Y-76057000D01*
X167220688Y-76181482D01*
X167256998Y-76301180D01*
X167315963Y-76411494D01*
X167395315Y-76508185D01*
X167492006Y-76587537D01*
X167602320Y-76646502D01*
X167722018Y-76682812D01*
X167846500Y-76695072D01*
X169846500Y-76695072D01*
X169970982Y-76682812D01*
X170090680Y-76646502D01*
X170200994Y-76587537D01*
X170297685Y-76508185D01*
X170377037Y-76411494D01*
X170436002Y-76301180D01*
X170472312Y-76181482D01*
X170482996Y-76073000D01*
X171812000Y-76073000D01*
X171812000Y-76174939D01*
X171851774Y-76374898D01*
X171929795Y-76563256D01*
X172043063Y-76732774D01*
X172087000Y-76776711D01*
X172087001Y-80449288D01*
X172043063Y-80493226D01*
X171929795Y-80662744D01*
X171851774Y-80851102D01*
X171812000Y-81051061D01*
X171812000Y-81254939D01*
X171851774Y-81454898D01*
X171929795Y-81643256D01*
X172043063Y-81812774D01*
X172187226Y-81956937D01*
X172356744Y-82070205D01*
X172545102Y-82148226D01*
X172745061Y-82188000D01*
X172948939Y-82188000D01*
X173148898Y-82148226D01*
X173337256Y-82070205D01*
X173506774Y-81956937D01*
X173650937Y-81812774D01*
X173764205Y-81643256D01*
X173842226Y-81454898D01*
X173882000Y-81254939D01*
X173882000Y-81051061D01*
X173842226Y-80851102D01*
X173764205Y-80662744D01*
X173650937Y-80493226D01*
X173607000Y-80449289D01*
X173607000Y-76776711D01*
X173650937Y-76732774D01*
X173764205Y-76563256D01*
X173842226Y-76374898D01*
X173882000Y-76174939D01*
X173882000Y-76073000D01*
X174617103Y-76073000D01*
X174593102Y-76077774D01*
X174404744Y-76155795D01*
X174235226Y-76269063D01*
X174091063Y-76413226D01*
X173977795Y-76582744D01*
X173899774Y-76771102D01*
X173860000Y-76971061D01*
X173860000Y-77174939D01*
X173899774Y-77374898D01*
X173977795Y-77563256D01*
X174091063Y-77732774D01*
X174135000Y-77776711D01*
X174135001Y-82211288D01*
X174091063Y-82255226D01*
X173977795Y-82424744D01*
X173899774Y-82613102D01*
X173860000Y-82813061D01*
X173860000Y-83016939D01*
X173899774Y-83216898D01*
X173977795Y-83405256D01*
X174091063Y-83574774D01*
X174235226Y-83718937D01*
X174404744Y-83832205D01*
X174593102Y-83910226D01*
X174793061Y-83950000D01*
X174996939Y-83950000D01*
X175196898Y-83910226D01*
X175260000Y-83884088D01*
X175260000Y-90551000D01*
X171829000Y-90551000D01*
X171829000Y-89984711D01*
X171872937Y-89940774D01*
X171986205Y-89771256D01*
X172064226Y-89582898D01*
X172104000Y-89382939D01*
X172104000Y-89179061D01*
X172064226Y-88979102D01*
X171986205Y-88790744D01*
X171872937Y-88621226D01*
X171728774Y-88477063D01*
X171559256Y-88363795D01*
X171370898Y-88285774D01*
X171170939Y-88246000D01*
X170967061Y-88246000D01*
X170767102Y-88285774D01*
X170696983Y-88314818D01*
X171199003Y-87812799D01*
X171228001Y-87789001D01*
X171254332Y-87756917D01*
X171322974Y-87673277D01*
X171393546Y-87541247D01*
X171399765Y-87520744D01*
X171437003Y-87397986D01*
X171448000Y-87286333D01*
X171448000Y-87286324D01*
X171451676Y-87249001D01*
X171448000Y-87211678D01*
X171448000Y-84015711D01*
X171491937Y-83971774D01*
X171605205Y-83802256D01*
X171683226Y-83613898D01*
X171723000Y-83413939D01*
X171723000Y-83210061D01*
X171683226Y-83010102D01*
X171605205Y-82821744D01*
X171491937Y-82652226D01*
X171347774Y-82508063D01*
X171178256Y-82394795D01*
X170989898Y-82316774D01*
X170789939Y-82277000D01*
X170586061Y-82277000D01*
X170386102Y-82316774D01*
X170197744Y-82394795D01*
X170028226Y-82508063D01*
X169884063Y-82652226D01*
X169770795Y-82821744D01*
X169692774Y-83010102D01*
X169673558Y-83106707D01*
X169642706Y-83048986D01*
X169457134Y-82822866D01*
X169231014Y-82637294D01*
X168973034Y-82499401D01*
X168693111Y-82414487D01*
X168402000Y-82385815D01*
X168110890Y-82414487D01*
X167830967Y-82499401D01*
X167572987Y-82637294D01*
X167346867Y-82822866D01*
X167161294Y-83048986D01*
X167132000Y-83103791D01*
X167102706Y-83048986D01*
X166917134Y-82822866D01*
X166691014Y-82637294D01*
X166495000Y-82532522D01*
X166495000Y-81475711D01*
X166538937Y-81431774D01*
X166652205Y-81262256D01*
X166730226Y-81073898D01*
X166770000Y-80873939D01*
X166770000Y-80670061D01*
X166730226Y-80470102D01*
X166652205Y-80281744D01*
X166538937Y-80112226D01*
X166495000Y-80068289D01*
X166495000Y-78777333D01*
X166498677Y-78740000D01*
X166484003Y-78591014D01*
X166440546Y-78447753D01*
X166369974Y-78315724D01*
X166298799Y-78228997D01*
X166275001Y-78199999D01*
X166246004Y-78176202D01*
X165762000Y-77692199D01*
X165762000Y-73826711D01*
X165805937Y-73782774D01*
X165919205Y-73613256D01*
X165997226Y-73424898D01*
X166037000Y-73224939D01*
X166037000Y-73021061D01*
X165997226Y-72821102D01*
X165919205Y-72632744D01*
X165805937Y-72463226D01*
X165661774Y-72319063D01*
X165492256Y-72205795D01*
X165303898Y-72127774D01*
X165103939Y-72088000D01*
X164900061Y-72088000D01*
X164700102Y-72127774D01*
X164511744Y-72205795D01*
X164342226Y-72319063D01*
X164198063Y-72463226D01*
X164084795Y-72632744D01*
X164006774Y-72821102D01*
X163967000Y-73021061D01*
X163967000Y-73224939D01*
X164006774Y-73424898D01*
X164084795Y-73613256D01*
X164198063Y-73782774D01*
X164242000Y-73826711D01*
X164242000Y-75287578D01*
X164195398Y-75268274D01*
X163995439Y-75228500D01*
X163791561Y-75228500D01*
X163591602Y-75268274D01*
X163574000Y-75275565D01*
X163574000Y-72672711D01*
X163597937Y-72648774D01*
X163711205Y-72479256D01*
X163789226Y-72290898D01*
X163829000Y-72090939D01*
X163829000Y-71887061D01*
X163789226Y-71687102D01*
X163711205Y-71498744D01*
X163597937Y-71329226D01*
X163453774Y-71185063D01*
X163284256Y-71071795D01*
X163095898Y-70993774D01*
X162895939Y-70954000D01*
X162692061Y-70954000D01*
X162492102Y-70993774D01*
X162303744Y-71071795D01*
X162134226Y-71185063D01*
X162052000Y-71267289D01*
X162052000Y-62357000D01*
X165356000Y-62357000D01*
X165356000Y-62923289D01*
%TA.AperFunction,Conductor*%
D30*
G36*
X165356000Y-62923289D02*
G01*
X165312063Y-62967226D01*
X165198795Y-63136744D01*
X165120774Y-63325102D01*
X165081000Y-63525061D01*
X165081000Y-63728939D01*
X165120774Y-63928898D01*
X165198795Y-64117256D01*
X165312063Y-64286774D01*
X165456226Y-64430937D01*
X165625744Y-64544205D01*
X165814102Y-64622226D01*
X166014061Y-64662000D01*
X166217939Y-64662000D01*
X166417898Y-64622226D01*
X166606256Y-64544205D01*
X166775774Y-64430937D01*
X166919937Y-64286774D01*
X167033205Y-64117256D01*
X167111226Y-63928898D01*
X167151000Y-63728939D01*
X167151000Y-63525061D01*
X167111226Y-63325102D01*
X167033205Y-63136744D01*
X166919937Y-62967226D01*
X166876000Y-62923289D01*
X166876000Y-62357000D01*
X168970289Y-62357000D01*
X168868063Y-62459226D01*
X168754795Y-62628744D01*
X168676774Y-62817102D01*
X168637000Y-63017061D01*
X168637000Y-63220939D01*
X168676774Y-63420898D01*
X168754795Y-63609256D01*
X168868063Y-63778774D01*
X168912000Y-63822711D01*
X168912000Y-64074198D01*
X168003998Y-64982201D01*
X167975000Y-65005999D01*
X167951202Y-65034997D01*
X167951201Y-65034998D01*
X167880026Y-65121724D01*
X167809454Y-65253754D01*
X167765998Y-65397015D01*
X167751324Y-65546000D01*
X167755001Y-65583332D01*
X167755000Y-70684289D01*
X167711063Y-70728226D01*
X167597795Y-70897744D01*
X167519774Y-71086102D01*
X167480000Y-71286061D01*
X167480000Y-71489939D01*
X167519774Y-71689898D01*
X167597795Y-71878256D01*
X167711063Y-72047774D01*
X167855226Y-72191937D01*
X168024744Y-72305205D01*
X168213102Y-72383226D01*
X168413061Y-72423000D01*
X168616939Y-72423000D01*
X168816898Y-72383226D01*
X169005256Y-72305205D01*
X169174774Y-72191937D01*
X169318937Y-72047774D01*
X169432205Y-71878256D01*
X169510226Y-71689898D01*
X169550000Y-71489939D01*
X169550000Y-71286061D01*
X169510226Y-71086102D01*
X169432205Y-70897744D01*
X169318937Y-70728226D01*
X169275000Y-70684289D01*
X169275000Y-65860801D01*
X170183004Y-64952798D01*
X170212001Y-64929001D01*
X170284670Y-64840454D01*
X170306974Y-64813277D01*
X170377546Y-64681247D01*
X170383384Y-64662000D01*
X170421003Y-64537986D01*
X170432000Y-64426333D01*
X170432000Y-64426324D01*
X170435676Y-64389001D01*
X170432000Y-64351678D01*
X170432000Y-63822711D01*
X170475937Y-63778774D01*
X170589205Y-63609256D01*
X170667226Y-63420898D01*
X170707000Y-63220939D01*
X170707000Y-63017061D01*
X170667226Y-62817102D01*
X170589205Y-62628744D01*
X170475937Y-62459226D01*
X170373711Y-62357000D01*
X173482000Y-62357000D01*
X173482000Y-69215000D01*
X170180000Y-69215000D01*
X170155224Y-69217440D01*
X170131399Y-69224667D01*
X170109443Y-69236403D01*
X170090197Y-69252197D01*
X170074403Y-69271443D01*
X170062667Y-69293399D01*
X170055440Y-69317224D01*
X170053000Y-69342000D01*
X170053000Y-73456068D01*
X169970982Y-73431188D01*
X169846500Y-73418928D01*
X167846500Y-73418928D01*
X167722018Y-73431188D01*
X167602320Y-73467498D01*
X167492006Y-73526463D01*
X167395315Y-73605815D01*
X167315963Y-73702506D01*
X167256998Y-73812820D01*
X167220688Y-73932518D01*
X167208428Y-74057000D01*
X167208428Y-76057000D01*
X167220688Y-76181482D01*
X167256998Y-76301180D01*
X167315963Y-76411494D01*
X167395315Y-76508185D01*
X167492006Y-76587537D01*
X167602320Y-76646502D01*
X167722018Y-76682812D01*
X167846500Y-76695072D01*
X169846500Y-76695072D01*
X169970982Y-76682812D01*
X170090680Y-76646502D01*
X170200994Y-76587537D01*
X170297685Y-76508185D01*
X170377037Y-76411494D01*
X170436002Y-76301180D01*
X170472312Y-76181482D01*
X170482996Y-76073000D01*
X171812000Y-76073000D01*
X171812000Y-76174939D01*
X171851774Y-76374898D01*
X171929795Y-76563256D01*
X172043063Y-76732774D01*
X172087000Y-76776711D01*
X172087001Y-80449288D01*
X172043063Y-80493226D01*
X171929795Y-80662744D01*
X171851774Y-80851102D01*
X171812000Y-81051061D01*
X171812000Y-81254939D01*
X171851774Y-81454898D01*
X171929795Y-81643256D01*
X172043063Y-81812774D01*
X172187226Y-81956937D01*
X172356744Y-82070205D01*
X172545102Y-82148226D01*
X172745061Y-82188000D01*
X172948939Y-82188000D01*
X173148898Y-82148226D01*
X173337256Y-82070205D01*
X173506774Y-81956937D01*
X173650937Y-81812774D01*
X173764205Y-81643256D01*
X173842226Y-81454898D01*
X173882000Y-81254939D01*
X173882000Y-81051061D01*
X173842226Y-80851102D01*
X173764205Y-80662744D01*
X173650937Y-80493226D01*
X173607000Y-80449289D01*
X173607000Y-76776711D01*
X173650937Y-76732774D01*
X173764205Y-76563256D01*
X173842226Y-76374898D01*
X173882000Y-76174939D01*
X173882000Y-76073000D01*
X174617103Y-76073000D01*
X174593102Y-76077774D01*
X174404744Y-76155795D01*
X174235226Y-76269063D01*
X174091063Y-76413226D01*
X173977795Y-76582744D01*
X173899774Y-76771102D01*
X173860000Y-76971061D01*
X173860000Y-77174939D01*
X173899774Y-77374898D01*
X173977795Y-77563256D01*
X174091063Y-77732774D01*
X174135000Y-77776711D01*
X174135001Y-82211288D01*
X174091063Y-82255226D01*
X173977795Y-82424744D01*
X173899774Y-82613102D01*
X173860000Y-82813061D01*
X173860000Y-83016939D01*
X173899774Y-83216898D01*
X173977795Y-83405256D01*
X174091063Y-83574774D01*
X174235226Y-83718937D01*
X174404744Y-83832205D01*
X174593102Y-83910226D01*
X174793061Y-83950000D01*
X174996939Y-83950000D01*
X175196898Y-83910226D01*
X175260000Y-83884088D01*
X175260000Y-90551000D01*
X171829000Y-90551000D01*
X171829000Y-89984711D01*
X171872937Y-89940774D01*
X171986205Y-89771256D01*
X172064226Y-89582898D01*
X172104000Y-89382939D01*
X172104000Y-89179061D01*
X172064226Y-88979102D01*
X171986205Y-88790744D01*
X171872937Y-88621226D01*
X171728774Y-88477063D01*
X171559256Y-88363795D01*
X171370898Y-88285774D01*
X171170939Y-88246000D01*
X170967061Y-88246000D01*
X170767102Y-88285774D01*
X170696983Y-88314818D01*
X171199003Y-87812799D01*
X171228001Y-87789001D01*
X171254332Y-87756917D01*
X171322974Y-87673277D01*
X171393546Y-87541247D01*
X171399765Y-87520744D01*
X171437003Y-87397986D01*
X171448000Y-87286333D01*
X171448000Y-87286324D01*
X171451676Y-87249001D01*
X171448000Y-87211678D01*
X171448000Y-84015711D01*
X171491937Y-83971774D01*
X171605205Y-83802256D01*
X171683226Y-83613898D01*
X171723000Y-83413939D01*
X171723000Y-83210061D01*
X171683226Y-83010102D01*
X171605205Y-82821744D01*
X171491937Y-82652226D01*
X171347774Y-82508063D01*
X171178256Y-82394795D01*
X170989898Y-82316774D01*
X170789939Y-82277000D01*
X170586061Y-82277000D01*
X170386102Y-82316774D01*
X170197744Y-82394795D01*
X170028226Y-82508063D01*
X169884063Y-82652226D01*
X169770795Y-82821744D01*
X169692774Y-83010102D01*
X169673558Y-83106707D01*
X169642706Y-83048986D01*
X169457134Y-82822866D01*
X169231014Y-82637294D01*
X168973034Y-82499401D01*
X168693111Y-82414487D01*
X168402000Y-82385815D01*
X168110890Y-82414487D01*
X167830967Y-82499401D01*
X167572987Y-82637294D01*
X167346867Y-82822866D01*
X167161294Y-83048986D01*
X167132000Y-83103791D01*
X167102706Y-83048986D01*
X166917134Y-82822866D01*
X166691014Y-82637294D01*
X166495000Y-82532522D01*
X166495000Y-81475711D01*
X166538937Y-81431774D01*
X166652205Y-81262256D01*
X166730226Y-81073898D01*
X166770000Y-80873939D01*
X166770000Y-80670061D01*
X166730226Y-80470102D01*
X166652205Y-80281744D01*
X166538937Y-80112226D01*
X166495000Y-80068289D01*
X166495000Y-78777333D01*
X166498677Y-78740000D01*
X166484003Y-78591014D01*
X166440546Y-78447753D01*
X166369974Y-78315724D01*
X166298799Y-78228997D01*
X166275001Y-78199999D01*
X166246004Y-78176202D01*
X165762000Y-77692199D01*
X165762000Y-73826711D01*
X165805937Y-73782774D01*
X165919205Y-73613256D01*
X165997226Y-73424898D01*
X166037000Y-73224939D01*
X166037000Y-73021061D01*
X165997226Y-72821102D01*
X165919205Y-72632744D01*
X165805937Y-72463226D01*
X165661774Y-72319063D01*
X165492256Y-72205795D01*
X165303898Y-72127774D01*
X165103939Y-72088000D01*
X164900061Y-72088000D01*
X164700102Y-72127774D01*
X164511744Y-72205795D01*
X164342226Y-72319063D01*
X164198063Y-72463226D01*
X164084795Y-72632744D01*
X164006774Y-72821102D01*
X163967000Y-73021061D01*
X163967000Y-73224939D01*
X164006774Y-73424898D01*
X164084795Y-73613256D01*
X164198063Y-73782774D01*
X164242000Y-73826711D01*
X164242000Y-75287578D01*
X164195398Y-75268274D01*
X163995439Y-75228500D01*
X163791561Y-75228500D01*
X163591602Y-75268274D01*
X163574000Y-75275565D01*
X163574000Y-72672711D01*
X163597937Y-72648774D01*
X163711205Y-72479256D01*
X163789226Y-72290898D01*
X163829000Y-72090939D01*
X163829000Y-71887061D01*
X163789226Y-71687102D01*
X163711205Y-71498744D01*
X163597937Y-71329226D01*
X163453774Y-71185063D01*
X163284256Y-71071795D01*
X163095898Y-70993774D01*
X162895939Y-70954000D01*
X162692061Y-70954000D01*
X162492102Y-70993774D01*
X162303744Y-71071795D01*
X162134226Y-71185063D01*
X162052000Y-71267289D01*
X162052000Y-62357000D01*
X165356000Y-62357000D01*
X165356000Y-62923289D01*
G37*
%TD.AperFunction*%
%TD*%
D29*
%TO.N,GND*%
X159893000Y-51688655D02*
X159893000Y-57190364D01*
X159748178Y-57127240D01*
X159630980Y-57099437D01*
X159385000Y-57219406D01*
X159385000Y-59563000D01*
X159405000Y-59563000D01*
X159405000Y-59817000D01*
X159385000Y-59817000D01*
X159385000Y-62160594D01*
X159630980Y-62280563D01*
X159748178Y-62252760D01*
X159893000Y-62189636D01*
X159893000Y-74912981D01*
X159879795Y-74932744D01*
X159801774Y-75121102D01*
X159762000Y-75321061D01*
X159762000Y-75524939D01*
X159801774Y-75724898D01*
X159879795Y-75913256D01*
X159893000Y-75933019D01*
X159893000Y-82686524D01*
X159726867Y-82822866D01*
X159541294Y-83048986D01*
X159512000Y-83103791D01*
X159482706Y-83048986D01*
X159297134Y-82822866D01*
X159071014Y-82637294D01*
X158813034Y-82499401D01*
X158533111Y-82414487D01*
X158242000Y-82385815D01*
X157950890Y-82414487D01*
X157670967Y-82499401D01*
X157412987Y-82637294D01*
X157186867Y-82822866D01*
X157001294Y-83048986D01*
X156972000Y-83103791D01*
X156942706Y-83048986D01*
X156757134Y-82822866D01*
X156531014Y-82637294D01*
X156462000Y-82600405D01*
X156462000Y-79400061D01*
X157207000Y-79400061D01*
X157207000Y-79603939D01*
X157246774Y-79803898D01*
X157324795Y-79992256D01*
X157438063Y-80161774D01*
X157582226Y-80305937D01*
X157751744Y-80419205D01*
X157940102Y-80497226D01*
X158140061Y-80537000D01*
X158343939Y-80537000D01*
X158543898Y-80497226D01*
X158732256Y-80419205D01*
X158901774Y-80305937D01*
X159045937Y-80161774D01*
X159159205Y-79992256D01*
X159237226Y-79803898D01*
X159277000Y-79603939D01*
X159277000Y-79400061D01*
X159237226Y-79200102D01*
X159159205Y-79011744D01*
X159045937Y-78842226D01*
X158901774Y-78698063D01*
X158732256Y-78584795D01*
X158543898Y-78506774D01*
X158343939Y-78467000D01*
X158140061Y-78467000D01*
X157940102Y-78506774D01*
X157751744Y-78584795D01*
X157582226Y-78698063D01*
X157438063Y-78842226D01*
X157324795Y-79011744D01*
X157246774Y-79200102D01*
X157207000Y-79400061D01*
X156462000Y-79400061D01*
X156462000Y-74490711D01*
X156505937Y-74446774D01*
X156619205Y-74277256D01*
X156697226Y-74088898D01*
X156737000Y-73888939D01*
X156737000Y-73685061D01*
X156697226Y-73485102D01*
X156640781Y-73348832D01*
X156878307Y-73391135D01*
X157099000Y-73232282D01*
X157099000Y-72116000D01*
X157353000Y-72116000D01*
X157353000Y-73232282D01*
X157573693Y-73391135D01*
X157845128Y-73342793D01*
X158101917Y-73242426D01*
X158334191Y-73093890D01*
X158533024Y-72902894D01*
X158690775Y-72676778D01*
X158801382Y-72424231D01*
X158818220Y-72332070D01*
X158695720Y-72116000D01*
X157353000Y-72116000D01*
X157099000Y-72116000D01*
X155756280Y-72116000D01*
X155633780Y-72332070D01*
X155650618Y-72424231D01*
X155761225Y-72676778D01*
X155815277Y-72754255D01*
X155803939Y-72752000D01*
X155600061Y-72752000D01*
X155400102Y-72791774D01*
X155339000Y-72817083D01*
X155339000Y-70192711D01*
X155382937Y-70148774D01*
X155496205Y-69979256D01*
X155574226Y-69790898D01*
X155587928Y-69722013D01*
X155587928Y-70239000D01*
X155600188Y-70363482D01*
X155636498Y-70483180D01*
X155695463Y-70593494D01*
X155774815Y-70690185D01*
X155871506Y-70769537D01*
X155981820Y-70828502D01*
X156101518Y-70864812D01*
X156141785Y-70868778D01*
X156117809Y-70884110D01*
X155918976Y-71075106D01*
X155761225Y-71301222D01*
X155650618Y-71553769D01*
X155633780Y-71645930D01*
X155756280Y-71862000D01*
X157099000Y-71862000D01*
X157099000Y-71842000D01*
X157353000Y-71842000D01*
X157353000Y-71862000D01*
X158695720Y-71862000D01*
X158818220Y-71645930D01*
X158801382Y-71553769D01*
X158690775Y-71301222D01*
X158533024Y-71075106D01*
X158334191Y-70884110D01*
X158310215Y-70868778D01*
X158350482Y-70864812D01*
X158470180Y-70828502D01*
X158580494Y-70769537D01*
X158677185Y-70690185D01*
X158756537Y-70593494D01*
X158815502Y-70483180D01*
X158851812Y-70363482D01*
X158864072Y-70239000D01*
X158864072Y-68739000D01*
X158851812Y-68614518D01*
X158815502Y-68494820D01*
X158756537Y-68384506D01*
X158677185Y-68287815D01*
X158580494Y-68208463D01*
X158470180Y-68149498D01*
X158350482Y-68113188D01*
X158226000Y-68100928D01*
X158025783Y-68100928D01*
X158029937Y-68096774D01*
X158143205Y-67927256D01*
X158221226Y-67738898D01*
X158261000Y-67538939D01*
X158261000Y-67335061D01*
X158221226Y-67135102D01*
X158143205Y-66946744D01*
X158029937Y-66777226D01*
X157986000Y-66733289D01*
X157986000Y-66235711D01*
X158029937Y-66191774D01*
X158143205Y-66022256D01*
X158221226Y-65833898D01*
X158261000Y-65633939D01*
X158261000Y-65430061D01*
X158221226Y-65230102D01*
X158143205Y-65041744D01*
X158029937Y-64872226D01*
X157885774Y-64728063D01*
X157716256Y-64614795D01*
X157527898Y-64536774D01*
X157327939Y-64497000D01*
X157124061Y-64497000D01*
X156924102Y-64536774D01*
X156735744Y-64614795D01*
X156566226Y-64728063D01*
X156422063Y-64872226D01*
X156308795Y-65041744D01*
X156230774Y-65230102D01*
X156191000Y-65430061D01*
X156191000Y-65633939D01*
X156230774Y-65833898D01*
X156308795Y-66022256D01*
X156422063Y-66191774D01*
X156466001Y-66235712D01*
X156466000Y-66733289D01*
X156422063Y-66777226D01*
X156308795Y-66946744D01*
X156230774Y-67135102D01*
X156191000Y-67335061D01*
X156191000Y-67538939D01*
X156230774Y-67738898D01*
X156308795Y-67927256D01*
X156422063Y-68096774D01*
X156426217Y-68100928D01*
X156226000Y-68100928D01*
X156101518Y-68113188D01*
X155981820Y-68149498D01*
X155871506Y-68208463D01*
X155774815Y-68287815D01*
X155695463Y-68384506D01*
X155636498Y-68494820D01*
X155600188Y-68614518D01*
X155587928Y-68739000D01*
X155587928Y-69255987D01*
X155574226Y-69187102D01*
X155496205Y-68998744D01*
X155382937Y-68829226D01*
X155238774Y-68685063D01*
X155069256Y-68571795D01*
X154880898Y-68493774D01*
X154680939Y-68454000D01*
X154477061Y-68454000D01*
X154277102Y-68493774D01*
X154088744Y-68571795D01*
X153919226Y-68685063D01*
X153775063Y-68829226D01*
X153661795Y-68998744D01*
X153583774Y-69187102D01*
X153544000Y-69387061D01*
X153544000Y-69590939D01*
X153583774Y-69790898D01*
X153661795Y-69979256D01*
X153775063Y-70148774D01*
X153819000Y-70192711D01*
X153819001Y-80175288D01*
X153775063Y-80219226D01*
X153661795Y-80388744D01*
X153583774Y-80577102D01*
X153544000Y-80777061D01*
X153544000Y-80980939D01*
X153583774Y-81180898D01*
X153661795Y-81369256D01*
X153775063Y-81538774D01*
X153919226Y-81682937D01*
X154088744Y-81796205D01*
X154277102Y-81874226D01*
X154477061Y-81914000D01*
X154680939Y-81914000D01*
X154880898Y-81874226D01*
X154942001Y-81848916D01*
X154942001Y-82600405D01*
X154872987Y-82637294D01*
X154646867Y-82822866D01*
X154461294Y-83048986D01*
X154432000Y-83103791D01*
X154402706Y-83048986D01*
X154217134Y-82822866D01*
X153991014Y-82637294D01*
X153733034Y-82499401D01*
X153453111Y-82414487D01*
X153162000Y-82385815D01*
X152870890Y-82414487D01*
X152590967Y-82499401D01*
X152332987Y-82637294D01*
X152106867Y-82822866D01*
X151921294Y-83048986D01*
X151890105Y-83107337D01*
X151786176Y-82947381D01*
X151582252Y-82738143D01*
X151341426Y-82572709D01*
X151072953Y-82457437D01*
X150978890Y-82436524D01*
X150749000Y-82557845D01*
X150749000Y-84201000D01*
X150769000Y-84201000D01*
X150769000Y-84455000D01*
X150749000Y-84455000D01*
X150749000Y-86098155D01*
X150978890Y-86219476D01*
X151072953Y-86198563D01*
X151341426Y-86083291D01*
X151582252Y-85917857D01*
X151786176Y-85708619D01*
X151890105Y-85548662D01*
X151921294Y-85607013D01*
X152106866Y-85833134D01*
X152332986Y-86018706D01*
X152590966Y-86156599D01*
X152870889Y-86241513D01*
X153162000Y-86270185D01*
X153453110Y-86241513D01*
X153733033Y-86156599D01*
X153991013Y-86018706D01*
X154217134Y-85833134D01*
X154402706Y-85607014D01*
X154432000Y-85552208D01*
X154461294Y-85607013D01*
X154646866Y-85833134D01*
X154872986Y-86018706D01*
X155130966Y-86156599D01*
X155410889Y-86241513D01*
X155702000Y-86270185D01*
X155993110Y-86241513D01*
X156273033Y-86156599D01*
X156531013Y-86018706D01*
X156757134Y-85833134D01*
X156942706Y-85607014D01*
X156972000Y-85552208D01*
X157001294Y-85607013D01*
X157186866Y-85833134D01*
X157412986Y-86018706D01*
X157670966Y-86156599D01*
X157950889Y-86241513D01*
X158242000Y-86270185D01*
X158533110Y-86241513D01*
X158813033Y-86156599D01*
X159071013Y-86018706D01*
X159297134Y-85833134D01*
X159482706Y-85607014D01*
X159512000Y-85552208D01*
X159541294Y-85607013D01*
X159726866Y-85833134D01*
X159893000Y-85969477D01*
X159893000Y-92329000D01*
X159895440Y-92353776D01*
X159902667Y-92377601D01*
X159914403Y-92399557D01*
X159930197Y-92418803D01*
X159949443Y-92434597D01*
X159971399Y-92446333D01*
X159995224Y-92453560D01*
X160020000Y-92456000D01*
X165007010Y-92456000D01*
X165007011Y-97562278D01*
X164963073Y-97606216D01*
X164849805Y-97775734D01*
X164771784Y-97964092D01*
X164732010Y-98164051D01*
X164732010Y-98367929D01*
X164771784Y-98567888D01*
X164849805Y-98756246D01*
X164963073Y-98925764D01*
X165007010Y-98969701D01*
X165007011Y-100438612D01*
X164806867Y-100602866D01*
X164621294Y-100828986D01*
X164590105Y-100887337D01*
X164486176Y-100727381D01*
X164282252Y-100518143D01*
X164041426Y-100352709D01*
X163772953Y-100237437D01*
X163678890Y-100216524D01*
X163449000Y-100337845D01*
X163449000Y-101981000D01*
X163469000Y-101981000D01*
X163469000Y-102235000D01*
X163449000Y-102235000D01*
X163449000Y-103878155D01*
X163678890Y-103999476D01*
X163772953Y-103978563D01*
X164041426Y-103863291D01*
X164282252Y-103697857D01*
X164486176Y-103488619D01*
X164590105Y-103328662D01*
X164621294Y-103387013D01*
X164806866Y-103613134D01*
X165032986Y-103798706D01*
X165290966Y-103936599D01*
X165570889Y-104021513D01*
X165862000Y-104050185D01*
X166153110Y-104021513D01*
X166433033Y-103936599D01*
X166691013Y-103798706D01*
X166917134Y-103613134D01*
X167102706Y-103387014D01*
X167132000Y-103332208D01*
X167161294Y-103387013D01*
X167346866Y-103613134D01*
X167572986Y-103798706D01*
X167830966Y-103936599D01*
X168110889Y-104021513D01*
X168402000Y-104050185D01*
X168693110Y-104021513D01*
X168973033Y-103936599D01*
X169231013Y-103798706D01*
X169457134Y-103613134D01*
X169642706Y-103387014D01*
X169780599Y-103129034D01*
X169865513Y-102849111D01*
X169887000Y-102630950D01*
X169887000Y-101585051D01*
X169865513Y-101366889D01*
X169780599Y-101086966D01*
X169642706Y-100828986D01*
X169457134Y-100602866D01*
X169231014Y-100417294D01*
X168973034Y-100279401D01*
X168693111Y-100194487D01*
X168402000Y-100165815D01*
X168110890Y-100194487D01*
X167830967Y-100279401D01*
X167572987Y-100417294D01*
X167346867Y-100602866D01*
X167161294Y-100828986D01*
X167132000Y-100883791D01*
X167102706Y-100828986D01*
X166917134Y-100602866D01*
X166691014Y-100417294D01*
X166527010Y-100329632D01*
X166527010Y-98969701D01*
X166570947Y-98925764D01*
X166684215Y-98756246D01*
X166762236Y-98567888D01*
X166802010Y-98367929D01*
X166802010Y-98164051D01*
X166762236Y-97964092D01*
X166684215Y-97775734D01*
X166570947Y-97606216D01*
X166527010Y-97562279D01*
X166527010Y-92456000D01*
X170309001Y-92456000D01*
X170309001Y-92514288D01*
X170201563Y-92621726D01*
X170088295Y-92791244D01*
X170010274Y-92979602D01*
X169970500Y-93179561D01*
X169970500Y-93383439D01*
X170010274Y-93583398D01*
X170088295Y-93771756D01*
X170201563Y-93941274D01*
X170345726Y-94085437D01*
X170515244Y-94198705D01*
X170703602Y-94276726D01*
X170903561Y-94316500D01*
X171107439Y-94316500D01*
X171307398Y-94276726D01*
X171495756Y-94198705D01*
X171665274Y-94085437D01*
X171809437Y-93941274D01*
X171922705Y-93771756D01*
X172000726Y-93583398D01*
X172040500Y-93383439D01*
X172040500Y-93179561D01*
X172000726Y-92979602D01*
X171922705Y-92791244D01*
X171829000Y-92651004D01*
X171829000Y-92456000D01*
X176024000Y-92456000D01*
X176024001Y-102197658D01*
X176024000Y-102197668D01*
X176024001Y-103652410D01*
X175914482Y-103619188D01*
X175790000Y-103606928D01*
X172190000Y-103606928D01*
X172065518Y-103619188D01*
X171945820Y-103655498D01*
X171835506Y-103714463D01*
X171738815Y-103793815D01*
X171659463Y-103890506D01*
X171600498Y-104000820D01*
X171564188Y-104120518D01*
X171551928Y-104245000D01*
X171551928Y-107845000D01*
X171564188Y-107969482D01*
X171600498Y-108089180D01*
X171659463Y-108199494D01*
X171738815Y-108296185D01*
X171835506Y-108375537D01*
X171945820Y-108434502D01*
X172065518Y-108470812D01*
X172190000Y-108483072D01*
X175770001Y-108483072D01*
X175770001Y-108643288D01*
X175726063Y-108687226D01*
X175612795Y-108856744D01*
X175534774Y-109045102D01*
X175495000Y-109245061D01*
X175495000Y-109448939D01*
X175534774Y-109648898D01*
X175612795Y-109837256D01*
X175726063Y-110006774D01*
X175870226Y-110150937D01*
X176039744Y-110264205D01*
X176228102Y-110342226D01*
X176428061Y-110382000D01*
X176631939Y-110382000D01*
X176831898Y-110342226D01*
X177020256Y-110264205D01*
X177189774Y-110150937D01*
X177333937Y-110006774D01*
X177447205Y-109837256D01*
X177525226Y-109648898D01*
X177565000Y-109448939D01*
X177565000Y-109245061D01*
X177525226Y-109045102D01*
X177447205Y-108856744D01*
X177333937Y-108687226D01*
X177290000Y-108643289D01*
X177290000Y-107708610D01*
X177517778Y-107936388D01*
X177916595Y-108202869D01*
X178359737Y-108386424D01*
X178830173Y-108480000D01*
X179309827Y-108480000D01*
X179780263Y-108386424D01*
X180223405Y-108202869D01*
X180622222Y-107936388D01*
X180961388Y-107597222D01*
X181227869Y-107198405D01*
X181411424Y-106755263D01*
X181505000Y-106284827D01*
X181505000Y-105805173D01*
X181715000Y-105805173D01*
X181715000Y-106284827D01*
X181808576Y-106755263D01*
X181992131Y-107198405D01*
X182258612Y-107597222D01*
X182597778Y-107936388D01*
X182996595Y-108202869D01*
X183439737Y-108386424D01*
X183659293Y-108430097D01*
X183490226Y-108543063D01*
X183346063Y-108687226D01*
X183232795Y-108856744D01*
X183154774Y-109045102D01*
X183115000Y-109245061D01*
X183115000Y-109448939D01*
X183154774Y-109648898D01*
X183232795Y-109837256D01*
X183346063Y-110006774D01*
X183490226Y-110150937D01*
X183659744Y-110264205D01*
X183848102Y-110342226D01*
X184048061Y-110382000D01*
X184251939Y-110382000D01*
X184451898Y-110342226D01*
X184640256Y-110264205D01*
X184809774Y-110150937D01*
X184953937Y-110006774D01*
X185067205Y-109837256D01*
X185145226Y-109648898D01*
X185185000Y-109448939D01*
X185185000Y-109245061D01*
X185145226Y-109045102D01*
X185067205Y-108856744D01*
X184953937Y-108687226D01*
X184809774Y-108543063D01*
X184640707Y-108430097D01*
X184860263Y-108386424D01*
X185303405Y-108202869D01*
X185702222Y-107936388D01*
X186041388Y-107597222D01*
X186307869Y-107198405D01*
X186491424Y-106755263D01*
X186585000Y-106284827D01*
X186585000Y-105805173D01*
X186491424Y-105334737D01*
X186307869Y-104891595D01*
X186041388Y-104492778D01*
X185702222Y-104153612D01*
X185303405Y-103887131D01*
X184860263Y-103703576D01*
X184389827Y-103610000D01*
X183910173Y-103610000D01*
X183439737Y-103703576D01*
X182996595Y-103887131D01*
X182597778Y-104153612D01*
X182258612Y-104492778D01*
X181992131Y-104891595D01*
X181808576Y-105334737D01*
X181715000Y-105805173D01*
X181505000Y-105805173D01*
X181411424Y-105334737D01*
X181227869Y-104891595D01*
X180961388Y-104492778D01*
X180622222Y-104153612D01*
X180223405Y-103887131D01*
X180012500Y-103799771D01*
X180012500Y-96014669D01*
X180153413Y-96000790D01*
X180442761Y-95913017D01*
X180709427Y-95770481D01*
X180943161Y-95578661D01*
X181104000Y-95382677D01*
X181104000Y-101785289D01*
X181060063Y-101829226D01*
X180946795Y-101998744D01*
X180868774Y-102187102D01*
X180829000Y-102387061D01*
X180829000Y-102590939D01*
X180868774Y-102790898D01*
X180946795Y-102979256D01*
X181060063Y-103148774D01*
X181204226Y-103292937D01*
X181373744Y-103406205D01*
X181562102Y-103484226D01*
X181762061Y-103524000D01*
X181965939Y-103524000D01*
X182165898Y-103484226D01*
X182354256Y-103406205D01*
X182523774Y-103292937D01*
X182667937Y-103148774D01*
X182781205Y-102979256D01*
X182859226Y-102790898D01*
X182899000Y-102590939D01*
X182899000Y-102387061D01*
X182894654Y-102365214D01*
X183294554Y-102765114D01*
X183808021Y-103108201D01*
X184378554Y-103344524D01*
X184984229Y-103465000D01*
X185601771Y-103465000D01*
X186207446Y-103344524D01*
X186777979Y-103108201D01*
X187291446Y-102765114D01*
X187728114Y-102328446D01*
X188071201Y-101814979D01*
X188307524Y-101244446D01*
X188428000Y-100638771D01*
X188428000Y-100021229D01*
X188307524Y-99415554D01*
X188071201Y-98845021D01*
X187728114Y-98331554D01*
X187291446Y-97894886D01*
X186777979Y-97551799D01*
X186207446Y-97315476D01*
X185601771Y-97195000D01*
X184984229Y-97195000D01*
X184378554Y-97315476D01*
X183808021Y-97551799D01*
X183294554Y-97894886D01*
X182857886Y-98331554D01*
X182624000Y-98681590D01*
X182624000Y-94488000D01*
X184230073Y-94488000D01*
X184259710Y-94788913D01*
X184347483Y-95078261D01*
X184490019Y-95344927D01*
X184681839Y-95578661D01*
X184915573Y-95770481D01*
X185182239Y-95913017D01*
X185471587Y-96000790D01*
X185697092Y-96023000D01*
X187047908Y-96023000D01*
X187273413Y-96000790D01*
X187562761Y-95913017D01*
X187829427Y-95770481D01*
X188063161Y-95578661D01*
X188254981Y-95344927D01*
X188397517Y-95078261D01*
X188485290Y-94788913D01*
X188514927Y-94488000D01*
X188485290Y-94187087D01*
X188397517Y-93897739D01*
X188254981Y-93631073D01*
X188063161Y-93397339D01*
X187829427Y-93205519D01*
X187562761Y-93062983D01*
X187273413Y-92975210D01*
X187047908Y-92953000D01*
X185697092Y-92953000D01*
X185471587Y-92975210D01*
X185182239Y-93062983D01*
X184915573Y-93205519D01*
X184681839Y-93397339D01*
X184490019Y-93631073D01*
X184347483Y-93897739D01*
X184259710Y-94187087D01*
X184230073Y-94488000D01*
X182624000Y-94488000D01*
X182624000Y-92456000D01*
X185607289Y-92456000D01*
X185649226Y-92497937D01*
X185818744Y-92611205D01*
X186007102Y-92689226D01*
X186207061Y-92729000D01*
X186410939Y-92729000D01*
X186610898Y-92689226D01*
X186799256Y-92611205D01*
X186968774Y-92497937D01*
X187010711Y-92456000D01*
X188595000Y-92456000D01*
X188595000Y-110871000D01*
X164535459Y-110871000D01*
X164639898Y-110850226D01*
X164828256Y-110772205D01*
X164997774Y-110658937D01*
X165141937Y-110514774D01*
X165255205Y-110345256D01*
X165333226Y-110156898D01*
X165373000Y-109956939D01*
X165373000Y-109753061D01*
X165333226Y-109553102D01*
X165255205Y-109364744D01*
X165141937Y-109195226D01*
X165098000Y-109151289D01*
X165098000Y-107637711D01*
X165141937Y-107593774D01*
X165255205Y-107424256D01*
X165333226Y-107235898D01*
X165373000Y-107035939D01*
X165373000Y-106832061D01*
X165333226Y-106632102D01*
X165255205Y-106443744D01*
X165141937Y-106274226D01*
X164997774Y-106130063D01*
X164828256Y-106016795D01*
X164639898Y-105938774D01*
X164439939Y-105899000D01*
X164236061Y-105899000D01*
X164036102Y-105938774D01*
X163847744Y-106016795D01*
X163678226Y-106130063D01*
X163534063Y-106274226D01*
X163420795Y-106443744D01*
X163342774Y-106632102D01*
X163303000Y-106832061D01*
X163303000Y-107035939D01*
X163342774Y-107235898D01*
X163420795Y-107424256D01*
X163534063Y-107593774D01*
X163578001Y-107637712D01*
X163578000Y-109151289D01*
X163534063Y-109195226D01*
X163420795Y-109364744D01*
X163342774Y-109553102D01*
X163303000Y-109753061D01*
X163303000Y-109956939D01*
X163342774Y-110156898D01*
X163420795Y-110345256D01*
X163534063Y-110514774D01*
X163678226Y-110658937D01*
X163847744Y-110772205D01*
X164036102Y-110850226D01*
X164140541Y-110871000D01*
X147136459Y-110871000D01*
X147240898Y-110850226D01*
X147429256Y-110772205D01*
X147598774Y-110658937D01*
X147742937Y-110514774D01*
X147856205Y-110345256D01*
X147934226Y-110156898D01*
X147974000Y-109956939D01*
X147974000Y-109753061D01*
X147934226Y-109553102D01*
X147856205Y-109364744D01*
X147742937Y-109195226D01*
X147699000Y-109151289D01*
X147699000Y-109053072D01*
X148339000Y-109053072D01*
X148463482Y-109040812D01*
X148583180Y-109004502D01*
X148693494Y-108945537D01*
X148790185Y-108866185D01*
X148869537Y-108769494D01*
X148928502Y-108659180D01*
X148964812Y-108539482D01*
X148977072Y-108415000D01*
X148977072Y-108241766D01*
X148999421Y-108283578D01*
X149216234Y-108547766D01*
X149480422Y-108764579D01*
X149781832Y-108925686D01*
X150108881Y-109024895D01*
X150363775Y-109050000D01*
X151134225Y-109050000D01*
X151389119Y-109024895D01*
X151716168Y-108925686D01*
X152017578Y-108764579D01*
X152281766Y-108547766D01*
X152498579Y-108283578D01*
X152659686Y-107982168D01*
X152660213Y-107980431D01*
X152745843Y-108173317D01*
X152942367Y-108452027D01*
X153189489Y-108687042D01*
X153477712Y-108869330D01*
X153795959Y-108991886D01*
X154132000Y-109050000D01*
X154432000Y-109050000D01*
X154432000Y-107442000D01*
X154686000Y-107442000D01*
X154686000Y-109050000D01*
X154986000Y-109050000D01*
X155322041Y-108991886D01*
X155640288Y-108869330D01*
X155928511Y-108687042D01*
X156175633Y-108452027D01*
X156372157Y-108173317D01*
X156510531Y-107861622D01*
X156548175Y-107711122D01*
X156430125Y-107442000D01*
X154686000Y-107442000D01*
X154432000Y-107442000D01*
X154412000Y-107442000D01*
X154412000Y-107188000D01*
X154432000Y-107188000D01*
X154432000Y-105580000D01*
X154686000Y-105580000D01*
X154686000Y-107188000D01*
X156430125Y-107188000D01*
X156548175Y-106918878D01*
X156510531Y-106768378D01*
X156372157Y-106456683D01*
X156175633Y-106177973D01*
X155928511Y-105942958D01*
X155640288Y-105760670D01*
X155322041Y-105638114D01*
X154986000Y-105580000D01*
X154686000Y-105580000D01*
X154432000Y-105580000D01*
X154132000Y-105580000D01*
X153795959Y-105638114D01*
X153477712Y-105760670D01*
X153189489Y-105942958D01*
X152942367Y-106177973D01*
X152745843Y-106456683D01*
X152660213Y-106649569D01*
X152659686Y-106647832D01*
X152498579Y-106346422D01*
X152281766Y-106082234D01*
X152017578Y-105865421D01*
X151716168Y-105704314D01*
X151389119Y-105605105D01*
X151134225Y-105580000D01*
X150850802Y-105580000D01*
X150112000Y-104841199D01*
X150112000Y-103953210D01*
X150171047Y-103978563D01*
X150265110Y-103999476D01*
X150495000Y-103878155D01*
X150495000Y-102235000D01*
X150475000Y-102235000D01*
X150475000Y-101981000D01*
X150495000Y-101981000D01*
X150495000Y-100337845D01*
X150749000Y-100337845D01*
X150749000Y-101981000D01*
X150769000Y-101981000D01*
X150769000Y-102235000D01*
X150749000Y-102235000D01*
X150749000Y-103878155D01*
X150978890Y-103999476D01*
X151072953Y-103978563D01*
X151341426Y-103863291D01*
X151582252Y-103697857D01*
X151786176Y-103488619D01*
X151890105Y-103328662D01*
X151921294Y-103387013D01*
X152106866Y-103613134D01*
X152332986Y-103798706D01*
X152590966Y-103936599D01*
X152870889Y-104021513D01*
X153162000Y-104050185D01*
X153453110Y-104021513D01*
X153733033Y-103936599D01*
X153991013Y-103798706D01*
X154217134Y-103613134D01*
X154402706Y-103387014D01*
X154432000Y-103332208D01*
X154461294Y-103387013D01*
X154646866Y-103613134D01*
X154872986Y-103798706D01*
X155130966Y-103936599D01*
X155410889Y-104021513D01*
X155702000Y-104050185D01*
X155993110Y-104021513D01*
X156273033Y-103936599D01*
X156531013Y-103798706D01*
X156757134Y-103613134D01*
X156942706Y-103387014D01*
X156972000Y-103332208D01*
X157001294Y-103387013D01*
X157186866Y-103613134D01*
X157412986Y-103798706D01*
X157670966Y-103936599D01*
X157950889Y-104021513D01*
X158242000Y-104050185D01*
X158533110Y-104021513D01*
X158813033Y-103936599D01*
X159071013Y-103798706D01*
X159297134Y-103613134D01*
X159482706Y-103387014D01*
X159512000Y-103332208D01*
X159541294Y-103387013D01*
X159726866Y-103613134D01*
X159952986Y-103798706D01*
X160210966Y-103936599D01*
X160490889Y-104021513D01*
X160782000Y-104050185D01*
X161073110Y-104021513D01*
X161353033Y-103936599D01*
X161611013Y-103798706D01*
X161837134Y-103613134D01*
X162022706Y-103387014D01*
X162053895Y-103328663D01*
X162157824Y-103488619D01*
X162361748Y-103697857D01*
X162602574Y-103863291D01*
X162871047Y-103978563D01*
X162965110Y-103999476D01*
X163195000Y-103878155D01*
X163195000Y-102235000D01*
X163175000Y-102235000D01*
X163175000Y-101981000D01*
X163195000Y-101981000D01*
X163195000Y-100337845D01*
X162965110Y-100216524D01*
X162871047Y-100237437D01*
X162602574Y-100352709D01*
X162361748Y-100518143D01*
X162157824Y-100727381D01*
X162053895Y-100887337D01*
X162022706Y-100828986D01*
X161837134Y-100602866D01*
X161611014Y-100417294D01*
X161353034Y-100279401D01*
X161073111Y-100194487D01*
X160782000Y-100165815D01*
X160490890Y-100194487D01*
X160210967Y-100279401D01*
X159952987Y-100417294D01*
X159726867Y-100602866D01*
X159541294Y-100828986D01*
X159512000Y-100883791D01*
X159482706Y-100828986D01*
X159297134Y-100602866D01*
X159071014Y-100417294D01*
X158813034Y-100279401D01*
X158533111Y-100194487D01*
X158242000Y-100165815D01*
X157950890Y-100194487D01*
X157670967Y-100279401D01*
X157412987Y-100417294D01*
X157186867Y-100602866D01*
X157001294Y-100828986D01*
X156972000Y-100883791D01*
X156942706Y-100828986D01*
X156757134Y-100602866D01*
X156531014Y-100417294D01*
X156273034Y-100279401D01*
X155993111Y-100194487D01*
X155702000Y-100165815D01*
X155410890Y-100194487D01*
X155130967Y-100279401D01*
X154872987Y-100417294D01*
X154646867Y-100602866D01*
X154461294Y-100828986D01*
X154432000Y-100883791D01*
X154402706Y-100828986D01*
X154217134Y-100602866D01*
X153991014Y-100417294D01*
X153733034Y-100279401D01*
X153453111Y-100194487D01*
X153162000Y-100165815D01*
X152870890Y-100194487D01*
X152590967Y-100279401D01*
X152332987Y-100417294D01*
X152106867Y-100602866D01*
X151921294Y-100828986D01*
X151890105Y-100887337D01*
X151786176Y-100727381D01*
X151582252Y-100518143D01*
X151341426Y-100352709D01*
X151072953Y-100237437D01*
X150978890Y-100216524D01*
X150749000Y-100337845D01*
X150495000Y-100337845D01*
X150265110Y-100216524D01*
X150171047Y-100237437D01*
X150112000Y-100262790D01*
X150112000Y-92524711D01*
X150155937Y-92480774D01*
X150269205Y-92311256D01*
X150347226Y-92122898D01*
X150387000Y-91922939D01*
X150387000Y-91719061D01*
X150347226Y-91519102D01*
X150269205Y-91330744D01*
X150155937Y-91161226D01*
X150011774Y-91017063D01*
X149842256Y-90903795D01*
X149653898Y-90825774D01*
X149453939Y-90786000D01*
X149250061Y-90786000D01*
X149050102Y-90825774D01*
X148861744Y-90903795D01*
X148692226Y-91017063D01*
X148548063Y-91161226D01*
X148434795Y-91330744D01*
X148356774Y-91519102D01*
X148317000Y-91719061D01*
X148317000Y-91922939D01*
X148356774Y-92122898D01*
X148434795Y-92311256D01*
X148548063Y-92480774D01*
X148592001Y-92524712D01*
X148592000Y-100260887D01*
X148373111Y-100194487D01*
X148082000Y-100165815D01*
X147790890Y-100194487D01*
X147510967Y-100279401D01*
X147252987Y-100417294D01*
X147026867Y-100602866D01*
X146841294Y-100828986D01*
X146812000Y-100883791D01*
X146782706Y-100828986D01*
X146597134Y-100602866D01*
X146371014Y-100417294D01*
X146113034Y-100279401D01*
X145833111Y-100194487D01*
X145542000Y-100165815D01*
X145250890Y-100194487D01*
X144970967Y-100279401D01*
X144712987Y-100417294D01*
X144486867Y-100602866D01*
X144301294Y-100828986D01*
X144272000Y-100883791D01*
X144242706Y-100828986D01*
X144057134Y-100602866D01*
X143831014Y-100417294D01*
X143573034Y-100279401D01*
X143293111Y-100194487D01*
X143002000Y-100165815D01*
X142710890Y-100194487D01*
X142492000Y-100260887D01*
X142492000Y-99628801D01*
X142944002Y-99176799D01*
X142973001Y-99153001D01*
X143067974Y-99037276D01*
X143138546Y-98905247D01*
X143182003Y-98761986D01*
X143193000Y-98650333D01*
X143193000Y-98650325D01*
X143196676Y-98613000D01*
X143193000Y-98575675D01*
X143193000Y-95887711D01*
X143236937Y-95843774D01*
X143350205Y-95674256D01*
X143428226Y-95485898D01*
X143468000Y-95285939D01*
X143468000Y-95082061D01*
X143428226Y-94882102D01*
X143350205Y-94693744D01*
X143236937Y-94524226D01*
X143092774Y-94380063D01*
X142923256Y-94266795D01*
X142734898Y-94188774D01*
X142534939Y-94149000D01*
X142331061Y-94149000D01*
X142131102Y-94188774D01*
X141942744Y-94266795D01*
X141773226Y-94380063D01*
X141629063Y-94524226D01*
X141603000Y-94563232D01*
X141603000Y-93786801D01*
X142243003Y-93146799D01*
X142272001Y-93123001D01*
X142366974Y-93007276D01*
X142437546Y-92875247D01*
X142481003Y-92731986D01*
X142492000Y-92620333D01*
X142492000Y-92620323D01*
X142495676Y-92583000D01*
X142492000Y-92545677D01*
X142492000Y-86175114D01*
X142710889Y-86241513D01*
X143002000Y-86270185D01*
X143293110Y-86241513D01*
X143573033Y-86156599D01*
X143831013Y-86018706D01*
X144057134Y-85833134D01*
X144242706Y-85607014D01*
X144272000Y-85552208D01*
X144301294Y-85607013D01*
X144486866Y-85833134D01*
X144712986Y-86018706D01*
X144970966Y-86156599D01*
X145250889Y-86241513D01*
X145542000Y-86270185D01*
X145833110Y-86241513D01*
X145957011Y-86203928D01*
X145957011Y-88576648D01*
X145957010Y-88576658D01*
X145957011Y-92609278D01*
X145913073Y-92653216D01*
X145799805Y-92822734D01*
X145721784Y-93011092D01*
X145682010Y-93211051D01*
X145682010Y-93414929D01*
X145721784Y-93614888D01*
X145799805Y-93803246D01*
X145913073Y-93972764D01*
X146057236Y-94116927D01*
X146226754Y-94230195D01*
X146415112Y-94308216D01*
X146615071Y-94347990D01*
X146818949Y-94347990D01*
X147018908Y-94308216D01*
X147207266Y-94230195D01*
X147376784Y-94116927D01*
X147520947Y-93972764D01*
X147634215Y-93803246D01*
X147712236Y-93614888D01*
X147752010Y-93414929D01*
X147752010Y-93211051D01*
X147712236Y-93011092D01*
X147634215Y-92822734D01*
X147520947Y-92653216D01*
X147477010Y-92609279D01*
X147477010Y-86138449D01*
X147510966Y-86156599D01*
X147790889Y-86241513D01*
X148082000Y-86270185D01*
X148373110Y-86241513D01*
X148653033Y-86156599D01*
X148911013Y-86018706D01*
X149137134Y-85833134D01*
X149322706Y-85607014D01*
X149353895Y-85548663D01*
X149457824Y-85708619D01*
X149661748Y-85917857D01*
X149902574Y-86083291D01*
X150171047Y-86198563D01*
X150265110Y-86219476D01*
X150495000Y-86098155D01*
X150495000Y-84455000D01*
X150475000Y-84455000D01*
X150475000Y-84201000D01*
X150495000Y-84201000D01*
X150495000Y-82557845D01*
X150265110Y-82436524D01*
X150171047Y-82457437D01*
X149902574Y-82572709D01*
X149661748Y-82738143D01*
X149457824Y-82947381D01*
X149353895Y-83107337D01*
X149322706Y-83048986D01*
X149137134Y-82822866D01*
X148911014Y-82637294D01*
X148842000Y-82600405D01*
X148842000Y-79189711D01*
X148885937Y-79145774D01*
X148999205Y-78976256D01*
X149077226Y-78787898D01*
X149117000Y-78587939D01*
X149117000Y-78384061D01*
X149077226Y-78184102D01*
X148999205Y-77995744D01*
X148885937Y-77826226D01*
X148741774Y-77682063D01*
X148572256Y-77568795D01*
X148383898Y-77490774D01*
X148183939Y-77451000D01*
X147980061Y-77451000D01*
X147826000Y-77481644D01*
X147826000Y-71653061D01*
X149206000Y-71653061D01*
X149206000Y-71856939D01*
X149245774Y-72056898D01*
X149323795Y-72245256D01*
X149437063Y-72414774D01*
X149481000Y-72458711D01*
X149481001Y-77147288D01*
X149437063Y-77191226D01*
X149323795Y-77360744D01*
X149245774Y-77549102D01*
X149206000Y-77749061D01*
X149206000Y-77952939D01*
X149245774Y-78152898D01*
X149323795Y-78341256D01*
X149437063Y-78510774D01*
X149581226Y-78654937D01*
X149750744Y-78768205D01*
X149939102Y-78846226D01*
X150139061Y-78886000D01*
X150342939Y-78886000D01*
X150542898Y-78846226D01*
X150731256Y-78768205D01*
X150900774Y-78654937D01*
X151044937Y-78510774D01*
X151158205Y-78341256D01*
X151236226Y-78152898D01*
X151276000Y-77952939D01*
X151276000Y-77749061D01*
X151236226Y-77549102D01*
X151158205Y-77360744D01*
X151044937Y-77191226D01*
X151001000Y-77147289D01*
X151001000Y-72458711D01*
X151044937Y-72414774D01*
X151158205Y-72245256D01*
X151236226Y-72056898D01*
X151276000Y-71856939D01*
X151276000Y-71653061D01*
X151236226Y-71453102D01*
X151158205Y-71264744D01*
X151044937Y-71095226D01*
X150900774Y-70951063D01*
X150731256Y-70837795D01*
X150542898Y-70759774D01*
X150342939Y-70720000D01*
X150139061Y-70720000D01*
X149939102Y-70759774D01*
X149750744Y-70837795D01*
X149581226Y-70951063D01*
X149437063Y-71095226D01*
X149323795Y-71264744D01*
X149245774Y-71453102D01*
X149206000Y-71653061D01*
X147826000Y-71653061D01*
X147826000Y-71180801D01*
X149482003Y-69524799D01*
X149511001Y-69501001D01*
X149605974Y-69385276D01*
X149676546Y-69253247D01*
X149720003Y-69109986D01*
X149731000Y-68998333D01*
X149731000Y-68998323D01*
X149734676Y-68961000D01*
X149731000Y-68923677D01*
X149731000Y-68775711D01*
X149774937Y-68731774D01*
X149888205Y-68562256D01*
X149966226Y-68373898D01*
X150006000Y-68173939D01*
X150006000Y-67970061D01*
X149966226Y-67770102D01*
X149888205Y-67581744D01*
X149774937Y-67412226D01*
X149630774Y-67268063D01*
X149461256Y-67154795D01*
X149272898Y-67076774D01*
X149072939Y-67037000D01*
X148869061Y-67037000D01*
X148669102Y-67076774D01*
X148480744Y-67154795D01*
X148311226Y-67268063D01*
X148167063Y-67412226D01*
X148053795Y-67581744D01*
X147975774Y-67770102D01*
X147936000Y-67970061D01*
X147936000Y-68173939D01*
X147975774Y-68373898D01*
X148053795Y-68562256D01*
X148150385Y-68706813D01*
X146555003Y-70302196D01*
X146525999Y-70325999D01*
X146495238Y-70363482D01*
X146431026Y-70441724D01*
X146387048Y-70524000D01*
X146360454Y-70573754D01*
X146316997Y-70717015D01*
X146306000Y-70828668D01*
X146306000Y-70828678D01*
X146302324Y-70866000D01*
X146306000Y-70903322D01*
X146306001Y-78294290D01*
X146201774Y-78190063D01*
X146032256Y-78076795D01*
X145843898Y-77998774D01*
X145643939Y-77959000D01*
X145440061Y-77959000D01*
X145240102Y-77998774D01*
X145051744Y-78076795D01*
X144882226Y-78190063D01*
X144738063Y-78334226D01*
X144624795Y-78503744D01*
X144546774Y-78692102D01*
X144507000Y-78892061D01*
X144507000Y-79095939D01*
X144546774Y-79295898D01*
X144624795Y-79484256D01*
X144738063Y-79653774D01*
X144782001Y-79697712D01*
X144782000Y-82600406D01*
X144712987Y-82637294D01*
X144486867Y-82822866D01*
X144301294Y-83048986D01*
X144272000Y-83103791D01*
X144242706Y-83048986D01*
X144057134Y-82822866D01*
X143831014Y-82637294D01*
X143573034Y-82499401D01*
X143293111Y-82414487D01*
X143002000Y-82385815D01*
X142710890Y-82414487D01*
X142492000Y-82480887D01*
X142492000Y-81094711D01*
X142535937Y-81050774D01*
X142649205Y-80881256D01*
X142727226Y-80692898D01*
X142767000Y-80492939D01*
X142767000Y-80289061D01*
X142727226Y-80089102D01*
X142649205Y-79900744D01*
X142639855Y-79886750D01*
X142772774Y-79797937D01*
X142916937Y-79653774D01*
X143030205Y-79484256D01*
X143108226Y-79295898D01*
X143148000Y-79095939D01*
X143148000Y-78892061D01*
X143108226Y-78692102D01*
X143030205Y-78503744D01*
X142916937Y-78334226D01*
X142873000Y-78290289D01*
X142873000Y-74840322D01*
X142876676Y-74802999D01*
X142873000Y-74765676D01*
X142873000Y-74765667D01*
X142862003Y-74654014D01*
X142818546Y-74510753D01*
X142747974Y-74378724D01*
X142653001Y-74262999D01*
X142624002Y-74239201D01*
X142127000Y-73742199D01*
X142127000Y-72950711D01*
X142170937Y-72906774D01*
X142284205Y-72737256D01*
X142362226Y-72548898D01*
X142402000Y-72348939D01*
X142402000Y-72145061D01*
X142362226Y-71945102D01*
X142284205Y-71756744D01*
X142170937Y-71587226D01*
X142026774Y-71443063D01*
X141857256Y-71329795D01*
X141668898Y-71251774D01*
X141468939Y-71212000D01*
X141265061Y-71212000D01*
X141065102Y-71251774D01*
X140876744Y-71329795D01*
X140707226Y-71443063D01*
X140563063Y-71587226D01*
X140449795Y-71756744D01*
X140371774Y-71945102D01*
X140332000Y-72145061D01*
X140332000Y-72348939D01*
X140371774Y-72548898D01*
X140449795Y-72737256D01*
X140563063Y-72906774D01*
X140607000Y-72950711D01*
X140607001Y-74019668D01*
X140603324Y-74057000D01*
X140617998Y-74205985D01*
X140661454Y-74349246D01*
X140732026Y-74481276D01*
X140803201Y-74568002D01*
X140820091Y-74588582D01*
X140448721Y-74340440D01*
X140014679Y-74160654D01*
X139553902Y-74069000D01*
X139084098Y-74069000D01*
X138623321Y-74160654D01*
X138189279Y-74340440D01*
X137798651Y-74601450D01*
X137466450Y-74933651D01*
X137205440Y-75324279D01*
X137025654Y-75758321D01*
X136934000Y-76219098D01*
X136934000Y-76688902D01*
X137025654Y-77149679D01*
X137205440Y-77583721D01*
X137466450Y-77974349D01*
X137798651Y-78306550D01*
X138189279Y-78567560D01*
X138623321Y-78747346D01*
X139084098Y-78839000D01*
X139553902Y-78839000D01*
X140014679Y-78747346D01*
X140448721Y-78567560D01*
X140839349Y-78306550D01*
X141171550Y-77974349D01*
X141353000Y-77702790D01*
X141353000Y-78290289D01*
X141309063Y-78334226D01*
X141195795Y-78503744D01*
X141117774Y-78692102D01*
X141078000Y-78892061D01*
X141078000Y-79095939D01*
X141117774Y-79295898D01*
X141195795Y-79484256D01*
X141205145Y-79498250D01*
X141072226Y-79587063D01*
X140928063Y-79731226D01*
X140814795Y-79900744D01*
X140736774Y-80089102D01*
X140697000Y-80289061D01*
X140697000Y-80492939D01*
X140736774Y-80692898D01*
X140814795Y-80881256D01*
X140928063Y-81050774D01*
X140972000Y-81094711D01*
X140972000Y-82480887D01*
X140753111Y-82414487D01*
X140462000Y-82385815D01*
X140170890Y-82414487D01*
X139890967Y-82499401D01*
X139632987Y-82637294D01*
X139406867Y-82822866D01*
X139221294Y-83048986D01*
X139190105Y-83107337D01*
X139086176Y-82947381D01*
X138882252Y-82738143D01*
X138641426Y-82572709D01*
X138372953Y-82457437D01*
X138278890Y-82436524D01*
X138049000Y-82557845D01*
X138049000Y-84201000D01*
X138069000Y-84201000D01*
X138069000Y-84455000D01*
X138049000Y-84455000D01*
X138049000Y-86098155D01*
X138278890Y-86219476D01*
X138372953Y-86198563D01*
X138641426Y-86083291D01*
X138882252Y-85917857D01*
X139086176Y-85708619D01*
X139190105Y-85548662D01*
X139221294Y-85607013D01*
X139406866Y-85833134D01*
X139632986Y-86018706D01*
X139890966Y-86156599D01*
X140170889Y-86241513D01*
X140462000Y-86270185D01*
X140753110Y-86241513D01*
X140972000Y-86175113D01*
X140972001Y-92268197D01*
X140332002Y-92908197D01*
X140302999Y-92931999D01*
X140247871Y-92999174D01*
X140208026Y-93047724D01*
X140162704Y-93132515D01*
X140137454Y-93179754D01*
X140093997Y-93323015D01*
X140083000Y-93434668D01*
X140083000Y-93434678D01*
X140079324Y-93472000D01*
X140083000Y-93509323D01*
X140083001Y-97594288D01*
X140055063Y-97622226D01*
X139941795Y-97791744D01*
X139863774Y-97980102D01*
X139824000Y-98180061D01*
X139824000Y-98383939D01*
X139863774Y-98583898D01*
X139941795Y-98772256D01*
X140055063Y-98941774D01*
X140199226Y-99085937D01*
X140368744Y-99199205D01*
X140557102Y-99277226D01*
X140757061Y-99317000D01*
X140960939Y-99317000D01*
X140968472Y-99315502D01*
X140972000Y-99351323D01*
X140972000Y-100260887D01*
X140753111Y-100194487D01*
X140462000Y-100165815D01*
X140170890Y-100194487D01*
X139890967Y-100279401D01*
X139632987Y-100417294D01*
X139406867Y-100602866D01*
X139221294Y-100828986D01*
X139190105Y-100887337D01*
X139086176Y-100727381D01*
X138882252Y-100518143D01*
X138641426Y-100352709D01*
X138372953Y-100237437D01*
X138278890Y-100216524D01*
X138049000Y-100337845D01*
X138049000Y-101981000D01*
X138069000Y-101981000D01*
X138069000Y-102235000D01*
X138049000Y-102235000D01*
X138049000Y-103878155D01*
X138278890Y-103999476D01*
X138372953Y-103978563D01*
X138641426Y-103863291D01*
X138882252Y-103697857D01*
X139086176Y-103488619D01*
X139190105Y-103328662D01*
X139221294Y-103387013D01*
X139406866Y-103613134D01*
X139632986Y-103798706D01*
X139890966Y-103936599D01*
X140170889Y-104021513D01*
X140462000Y-104050185D01*
X140753110Y-104021513D01*
X140972001Y-103955113D01*
X140972001Y-104864668D01*
X140968324Y-104902000D01*
X140972001Y-104939333D01*
X140979553Y-105016003D01*
X140982998Y-105050985D01*
X141026454Y-105194246D01*
X141097026Y-105326276D01*
X141147589Y-105387886D01*
X141192000Y-105442001D01*
X141220998Y-105465799D01*
X141459000Y-105703801D01*
X141459000Y-105765939D01*
X141498774Y-105965898D01*
X141576795Y-106154256D01*
X141690063Y-106323774D01*
X141834226Y-106467937D01*
X142003744Y-106581205D01*
X142192102Y-106659226D01*
X142392061Y-106699000D01*
X142595939Y-106699000D01*
X142795898Y-106659226D01*
X142984256Y-106581205D01*
X143153774Y-106467937D01*
X143297937Y-106323774D01*
X143411205Y-106154256D01*
X143489226Y-105965898D01*
X143529000Y-105765939D01*
X143529000Y-105562061D01*
X143489226Y-105362102D01*
X143411205Y-105173744D01*
X143297937Y-105004226D01*
X143153774Y-104860063D01*
X142984256Y-104746795D01*
X142795898Y-104668774D01*
X142595939Y-104629000D01*
X142533801Y-104629000D01*
X142492000Y-104587199D01*
X142492000Y-103955114D01*
X142710889Y-104021513D01*
X143002000Y-104050185D01*
X143293110Y-104021513D01*
X143573033Y-103936599D01*
X143831013Y-103798706D01*
X144057134Y-103613134D01*
X144242706Y-103387014D01*
X144272000Y-103332208D01*
X144301294Y-103387013D01*
X144486866Y-103613134D01*
X144712986Y-103798706D01*
X144970966Y-103936599D01*
X145250889Y-104021513D01*
X145542000Y-104050185D01*
X145833110Y-104021513D01*
X146113033Y-103936599D01*
X146371013Y-103798706D01*
X146597134Y-103613134D01*
X146782706Y-103387014D01*
X146812000Y-103332208D01*
X146841294Y-103387013D01*
X147026866Y-103613134D01*
X147252986Y-103798706D01*
X147510966Y-103936599D01*
X147790889Y-104021513D01*
X148082000Y-104050185D01*
X148373110Y-104021513D01*
X148592000Y-103955113D01*
X148592000Y-105118678D01*
X148588324Y-105156000D01*
X148592000Y-105193322D01*
X148592000Y-105193332D01*
X148602997Y-105304985D01*
X148635763Y-105413002D01*
X148646454Y-105448246D01*
X148717026Y-105580276D01*
X148746428Y-105616102D01*
X148811999Y-105696001D01*
X148841003Y-105719804D01*
X149210464Y-106089265D01*
X148999421Y-106346422D01*
X148977072Y-106388234D01*
X148977072Y-106215000D01*
X148964812Y-106090518D01*
X148928502Y-105970820D01*
X148869537Y-105860506D01*
X148790185Y-105763815D01*
X148693494Y-105684463D01*
X148583180Y-105625498D01*
X148463482Y-105589188D01*
X148339000Y-105576928D01*
X145539000Y-105576928D01*
X145414518Y-105589188D01*
X145294820Y-105625498D01*
X145184506Y-105684463D01*
X145087815Y-105763815D01*
X145008463Y-105860506D01*
X144949498Y-105970820D01*
X144913188Y-106090518D01*
X144900928Y-106215000D01*
X144900928Y-108415000D01*
X144913188Y-108539482D01*
X144949498Y-108659180D01*
X145008463Y-108769494D01*
X145087815Y-108866185D01*
X145184506Y-108945537D01*
X145294820Y-109004502D01*
X145414518Y-109040812D01*
X145539000Y-109053072D01*
X146179001Y-109053072D01*
X146179001Y-109151288D01*
X146135063Y-109195226D01*
X146021795Y-109364744D01*
X145943774Y-109553102D01*
X145904000Y-109753061D01*
X145904000Y-109956939D01*
X145943774Y-110156898D01*
X146021795Y-110345256D01*
X146135063Y-110514774D01*
X146279226Y-110658937D01*
X146448744Y-110772205D01*
X146637102Y-110850226D01*
X146741541Y-110871000D01*
X116824150Y-110871000D01*
X116992446Y-110837524D01*
X117562979Y-110601201D01*
X118076446Y-110258114D01*
X118513114Y-109821446D01*
X118856201Y-109307979D01*
X119092524Y-108737446D01*
X119213000Y-108131771D01*
X119213000Y-107514229D01*
X119092524Y-106908554D01*
X118856201Y-106338021D01*
X118513114Y-105824554D01*
X118504621Y-105816061D01*
X125203000Y-105816061D01*
X125203000Y-106019939D01*
X125242774Y-106219898D01*
X125320795Y-106408256D01*
X125434063Y-106577774D01*
X125578226Y-106721937D01*
X125747744Y-106835205D01*
X125936102Y-106913226D01*
X126136061Y-106953000D01*
X126339939Y-106953000D01*
X126539898Y-106913226D01*
X126728256Y-106835205D01*
X126897774Y-106721937D01*
X127041937Y-106577774D01*
X127155205Y-106408256D01*
X127233226Y-106219898D01*
X127234200Y-106215000D01*
X128644928Y-106215000D01*
X128644928Y-108415000D01*
X128657188Y-108539482D01*
X128693498Y-108659180D01*
X128752463Y-108769494D01*
X128831815Y-108866185D01*
X128928506Y-108945537D01*
X129038820Y-109004502D01*
X129158518Y-109040812D01*
X129283000Y-109053072D01*
X132083000Y-109053072D01*
X132207482Y-109040812D01*
X132327180Y-109004502D01*
X132437494Y-108945537D01*
X132534185Y-108866185D01*
X132613537Y-108769494D01*
X132672502Y-108659180D01*
X132708812Y-108539482D01*
X132721072Y-108415000D01*
X132721072Y-108241766D01*
X132743421Y-108283578D01*
X132960234Y-108547766D01*
X133224422Y-108764579D01*
X133525832Y-108925686D01*
X133852881Y-109024895D01*
X134107775Y-109050000D01*
X134878225Y-109050000D01*
X135133119Y-109024895D01*
X135460168Y-108925686D01*
X135761578Y-108764579D01*
X136025766Y-108547766D01*
X136242579Y-108283578D01*
X136403686Y-107982168D01*
X136404213Y-107980431D01*
X136489843Y-108173317D01*
X136686367Y-108452027D01*
X136933489Y-108687042D01*
X137221712Y-108869330D01*
X137539959Y-108991886D01*
X137876000Y-109050000D01*
X138176000Y-109050000D01*
X138176000Y-107442000D01*
X138430000Y-107442000D01*
X138430000Y-109050000D01*
X138730000Y-109050000D01*
X139066041Y-108991886D01*
X139384288Y-108869330D01*
X139672511Y-108687042D01*
X139919633Y-108452027D01*
X140116157Y-108173317D01*
X140254531Y-107861622D01*
X140292175Y-107711122D01*
X140174125Y-107442000D01*
X138430000Y-107442000D01*
X138176000Y-107442000D01*
X138156000Y-107442000D01*
X138156000Y-107188000D01*
X138176000Y-107188000D01*
X138176000Y-105580000D01*
X138430000Y-105580000D01*
X138430000Y-107188000D01*
X140174125Y-107188000D01*
X140292175Y-106918878D01*
X140254531Y-106768378D01*
X140116157Y-106456683D01*
X139919633Y-106177973D01*
X139672511Y-105942958D01*
X139384288Y-105760670D01*
X139066041Y-105638114D01*
X138730000Y-105580000D01*
X138430000Y-105580000D01*
X138176000Y-105580000D01*
X137876000Y-105580000D01*
X137539959Y-105638114D01*
X137221712Y-105760670D01*
X136933489Y-105942958D01*
X136686367Y-106177973D01*
X136489843Y-106456683D01*
X136404213Y-106649569D01*
X136403686Y-106647832D01*
X136242579Y-106346422D01*
X136025766Y-106082234D01*
X135761578Y-105865421D01*
X135460168Y-105704314D01*
X135133119Y-105605105D01*
X134878225Y-105580000D01*
X134107775Y-105580000D01*
X133852881Y-105605105D01*
X133525832Y-105704314D01*
X133224422Y-105865421D01*
X132960234Y-106082234D01*
X132743421Y-106346422D01*
X132721072Y-106388234D01*
X132721072Y-106215000D01*
X132708812Y-106090518D01*
X132672502Y-105970820D01*
X132613537Y-105860506D01*
X132534185Y-105763815D01*
X132437494Y-105684463D01*
X132327180Y-105625498D01*
X132207482Y-105589188D01*
X132083000Y-105576928D01*
X129283000Y-105576928D01*
X129158518Y-105589188D01*
X129038820Y-105625498D01*
X128928506Y-105684463D01*
X128831815Y-105763815D01*
X128752463Y-105860506D01*
X128693498Y-105970820D01*
X128657188Y-106090518D01*
X128644928Y-106215000D01*
X127234200Y-106215000D01*
X127273000Y-106019939D01*
X127273000Y-105816061D01*
X127233226Y-105616102D01*
X127155205Y-105427744D01*
X127041937Y-105258226D01*
X126998000Y-105214289D01*
X126998000Y-103833457D01*
X127190966Y-103936599D01*
X127470889Y-104021513D01*
X127762000Y-104050185D01*
X128053110Y-104021513D01*
X128333033Y-103936599D01*
X128591013Y-103798706D01*
X128817134Y-103613134D01*
X129002706Y-103387014D01*
X129032000Y-103332208D01*
X129061294Y-103387013D01*
X129246866Y-103613134D01*
X129472986Y-103798706D01*
X129730966Y-103936599D01*
X130010889Y-104021513D01*
X130302000Y-104050185D01*
X130593110Y-104021513D01*
X130873033Y-103936599D01*
X131131013Y-103798706D01*
X131357134Y-103613134D01*
X131542706Y-103387014D01*
X131572000Y-103332208D01*
X131601294Y-103387013D01*
X131786866Y-103613134D01*
X132012986Y-103798706D01*
X132270966Y-103936599D01*
X132550889Y-104021513D01*
X132842000Y-104050185D01*
X133133110Y-104021513D01*
X133413033Y-103936599D01*
X133671013Y-103798706D01*
X133897134Y-103613134D01*
X134082706Y-103387014D01*
X134112000Y-103332208D01*
X134141294Y-103387013D01*
X134326866Y-103613134D01*
X134552986Y-103798706D01*
X134810966Y-103936599D01*
X135090889Y-104021513D01*
X135382000Y-104050185D01*
X135673110Y-104021513D01*
X135953033Y-103936599D01*
X136211013Y-103798706D01*
X136437134Y-103613134D01*
X136622706Y-103387014D01*
X136653895Y-103328663D01*
X136757824Y-103488619D01*
X136961748Y-103697857D01*
X137202574Y-103863291D01*
X137471047Y-103978563D01*
X137565110Y-103999476D01*
X137795000Y-103878155D01*
X137795000Y-102235000D01*
X137775000Y-102235000D01*
X137775000Y-101981000D01*
X137795000Y-101981000D01*
X137795000Y-100337845D01*
X137565110Y-100216524D01*
X137471047Y-100237437D01*
X137202574Y-100352709D01*
X136961748Y-100518143D01*
X136757824Y-100727381D01*
X136653895Y-100887337D01*
X136622706Y-100828986D01*
X136437134Y-100602866D01*
X136211014Y-100417294D01*
X135953034Y-100279401D01*
X135673111Y-100194487D01*
X135382000Y-100165815D01*
X135090890Y-100194487D01*
X134810967Y-100279401D01*
X134552987Y-100417294D01*
X134326867Y-100602866D01*
X134141294Y-100828986D01*
X134112000Y-100883791D01*
X134082706Y-100828986D01*
X133897134Y-100602866D01*
X133671014Y-100417294D01*
X133602000Y-100380405D01*
X133602000Y-88714711D01*
X133645937Y-88670774D01*
X133759205Y-88501256D01*
X133837226Y-88312898D01*
X133877000Y-88112939D01*
X133877000Y-87909061D01*
X133837226Y-87709102D01*
X133759205Y-87520744D01*
X133645937Y-87351226D01*
X133501774Y-87207063D01*
X133332256Y-87093795D01*
X133143898Y-87015774D01*
X132943939Y-86976000D01*
X132740061Y-86976000D01*
X132540102Y-87015774D01*
X132351744Y-87093795D01*
X132182226Y-87207063D01*
X132038063Y-87351226D01*
X131924795Y-87520744D01*
X131846774Y-87709102D01*
X131807000Y-87909061D01*
X131807000Y-88112939D01*
X131846774Y-88312898D01*
X131924795Y-88501256D01*
X132038063Y-88670774D01*
X132082000Y-88714711D01*
X132082001Y-100380405D01*
X132012987Y-100417294D01*
X131786867Y-100602866D01*
X131601294Y-100828986D01*
X131572000Y-100883791D01*
X131542706Y-100828986D01*
X131357134Y-100602866D01*
X131131014Y-100417294D01*
X130873034Y-100279401D01*
X130593111Y-100194487D01*
X130302000Y-100165815D01*
X130010890Y-100194487D01*
X129730967Y-100279401D01*
X129472987Y-100417294D01*
X129246867Y-100602866D01*
X129061294Y-100828986D01*
X129032000Y-100883791D01*
X129002706Y-100828986D01*
X128817134Y-100602866D01*
X128591014Y-100417294D01*
X128333034Y-100279401D01*
X128053111Y-100194487D01*
X127762000Y-100165815D01*
X127470890Y-100194487D01*
X127252000Y-100260887D01*
X127252000Y-99001711D01*
X127295937Y-98957774D01*
X127409205Y-98788256D01*
X127487226Y-98599898D01*
X127527000Y-98399939D01*
X127527000Y-98196061D01*
X127487226Y-97996102D01*
X127409205Y-97807744D01*
X127295937Y-97638226D01*
X127151774Y-97494063D01*
X126982256Y-97380795D01*
X126793898Y-97302774D01*
X126593939Y-97263000D01*
X126390061Y-97263000D01*
X126190102Y-97302774D01*
X126001744Y-97380795D01*
X125832226Y-97494063D01*
X125688063Y-97638226D01*
X125574795Y-97807744D01*
X125496774Y-97996102D01*
X125457000Y-98196061D01*
X125457000Y-98399939D01*
X125496774Y-98599898D01*
X125574795Y-98788256D01*
X125688063Y-98957774D01*
X125732001Y-99001712D01*
X125732001Y-100262790D01*
X125672953Y-100237437D01*
X125578890Y-100216524D01*
X125349000Y-100337845D01*
X125349000Y-101981000D01*
X125369000Y-101981000D01*
X125369000Y-102235000D01*
X125349000Y-102235000D01*
X125349000Y-103878155D01*
X125478001Y-103946233D01*
X125478000Y-105214289D01*
X125434063Y-105258226D01*
X125320795Y-105427744D01*
X125242774Y-105616102D01*
X125203000Y-105816061D01*
X118504621Y-105816061D01*
X118076446Y-105387886D01*
X117562979Y-105044799D01*
X116992446Y-104808476D01*
X116386771Y-104688000D01*
X115769229Y-104688000D01*
X115163554Y-104808476D01*
X114593021Y-105044799D01*
X114079554Y-105387886D01*
X113642886Y-105824554D01*
X113538000Y-105981527D01*
X113538000Y-101585050D01*
X118657000Y-101585050D01*
X118657000Y-102630949D01*
X118678487Y-102849110D01*
X118763401Y-103129033D01*
X118901294Y-103387013D01*
X119086866Y-103613134D01*
X119312986Y-103798706D01*
X119570966Y-103936599D01*
X119850889Y-104021513D01*
X120142000Y-104050185D01*
X120433110Y-104021513D01*
X120713033Y-103936599D01*
X120971013Y-103798706D01*
X121197134Y-103613134D01*
X121382706Y-103387014D01*
X121412000Y-103332208D01*
X121441294Y-103387013D01*
X121626866Y-103613134D01*
X121852986Y-103798706D01*
X122110966Y-103936599D01*
X122390889Y-104021513D01*
X122682000Y-104050185D01*
X122973110Y-104021513D01*
X123253033Y-103936599D01*
X123511013Y-103798706D01*
X123737134Y-103613134D01*
X123922706Y-103387014D01*
X123953895Y-103328663D01*
X124057824Y-103488619D01*
X124261748Y-103697857D01*
X124502574Y-103863291D01*
X124771047Y-103978563D01*
X124865110Y-103999476D01*
X125095000Y-103878155D01*
X125095000Y-102235000D01*
X125075000Y-102235000D01*
X125075000Y-101981000D01*
X125095000Y-101981000D01*
X125095000Y-100337845D01*
X124865110Y-100216524D01*
X124771047Y-100237437D01*
X124502574Y-100352709D01*
X124261748Y-100518143D01*
X124057824Y-100727381D01*
X123953895Y-100887337D01*
X123922706Y-100828986D01*
X123737134Y-100602866D01*
X123511014Y-100417294D01*
X123442000Y-100380405D01*
X123442000Y-96969711D01*
X123485937Y-96925774D01*
X123599205Y-96756256D01*
X123677226Y-96567898D01*
X123717000Y-96367939D01*
X123717000Y-96164061D01*
X123677226Y-95964102D01*
X123599205Y-95775744D01*
X123485937Y-95606226D01*
X123341774Y-95462063D01*
X123172256Y-95348795D01*
X122983898Y-95270774D01*
X122783939Y-95231000D01*
X122580061Y-95231000D01*
X122380102Y-95270774D01*
X122191744Y-95348795D01*
X122022226Y-95462063D01*
X121878063Y-95606226D01*
X121764795Y-95775744D01*
X121686774Y-95964102D01*
X121647000Y-96164061D01*
X121647000Y-96367939D01*
X121686774Y-96567898D01*
X121764795Y-96756256D01*
X121878063Y-96925774D01*
X121922001Y-96969712D01*
X121922000Y-100380406D01*
X121852987Y-100417294D01*
X121626867Y-100602866D01*
X121441294Y-100828986D01*
X121412000Y-100883791D01*
X121382706Y-100828986D01*
X121197134Y-100602866D01*
X120971014Y-100417294D01*
X120713034Y-100279401D01*
X120433111Y-100194487D01*
X120142000Y-100165815D01*
X119850890Y-100194487D01*
X119570967Y-100279401D01*
X119312987Y-100417294D01*
X119086867Y-100602866D01*
X118901294Y-100828986D01*
X118763401Y-101086966D01*
X118678487Y-101366889D01*
X118657000Y-101585050D01*
X113538000Y-101585050D01*
X113538000Y-95082061D01*
X114601000Y-95082061D01*
X114601000Y-95285939D01*
X114640774Y-95485898D01*
X114718795Y-95674256D01*
X114832063Y-95843774D01*
X114976226Y-95987937D01*
X115145744Y-96101205D01*
X115334102Y-96179226D01*
X115534061Y-96219000D01*
X115737939Y-96219000D01*
X115937898Y-96179226D01*
X116126256Y-96101205D01*
X116295774Y-95987937D01*
X116339711Y-95944000D01*
X119631289Y-95944000D01*
X119675226Y-95987937D01*
X119844744Y-96101205D01*
X120033102Y-96179226D01*
X120233061Y-96219000D01*
X120436939Y-96219000D01*
X120636898Y-96179226D01*
X120825256Y-96101205D01*
X120994774Y-95987937D01*
X121138937Y-95843774D01*
X121252205Y-95674256D01*
X121330226Y-95485898D01*
X121370000Y-95285939D01*
X121370000Y-95082061D01*
X121330226Y-94882102D01*
X121252205Y-94693744D01*
X121138937Y-94524226D01*
X120994774Y-94380063D01*
X120825256Y-94266795D01*
X120636898Y-94188774D01*
X120436939Y-94149000D01*
X120233061Y-94149000D01*
X120033102Y-94188774D01*
X119844744Y-94266795D01*
X119675226Y-94380063D01*
X119631289Y-94424000D01*
X116339711Y-94424000D01*
X116295774Y-94380063D01*
X116126256Y-94266795D01*
X115937898Y-94188774D01*
X115737939Y-94149000D01*
X115534061Y-94149000D01*
X115334102Y-94188774D01*
X115145744Y-94266795D01*
X114976226Y-94380063D01*
X114832063Y-94524226D01*
X114718795Y-94693744D01*
X114640774Y-94882102D01*
X114601000Y-95082061D01*
X113538000Y-95082061D01*
X113538000Y-83805050D01*
X118657000Y-83805050D01*
X118657000Y-84850949D01*
X118678487Y-85069110D01*
X118763401Y-85349033D01*
X118901294Y-85607013D01*
X119086866Y-85833134D01*
X119312986Y-86018706D01*
X119570966Y-86156599D01*
X119850889Y-86241513D01*
X120142000Y-86270185D01*
X120433110Y-86241513D01*
X120713033Y-86156599D01*
X120971013Y-86018706D01*
X121197134Y-85833134D01*
X121382706Y-85607014D01*
X121412000Y-85552208D01*
X121441294Y-85607013D01*
X121626866Y-85833134D01*
X121852986Y-86018706D01*
X122110966Y-86156599D01*
X122390889Y-86241513D01*
X122682000Y-86270185D01*
X122973110Y-86241513D01*
X123253033Y-86156599D01*
X123511013Y-86018706D01*
X123737134Y-85833134D01*
X123922706Y-85607014D01*
X123953895Y-85548663D01*
X124057824Y-85708619D01*
X124261748Y-85917857D01*
X124502574Y-86083291D01*
X124771047Y-86198563D01*
X124865110Y-86219476D01*
X125095000Y-86098155D01*
X125095000Y-84455000D01*
X125075000Y-84455000D01*
X125075000Y-84201000D01*
X125095000Y-84201000D01*
X125095000Y-82557845D01*
X125349000Y-82557845D01*
X125349000Y-84201000D01*
X125369000Y-84201000D01*
X125369000Y-84455000D01*
X125349000Y-84455000D01*
X125349000Y-86098155D01*
X125578890Y-86219476D01*
X125672953Y-86198563D01*
X125941426Y-86083291D01*
X126182252Y-85917857D01*
X126386176Y-85708619D01*
X126490105Y-85548662D01*
X126521294Y-85607013D01*
X126706866Y-85833134D01*
X126932986Y-86018706D01*
X127002001Y-86055595D01*
X127002000Y-91117289D01*
X126958063Y-91161226D01*
X126844795Y-91330744D01*
X126766774Y-91519102D01*
X126727000Y-91719061D01*
X126727000Y-91922939D01*
X126766774Y-92122898D01*
X126844795Y-92311256D01*
X126958063Y-92480774D01*
X127102226Y-92624937D01*
X127271744Y-92738205D01*
X127460102Y-92816226D01*
X127660061Y-92856000D01*
X127863939Y-92856000D01*
X128063898Y-92816226D01*
X128252256Y-92738205D01*
X128421774Y-92624937D01*
X128565937Y-92480774D01*
X128679205Y-92311256D01*
X128757226Y-92122898D01*
X128797000Y-91922939D01*
X128797000Y-91719061D01*
X128757226Y-91519102D01*
X128679205Y-91330744D01*
X128565937Y-91161226D01*
X128522000Y-91117289D01*
X128522000Y-86055594D01*
X128591013Y-86018706D01*
X128817134Y-85833134D01*
X129002706Y-85607014D01*
X129032000Y-85552208D01*
X129061294Y-85607013D01*
X129246866Y-85833134D01*
X129472986Y-86018706D01*
X129730966Y-86156599D01*
X130010889Y-86241513D01*
X130302000Y-86270185D01*
X130593110Y-86241513D01*
X130873033Y-86156599D01*
X131131013Y-86018706D01*
X131357134Y-85833134D01*
X131542706Y-85607014D01*
X131572000Y-85552208D01*
X131601294Y-85607013D01*
X131786866Y-85833134D01*
X132012986Y-86018706D01*
X132270966Y-86156599D01*
X132550889Y-86241513D01*
X132842000Y-86270185D01*
X133133110Y-86241513D01*
X133413033Y-86156599D01*
X133671013Y-86018706D01*
X133897134Y-85833134D01*
X134082706Y-85607014D01*
X134112000Y-85552208D01*
X134141294Y-85607013D01*
X134326866Y-85833134D01*
X134552986Y-86018706D01*
X134810966Y-86156599D01*
X135090889Y-86241513D01*
X135382000Y-86270185D01*
X135673110Y-86241513D01*
X135953033Y-86156599D01*
X136211013Y-86018706D01*
X136437134Y-85833134D01*
X136622706Y-85607014D01*
X136653895Y-85548663D01*
X136757824Y-85708619D01*
X136961748Y-85917857D01*
X137202574Y-86083291D01*
X137471047Y-86198563D01*
X137565110Y-86219476D01*
X137795000Y-86098155D01*
X137795000Y-84455000D01*
X137775000Y-84455000D01*
X137775000Y-84201000D01*
X137795000Y-84201000D01*
X137795000Y-82557845D01*
X137565110Y-82436524D01*
X137471047Y-82457437D01*
X137202574Y-82572709D01*
X136961748Y-82738143D01*
X136757824Y-82947381D01*
X136653895Y-83107337D01*
X136622706Y-83048986D01*
X136437134Y-82822866D01*
X136211014Y-82637294D01*
X135953034Y-82499401D01*
X135673111Y-82414487D01*
X135382000Y-82385815D01*
X135090890Y-82414487D01*
X134810967Y-82499401D01*
X134552987Y-82637294D01*
X134326867Y-82822866D01*
X134141294Y-83048986D01*
X134112000Y-83103791D01*
X134082706Y-83048986D01*
X133897134Y-82822866D01*
X133671014Y-82637294D01*
X133413034Y-82499401D01*
X133133111Y-82414487D01*
X132842000Y-82385815D01*
X132550890Y-82414487D01*
X132270967Y-82499401D01*
X132012987Y-82637294D01*
X131786867Y-82822866D01*
X131601294Y-83048986D01*
X131572000Y-83103791D01*
X131542706Y-83048986D01*
X131357134Y-82822866D01*
X131131014Y-82637294D01*
X130873034Y-82499401D01*
X130593111Y-82414487D01*
X130302000Y-82385815D01*
X130010890Y-82414487D01*
X129730967Y-82499401D01*
X129472987Y-82637294D01*
X129246867Y-82822866D01*
X129061294Y-83048986D01*
X129032000Y-83103791D01*
X129002706Y-83048986D01*
X128817134Y-82822866D01*
X128591014Y-82637294D01*
X128333034Y-82499401D01*
X128053111Y-82414487D01*
X127762000Y-82385815D01*
X127470890Y-82414487D01*
X127190967Y-82499401D01*
X126932987Y-82637294D01*
X126706867Y-82822866D01*
X126521294Y-83048986D01*
X126490105Y-83107337D01*
X126386176Y-82947381D01*
X126182252Y-82738143D01*
X125941426Y-82572709D01*
X125672953Y-82457437D01*
X125578890Y-82436524D01*
X125349000Y-82557845D01*
X125095000Y-82557845D01*
X124865110Y-82436524D01*
X124771047Y-82457437D01*
X124502574Y-82572709D01*
X124261748Y-82738143D01*
X124057824Y-82947381D01*
X123953895Y-83107337D01*
X123922706Y-83048986D01*
X123737134Y-82822866D01*
X123511014Y-82637294D01*
X123253034Y-82499401D01*
X122973111Y-82414487D01*
X122682000Y-82385815D01*
X122390890Y-82414487D01*
X122110967Y-82499401D01*
X121852987Y-82637294D01*
X121626867Y-82822866D01*
X121441294Y-83048986D01*
X121412000Y-83103791D01*
X121382706Y-83048986D01*
X121197134Y-82822866D01*
X120971014Y-82637294D01*
X120713034Y-82499401D01*
X120433111Y-82414487D01*
X120142000Y-82385815D01*
X119850890Y-82414487D01*
X119570967Y-82499401D01*
X119312987Y-82637294D01*
X119086867Y-82822866D01*
X118901294Y-83048986D01*
X118763401Y-83306966D01*
X118678487Y-83586889D01*
X118657000Y-83805050D01*
X113538000Y-83805050D01*
X113538000Y-76219098D01*
X114963000Y-76219098D01*
X114963000Y-76688902D01*
X115054654Y-77149679D01*
X115234440Y-77583721D01*
X115495450Y-77974349D01*
X115827651Y-78306550D01*
X116218279Y-78567560D01*
X116652321Y-78747346D01*
X117113098Y-78839000D01*
X117582902Y-78839000D01*
X118043679Y-78747346D01*
X118477721Y-78567560D01*
X118868349Y-78306550D01*
X119200550Y-77974349D01*
X119461560Y-77583721D01*
X119641346Y-77149679D01*
X119733000Y-76688902D01*
X119733000Y-76478050D01*
X123056000Y-76478050D01*
X123056000Y-77423949D01*
X123077487Y-77642110D01*
X123162401Y-77922033D01*
X123300294Y-78180013D01*
X123485866Y-78406134D01*
X123711986Y-78591706D01*
X123969966Y-78729599D01*
X124249889Y-78814513D01*
X124541000Y-78843185D01*
X124832110Y-78814513D01*
X125112033Y-78729599D01*
X125370013Y-78591706D01*
X125596134Y-78406134D01*
X125781706Y-78180014D01*
X125811000Y-78125208D01*
X125840294Y-78180013D01*
X126025866Y-78406134D01*
X126251986Y-78591706D01*
X126509966Y-78729599D01*
X126789889Y-78814513D01*
X127081000Y-78843185D01*
X127372110Y-78814513D01*
X127652033Y-78729599D01*
X127910013Y-78591706D01*
X128136134Y-78406134D01*
X128321706Y-78180014D01*
X128351000Y-78125208D01*
X128380294Y-78180013D01*
X128565866Y-78406134D01*
X128791986Y-78591706D01*
X129049966Y-78729599D01*
X129329889Y-78814513D01*
X129621000Y-78843185D01*
X129912110Y-78814513D01*
X130192033Y-78729599D01*
X130450013Y-78591706D01*
X130676134Y-78406134D01*
X130861706Y-78180014D01*
X130892895Y-78121663D01*
X130996824Y-78281619D01*
X131200748Y-78490857D01*
X131441574Y-78656291D01*
X131710047Y-78771563D01*
X131804110Y-78792476D01*
X132034000Y-78671155D01*
X132034000Y-77078000D01*
X132288000Y-77078000D01*
X132288000Y-78671155D01*
X132517890Y-78792476D01*
X132611953Y-78771563D01*
X132880426Y-78656291D01*
X133121252Y-78490857D01*
X133325176Y-78281619D01*
X133484361Y-78036618D01*
X133592690Y-77765269D01*
X133646000Y-77478000D01*
X133646000Y-77078000D01*
X132288000Y-77078000D01*
X132034000Y-77078000D01*
X132014000Y-77078000D01*
X132014000Y-76824000D01*
X132034000Y-76824000D01*
X132034000Y-75230845D01*
X132288000Y-75230845D01*
X132288000Y-76824000D01*
X133646000Y-76824000D01*
X133646000Y-76424000D01*
X133592690Y-76136731D01*
X133484361Y-75865382D01*
X133325176Y-75620381D01*
X133121252Y-75411143D01*
X132880426Y-75245709D01*
X132611953Y-75130437D01*
X132517890Y-75109524D01*
X132288000Y-75230845D01*
X132034000Y-75230845D01*
X131804110Y-75109524D01*
X131710047Y-75130437D01*
X131441574Y-75245709D01*
X131200748Y-75411143D01*
X130996824Y-75620381D01*
X130892895Y-75780337D01*
X130861706Y-75721986D01*
X130676134Y-75495866D01*
X130450014Y-75310294D01*
X130447000Y-75308683D01*
X130447000Y-70914711D01*
X130490937Y-70870774D01*
X130604205Y-70701256D01*
X130682226Y-70512898D01*
X130722000Y-70312939D01*
X130722000Y-70145061D01*
X142840000Y-70145061D01*
X142840000Y-70348939D01*
X142879774Y-70548898D01*
X142957795Y-70737256D01*
X143071063Y-70906774D01*
X143215226Y-71050937D01*
X143384744Y-71164205D01*
X143573102Y-71242226D01*
X143773061Y-71282000D01*
X143976939Y-71282000D01*
X144176898Y-71242226D01*
X144365256Y-71164205D01*
X144534774Y-71050937D01*
X144678937Y-70906774D01*
X144792205Y-70737256D01*
X144870226Y-70548898D01*
X144910000Y-70348939D01*
X144910000Y-70145061D01*
X144870226Y-69945102D01*
X144792205Y-69756744D01*
X144678937Y-69587226D01*
X144534774Y-69443063D01*
X144365256Y-69329795D01*
X144176898Y-69251774D01*
X143976939Y-69212000D01*
X143773061Y-69212000D01*
X143573102Y-69251774D01*
X143384744Y-69329795D01*
X143215226Y-69443063D01*
X143071063Y-69587226D01*
X142957795Y-69756744D01*
X142879774Y-69945102D01*
X142840000Y-70145061D01*
X130722000Y-70145061D01*
X130722000Y-70109061D01*
X130682226Y-69909102D01*
X130604205Y-69720744D01*
X130490937Y-69551226D01*
X130346774Y-69407063D01*
X130177256Y-69293795D01*
X129988898Y-69215774D01*
X129788939Y-69176000D01*
X129585061Y-69176000D01*
X129385102Y-69215774D01*
X129196744Y-69293795D01*
X129027226Y-69407063D01*
X128883063Y-69551226D01*
X128769795Y-69720744D01*
X128691774Y-69909102D01*
X128652000Y-70109061D01*
X128652000Y-70312939D01*
X128691774Y-70512898D01*
X128769795Y-70701256D01*
X128883063Y-70870774D01*
X128927000Y-70914711D01*
X128927001Y-75238128D01*
X128791987Y-75310294D01*
X128565866Y-75495866D01*
X128380294Y-75721986D01*
X128351000Y-75776791D01*
X128321706Y-75721986D01*
X128136134Y-75495866D01*
X127910014Y-75310294D01*
X127903000Y-75306545D01*
X127903000Y-72950711D01*
X127946937Y-72906774D01*
X128060205Y-72737256D01*
X128138226Y-72548898D01*
X128178000Y-72348939D01*
X128178000Y-72145061D01*
X128138226Y-71945102D01*
X128060205Y-71756744D01*
X127946937Y-71587226D01*
X127802774Y-71443063D01*
X127633256Y-71329795D01*
X127444898Y-71251774D01*
X127244939Y-71212000D01*
X127041061Y-71212000D01*
X126841102Y-71251774D01*
X126652744Y-71329795D01*
X126483226Y-71443063D01*
X126339063Y-71587226D01*
X126225795Y-71756744D01*
X126147774Y-71945102D01*
X126108000Y-72145061D01*
X126108000Y-72348939D01*
X126147774Y-72548898D01*
X126225795Y-72737256D01*
X126339063Y-72906774D01*
X126383000Y-72950711D01*
X126383001Y-75240266D01*
X126251987Y-75310294D01*
X126025866Y-75495866D01*
X125840294Y-75721986D01*
X125811000Y-75776791D01*
X125781706Y-75721986D01*
X125596134Y-75495866D01*
X125370014Y-75310294D01*
X125112034Y-75172401D01*
X124832111Y-75087487D01*
X124541000Y-75058815D01*
X124249890Y-75087487D01*
X123969967Y-75172401D01*
X123711987Y-75310294D01*
X123485866Y-75495866D01*
X123300294Y-75721986D01*
X123162401Y-75979966D01*
X123077487Y-76259889D01*
X123056000Y-76478050D01*
X119733000Y-76478050D01*
X119733000Y-76219098D01*
X119641346Y-75758321D01*
X119461560Y-75324279D01*
X119200550Y-74933651D01*
X118868349Y-74601450D01*
X118477721Y-74340440D01*
X118043679Y-74160654D01*
X117582902Y-74069000D01*
X117113098Y-74069000D01*
X116652321Y-74160654D01*
X116218279Y-74340440D01*
X115827651Y-74601450D01*
X115495450Y-74933651D01*
X115234440Y-75324279D01*
X115054654Y-75758321D01*
X114963000Y-76219098D01*
X113538000Y-76219098D01*
X113538000Y-66573061D01*
X144634000Y-66573061D01*
X144634000Y-66776939D01*
X144673774Y-66976898D01*
X144751795Y-67165256D01*
X144865063Y-67334774D01*
X145009226Y-67478937D01*
X145178744Y-67592205D01*
X145367102Y-67670226D01*
X145567061Y-67710000D01*
X145770939Y-67710000D01*
X145970898Y-67670226D01*
X146159256Y-67592205D01*
X146328774Y-67478937D01*
X146472937Y-67334774D01*
X146586205Y-67165256D01*
X146664226Y-66976898D01*
X146704000Y-66776939D01*
X146704000Y-66573061D01*
X146664226Y-66373102D01*
X146586205Y-66184744D01*
X146480000Y-66025797D01*
X146480000Y-63771711D01*
X146523937Y-63727774D01*
X146637205Y-63558256D01*
X146715226Y-63369898D01*
X146755000Y-63169939D01*
X146755000Y-62966061D01*
X146715226Y-62766102D01*
X146637205Y-62577744D01*
X146523937Y-62408226D01*
X146379774Y-62264063D01*
X146210256Y-62150795D01*
X146021898Y-62072774D01*
X145821939Y-62033000D01*
X145618061Y-62033000D01*
X145418102Y-62072774D01*
X145229744Y-62150795D01*
X145060226Y-62264063D01*
X144916063Y-62408226D01*
X144802795Y-62577744D01*
X144724774Y-62766102D01*
X144685000Y-62966061D01*
X144685000Y-63169939D01*
X144724774Y-63369898D01*
X144802795Y-63558256D01*
X144916063Y-63727774D01*
X144960000Y-63771711D01*
X144960001Y-65920288D01*
X144865063Y-66015226D01*
X144751795Y-66184744D01*
X144673774Y-66373102D01*
X144634000Y-66573061D01*
X113538000Y-66573061D01*
X113538000Y-60815485D01*
X155130500Y-60815485D01*
X155153470Y-61048703D01*
X155244245Y-61347948D01*
X155391655Y-61623734D01*
X155590037Y-61865463D01*
X155831765Y-62063845D01*
X156107551Y-62211255D01*
X156406796Y-62302030D01*
X156718000Y-62332681D01*
X157029203Y-62302030D01*
X157328448Y-62211255D01*
X157604234Y-62063845D01*
X157845963Y-61865463D01*
X157987789Y-61692648D01*
X158008599Y-61725065D01*
X158225270Y-61949835D01*
X158481628Y-62128016D01*
X158767822Y-62252760D01*
X158885020Y-62280563D01*
X159131000Y-62160594D01*
X159131000Y-59817000D01*
X159111000Y-59817000D01*
X159111000Y-59563000D01*
X159131000Y-59563000D01*
X159131000Y-57219406D01*
X158885020Y-57099437D01*
X158767822Y-57127240D01*
X158481628Y-57251984D01*
X158225270Y-57430165D01*
X158008599Y-57654935D01*
X157987789Y-57687352D01*
X157845963Y-57514537D01*
X157604235Y-57316155D01*
X157328449Y-57168745D01*
X157029204Y-57077970D01*
X156718000Y-57047319D01*
X156406797Y-57077970D01*
X156107552Y-57168745D01*
X155831766Y-57316155D01*
X155590038Y-57514537D01*
X155391656Y-57756265D01*
X155244246Y-58032051D01*
X155153471Y-58331296D01*
X155130501Y-58564514D01*
X155130500Y-60815485D01*
X113538000Y-60815485D01*
X113538000Y-56902687D01*
X143509936Y-56902687D01*
X143630597Y-57344120D01*
X143835058Y-57753531D01*
X144115463Y-58115187D01*
X144461036Y-58415190D01*
X144858496Y-58642011D01*
X145292570Y-58786933D01*
X145321070Y-58793832D01*
X145684240Y-58683401D01*
X145684240Y-56537860D01*
X145938240Y-56537860D01*
X145938240Y-58683401D01*
X146301410Y-58793832D01*
X146329910Y-58786933D01*
X146763984Y-58642011D01*
X147161444Y-58415190D01*
X147507017Y-58115187D01*
X147787422Y-57753531D01*
X147991883Y-57344120D01*
X148112544Y-56902687D01*
X147986756Y-56537860D01*
X145938240Y-56537860D01*
X145684240Y-56537860D01*
X143635724Y-56537860D01*
X143509936Y-56902687D01*
X113538000Y-56902687D01*
X113538000Y-54248098D01*
X114963000Y-54248098D01*
X114963000Y-54717902D01*
X115054654Y-55178679D01*
X115234440Y-55612721D01*
X115495450Y-56003349D01*
X115827651Y-56335550D01*
X116218279Y-56596560D01*
X116652321Y-56776346D01*
X117113098Y-56868000D01*
X117582902Y-56868000D01*
X118043679Y-56776346D01*
X118477721Y-56596560D01*
X118868349Y-56335550D01*
X119200550Y-56003349D01*
X119461560Y-55612721D01*
X119641346Y-55178679D01*
X119733000Y-54717902D01*
X119733000Y-54248098D01*
X136934000Y-54248098D01*
X136934000Y-54717902D01*
X137025654Y-55178679D01*
X137205440Y-55612721D01*
X137466450Y-56003349D01*
X137798651Y-56335550D01*
X138189279Y-56596560D01*
X138623321Y-56776346D01*
X139084098Y-56868000D01*
X139553902Y-56868000D01*
X140014679Y-56776346D01*
X140448721Y-56596560D01*
X140839349Y-56335550D01*
X141171550Y-56003349D01*
X141227888Y-55919033D01*
X143509936Y-55919033D01*
X143635724Y-56283860D01*
X145684240Y-56283860D01*
X145684240Y-54138319D01*
X145938240Y-54138319D01*
X145938240Y-56283860D01*
X147986756Y-56283860D01*
X148112544Y-55919033D01*
X147991883Y-55477600D01*
X147787422Y-55068189D01*
X147507017Y-54706533D01*
X147396812Y-54610860D01*
X148553168Y-54610860D01*
X148553168Y-58210860D01*
X148565428Y-58335342D01*
X148601738Y-58455040D01*
X148660703Y-58565354D01*
X148740055Y-58662045D01*
X148836746Y-58741397D01*
X148947060Y-58800362D01*
X149066758Y-58836672D01*
X149191240Y-58848932D01*
X152591240Y-58848932D01*
X152715722Y-58836672D01*
X152835420Y-58800362D01*
X152945734Y-58741397D01*
X153042425Y-58662045D01*
X153121777Y-58565354D01*
X153180742Y-58455040D01*
X153217052Y-58335342D01*
X153229312Y-58210860D01*
X153229312Y-54610860D01*
X153217052Y-54486378D01*
X153180742Y-54366680D01*
X153121777Y-54256366D01*
X153042425Y-54159675D01*
X152945734Y-54080323D01*
X152835420Y-54021358D01*
X152715722Y-53985048D01*
X152591240Y-53972788D01*
X149191240Y-53972788D01*
X149066758Y-53985048D01*
X148947060Y-54021358D01*
X148836746Y-54080323D01*
X148740055Y-54159675D01*
X148660703Y-54256366D01*
X148601738Y-54366680D01*
X148565428Y-54486378D01*
X148553168Y-54610860D01*
X147396812Y-54610860D01*
X147161444Y-54406530D01*
X146763984Y-54179709D01*
X146329910Y-54034787D01*
X146301410Y-54027888D01*
X145938240Y-54138319D01*
X145684240Y-54138319D01*
X145321070Y-54027888D01*
X145292570Y-54034787D01*
X144858496Y-54179709D01*
X144461036Y-54406530D01*
X144115463Y-54706533D01*
X143835058Y-55068189D01*
X143630597Y-55477600D01*
X143509936Y-55919033D01*
X141227888Y-55919033D01*
X141432560Y-55612721D01*
X141612346Y-55178679D01*
X141704000Y-54717902D01*
X141704000Y-54248098D01*
X141612346Y-53787321D01*
X141432560Y-53353279D01*
X141171550Y-52962651D01*
X140839349Y-52630450D01*
X140448721Y-52369440D01*
X140014679Y-52189654D01*
X139553902Y-52098000D01*
X139084098Y-52098000D01*
X138623321Y-52189654D01*
X138189279Y-52369440D01*
X137798651Y-52630450D01*
X137466450Y-52962651D01*
X137205440Y-53353279D01*
X137025654Y-53787321D01*
X136934000Y-54248098D01*
X119733000Y-54248098D01*
X119641346Y-53787321D01*
X119461560Y-53353279D01*
X119200550Y-52962651D01*
X118868349Y-52630450D01*
X118477721Y-52369440D01*
X118043679Y-52189654D01*
X117582902Y-52098000D01*
X117113098Y-52098000D01*
X116652321Y-52189654D01*
X116218279Y-52369440D01*
X115827651Y-52630450D01*
X115495450Y-52962651D01*
X115234440Y-53353279D01*
X115054654Y-53787321D01*
X114963000Y-54248098D01*
X113538000Y-54248098D01*
X113538000Y-51562347D01*
X159893000Y-51688655D01*
%TA.AperFunction,Conductor*%
D30*
G36*
X159893000Y-51688655D02*
G01*
X159893000Y-57190364D01*
X159748178Y-57127240D01*
X159630980Y-57099437D01*
X159385000Y-57219406D01*
X159385000Y-59563000D01*
X159405000Y-59563000D01*
X159405000Y-59817000D01*
X159385000Y-59817000D01*
X159385000Y-62160594D01*
X159630980Y-62280563D01*
X159748178Y-62252760D01*
X159893000Y-62189636D01*
X159893000Y-74912981D01*
X159879795Y-74932744D01*
X159801774Y-75121102D01*
X159762000Y-75321061D01*
X159762000Y-75524939D01*
X159801774Y-75724898D01*
X159879795Y-75913256D01*
X159893000Y-75933019D01*
X159893000Y-82686524D01*
X159726867Y-82822866D01*
X159541294Y-83048986D01*
X159512000Y-83103791D01*
X159482706Y-83048986D01*
X159297134Y-82822866D01*
X159071014Y-82637294D01*
X158813034Y-82499401D01*
X158533111Y-82414487D01*
X158242000Y-82385815D01*
X157950890Y-82414487D01*
X157670967Y-82499401D01*
X157412987Y-82637294D01*
X157186867Y-82822866D01*
X157001294Y-83048986D01*
X156972000Y-83103791D01*
X156942706Y-83048986D01*
X156757134Y-82822866D01*
X156531014Y-82637294D01*
X156462000Y-82600405D01*
X156462000Y-79400061D01*
X157207000Y-79400061D01*
X157207000Y-79603939D01*
X157246774Y-79803898D01*
X157324795Y-79992256D01*
X157438063Y-80161774D01*
X157582226Y-80305937D01*
X157751744Y-80419205D01*
X157940102Y-80497226D01*
X158140061Y-80537000D01*
X158343939Y-80537000D01*
X158543898Y-80497226D01*
X158732256Y-80419205D01*
X158901774Y-80305937D01*
X159045937Y-80161774D01*
X159159205Y-79992256D01*
X159237226Y-79803898D01*
X159277000Y-79603939D01*
X159277000Y-79400061D01*
X159237226Y-79200102D01*
X159159205Y-79011744D01*
X159045937Y-78842226D01*
X158901774Y-78698063D01*
X158732256Y-78584795D01*
X158543898Y-78506774D01*
X158343939Y-78467000D01*
X158140061Y-78467000D01*
X157940102Y-78506774D01*
X157751744Y-78584795D01*
X157582226Y-78698063D01*
X157438063Y-78842226D01*
X157324795Y-79011744D01*
X157246774Y-79200102D01*
X157207000Y-79400061D01*
X156462000Y-79400061D01*
X156462000Y-74490711D01*
X156505937Y-74446774D01*
X156619205Y-74277256D01*
X156697226Y-74088898D01*
X156737000Y-73888939D01*
X156737000Y-73685061D01*
X156697226Y-73485102D01*
X156640781Y-73348832D01*
X156878307Y-73391135D01*
X157099000Y-73232282D01*
X157099000Y-72116000D01*
X157353000Y-72116000D01*
X157353000Y-73232282D01*
X157573693Y-73391135D01*
X157845128Y-73342793D01*
X158101917Y-73242426D01*
X158334191Y-73093890D01*
X158533024Y-72902894D01*
X158690775Y-72676778D01*
X158801382Y-72424231D01*
X158818220Y-72332070D01*
X158695720Y-72116000D01*
X157353000Y-72116000D01*
X157099000Y-72116000D01*
X155756280Y-72116000D01*
X155633780Y-72332070D01*
X155650618Y-72424231D01*
X155761225Y-72676778D01*
X155815277Y-72754255D01*
X155803939Y-72752000D01*
X155600061Y-72752000D01*
X155400102Y-72791774D01*
X155339000Y-72817083D01*
X155339000Y-70192711D01*
X155382937Y-70148774D01*
X155496205Y-69979256D01*
X155574226Y-69790898D01*
X155587928Y-69722013D01*
X155587928Y-70239000D01*
X155600188Y-70363482D01*
X155636498Y-70483180D01*
X155695463Y-70593494D01*
X155774815Y-70690185D01*
X155871506Y-70769537D01*
X155981820Y-70828502D01*
X156101518Y-70864812D01*
X156141785Y-70868778D01*
X156117809Y-70884110D01*
X155918976Y-71075106D01*
X155761225Y-71301222D01*
X155650618Y-71553769D01*
X155633780Y-71645930D01*
X155756280Y-71862000D01*
X157099000Y-71862000D01*
X157099000Y-71842000D01*
X157353000Y-71842000D01*
X157353000Y-71862000D01*
X158695720Y-71862000D01*
X158818220Y-71645930D01*
X158801382Y-71553769D01*
X158690775Y-71301222D01*
X158533024Y-71075106D01*
X158334191Y-70884110D01*
X158310215Y-70868778D01*
X158350482Y-70864812D01*
X158470180Y-70828502D01*
X158580494Y-70769537D01*
X158677185Y-70690185D01*
X158756537Y-70593494D01*
X158815502Y-70483180D01*
X158851812Y-70363482D01*
X158864072Y-70239000D01*
X158864072Y-68739000D01*
X158851812Y-68614518D01*
X158815502Y-68494820D01*
X158756537Y-68384506D01*
X158677185Y-68287815D01*
X158580494Y-68208463D01*
X158470180Y-68149498D01*
X158350482Y-68113188D01*
X158226000Y-68100928D01*
X158025783Y-68100928D01*
X158029937Y-68096774D01*
X158143205Y-67927256D01*
X158221226Y-67738898D01*
X158261000Y-67538939D01*
X158261000Y-67335061D01*
X158221226Y-67135102D01*
X158143205Y-66946744D01*
X158029937Y-66777226D01*
X157986000Y-66733289D01*
X157986000Y-66235711D01*
X158029937Y-66191774D01*
X158143205Y-66022256D01*
X158221226Y-65833898D01*
X158261000Y-65633939D01*
X158261000Y-65430061D01*
X158221226Y-65230102D01*
X158143205Y-65041744D01*
X158029937Y-64872226D01*
X157885774Y-64728063D01*
X157716256Y-64614795D01*
X157527898Y-64536774D01*
X157327939Y-64497000D01*
X157124061Y-64497000D01*
X156924102Y-64536774D01*
X156735744Y-64614795D01*
X156566226Y-64728063D01*
X156422063Y-64872226D01*
X156308795Y-65041744D01*
X156230774Y-65230102D01*
X156191000Y-65430061D01*
X156191000Y-65633939D01*
X156230774Y-65833898D01*
X156308795Y-66022256D01*
X156422063Y-66191774D01*
X156466001Y-66235712D01*
X156466000Y-66733289D01*
X156422063Y-66777226D01*
X156308795Y-66946744D01*
X156230774Y-67135102D01*
X156191000Y-67335061D01*
X156191000Y-67538939D01*
X156230774Y-67738898D01*
X156308795Y-67927256D01*
X156422063Y-68096774D01*
X156426217Y-68100928D01*
X156226000Y-68100928D01*
X156101518Y-68113188D01*
X155981820Y-68149498D01*
X155871506Y-68208463D01*
X155774815Y-68287815D01*
X155695463Y-68384506D01*
X155636498Y-68494820D01*
X155600188Y-68614518D01*
X155587928Y-68739000D01*
X155587928Y-69255987D01*
X155574226Y-69187102D01*
X155496205Y-68998744D01*
X155382937Y-68829226D01*
X155238774Y-68685063D01*
X155069256Y-68571795D01*
X154880898Y-68493774D01*
X154680939Y-68454000D01*
X154477061Y-68454000D01*
X154277102Y-68493774D01*
X154088744Y-68571795D01*
X153919226Y-68685063D01*
X153775063Y-68829226D01*
X153661795Y-68998744D01*
X153583774Y-69187102D01*
X153544000Y-69387061D01*
X153544000Y-69590939D01*
X153583774Y-69790898D01*
X153661795Y-69979256D01*
X153775063Y-70148774D01*
X153819000Y-70192711D01*
X153819001Y-80175288D01*
X153775063Y-80219226D01*
X153661795Y-80388744D01*
X153583774Y-80577102D01*
X153544000Y-80777061D01*
X153544000Y-80980939D01*
X153583774Y-81180898D01*
X153661795Y-81369256D01*
X153775063Y-81538774D01*
X153919226Y-81682937D01*
X154088744Y-81796205D01*
X154277102Y-81874226D01*
X154477061Y-81914000D01*
X154680939Y-81914000D01*
X154880898Y-81874226D01*
X154942001Y-81848916D01*
X154942001Y-82600405D01*
X154872987Y-82637294D01*
X154646867Y-82822866D01*
X154461294Y-83048986D01*
X154432000Y-83103791D01*
X154402706Y-83048986D01*
X154217134Y-82822866D01*
X153991014Y-82637294D01*
X153733034Y-82499401D01*
X153453111Y-82414487D01*
X153162000Y-82385815D01*
X152870890Y-82414487D01*
X152590967Y-82499401D01*
X152332987Y-82637294D01*
X152106867Y-82822866D01*
X151921294Y-83048986D01*
X151890105Y-83107337D01*
X151786176Y-82947381D01*
X151582252Y-82738143D01*
X151341426Y-82572709D01*
X151072953Y-82457437D01*
X150978890Y-82436524D01*
X150749000Y-82557845D01*
X150749000Y-84201000D01*
X150769000Y-84201000D01*
X150769000Y-84455000D01*
X150749000Y-84455000D01*
X150749000Y-86098155D01*
X150978890Y-86219476D01*
X151072953Y-86198563D01*
X151341426Y-86083291D01*
X151582252Y-85917857D01*
X151786176Y-85708619D01*
X151890105Y-85548662D01*
X151921294Y-85607013D01*
X152106866Y-85833134D01*
X152332986Y-86018706D01*
X152590966Y-86156599D01*
X152870889Y-86241513D01*
X153162000Y-86270185D01*
X153453110Y-86241513D01*
X153733033Y-86156599D01*
X153991013Y-86018706D01*
X154217134Y-85833134D01*
X154402706Y-85607014D01*
X154432000Y-85552208D01*
X154461294Y-85607013D01*
X154646866Y-85833134D01*
X154872986Y-86018706D01*
X155130966Y-86156599D01*
X155410889Y-86241513D01*
X155702000Y-86270185D01*
X155993110Y-86241513D01*
X156273033Y-86156599D01*
X156531013Y-86018706D01*
X156757134Y-85833134D01*
X156942706Y-85607014D01*
X156972000Y-85552208D01*
X157001294Y-85607013D01*
X157186866Y-85833134D01*
X157412986Y-86018706D01*
X157670966Y-86156599D01*
X157950889Y-86241513D01*
X158242000Y-86270185D01*
X158533110Y-86241513D01*
X158813033Y-86156599D01*
X159071013Y-86018706D01*
X159297134Y-85833134D01*
X159482706Y-85607014D01*
X159512000Y-85552208D01*
X159541294Y-85607013D01*
X159726866Y-85833134D01*
X159893000Y-85969477D01*
X159893000Y-92329000D01*
X159895440Y-92353776D01*
X159902667Y-92377601D01*
X159914403Y-92399557D01*
X159930197Y-92418803D01*
X159949443Y-92434597D01*
X159971399Y-92446333D01*
X159995224Y-92453560D01*
X160020000Y-92456000D01*
X165007010Y-92456000D01*
X165007011Y-97562278D01*
X164963073Y-97606216D01*
X164849805Y-97775734D01*
X164771784Y-97964092D01*
X164732010Y-98164051D01*
X164732010Y-98367929D01*
X164771784Y-98567888D01*
X164849805Y-98756246D01*
X164963073Y-98925764D01*
X165007010Y-98969701D01*
X165007011Y-100438612D01*
X164806867Y-100602866D01*
X164621294Y-100828986D01*
X164590105Y-100887337D01*
X164486176Y-100727381D01*
X164282252Y-100518143D01*
X164041426Y-100352709D01*
X163772953Y-100237437D01*
X163678890Y-100216524D01*
X163449000Y-100337845D01*
X163449000Y-101981000D01*
X163469000Y-101981000D01*
X163469000Y-102235000D01*
X163449000Y-102235000D01*
X163449000Y-103878155D01*
X163678890Y-103999476D01*
X163772953Y-103978563D01*
X164041426Y-103863291D01*
X164282252Y-103697857D01*
X164486176Y-103488619D01*
X164590105Y-103328662D01*
X164621294Y-103387013D01*
X164806866Y-103613134D01*
X165032986Y-103798706D01*
X165290966Y-103936599D01*
X165570889Y-104021513D01*
X165862000Y-104050185D01*
X166153110Y-104021513D01*
X166433033Y-103936599D01*
X166691013Y-103798706D01*
X166917134Y-103613134D01*
X167102706Y-103387014D01*
X167132000Y-103332208D01*
X167161294Y-103387013D01*
X167346866Y-103613134D01*
X167572986Y-103798706D01*
X167830966Y-103936599D01*
X168110889Y-104021513D01*
X168402000Y-104050185D01*
X168693110Y-104021513D01*
X168973033Y-103936599D01*
X169231013Y-103798706D01*
X169457134Y-103613134D01*
X169642706Y-103387014D01*
X169780599Y-103129034D01*
X169865513Y-102849111D01*
X169887000Y-102630950D01*
X169887000Y-101585051D01*
X169865513Y-101366889D01*
X169780599Y-101086966D01*
X169642706Y-100828986D01*
X169457134Y-100602866D01*
X169231014Y-100417294D01*
X168973034Y-100279401D01*
X168693111Y-100194487D01*
X168402000Y-100165815D01*
X168110890Y-100194487D01*
X167830967Y-100279401D01*
X167572987Y-100417294D01*
X167346867Y-100602866D01*
X167161294Y-100828986D01*
X167132000Y-100883791D01*
X167102706Y-100828986D01*
X166917134Y-100602866D01*
X166691014Y-100417294D01*
X166527010Y-100329632D01*
X166527010Y-98969701D01*
X166570947Y-98925764D01*
X166684215Y-98756246D01*
X166762236Y-98567888D01*
X166802010Y-98367929D01*
X166802010Y-98164051D01*
X166762236Y-97964092D01*
X166684215Y-97775734D01*
X166570947Y-97606216D01*
X166527010Y-97562279D01*
X166527010Y-92456000D01*
X170309001Y-92456000D01*
X170309001Y-92514288D01*
X170201563Y-92621726D01*
X170088295Y-92791244D01*
X170010274Y-92979602D01*
X169970500Y-93179561D01*
X169970500Y-93383439D01*
X170010274Y-93583398D01*
X170088295Y-93771756D01*
X170201563Y-93941274D01*
X170345726Y-94085437D01*
X170515244Y-94198705D01*
X170703602Y-94276726D01*
X170903561Y-94316500D01*
X171107439Y-94316500D01*
X171307398Y-94276726D01*
X171495756Y-94198705D01*
X171665274Y-94085437D01*
X171809437Y-93941274D01*
X171922705Y-93771756D01*
X172000726Y-93583398D01*
X172040500Y-93383439D01*
X172040500Y-93179561D01*
X172000726Y-92979602D01*
X171922705Y-92791244D01*
X171829000Y-92651004D01*
X171829000Y-92456000D01*
X176024000Y-92456000D01*
X176024001Y-102197658D01*
X176024000Y-102197668D01*
X176024001Y-103652410D01*
X175914482Y-103619188D01*
X175790000Y-103606928D01*
X172190000Y-103606928D01*
X172065518Y-103619188D01*
X171945820Y-103655498D01*
X171835506Y-103714463D01*
X171738815Y-103793815D01*
X171659463Y-103890506D01*
X171600498Y-104000820D01*
X171564188Y-104120518D01*
X171551928Y-104245000D01*
X171551928Y-107845000D01*
X171564188Y-107969482D01*
X171600498Y-108089180D01*
X171659463Y-108199494D01*
X171738815Y-108296185D01*
X171835506Y-108375537D01*
X171945820Y-108434502D01*
X172065518Y-108470812D01*
X172190000Y-108483072D01*
X175770001Y-108483072D01*
X175770001Y-108643288D01*
X175726063Y-108687226D01*
X175612795Y-108856744D01*
X175534774Y-109045102D01*
X175495000Y-109245061D01*
X175495000Y-109448939D01*
X175534774Y-109648898D01*
X175612795Y-109837256D01*
X175726063Y-110006774D01*
X175870226Y-110150937D01*
X176039744Y-110264205D01*
X176228102Y-110342226D01*
X176428061Y-110382000D01*
X176631939Y-110382000D01*
X176831898Y-110342226D01*
X177020256Y-110264205D01*
X177189774Y-110150937D01*
X177333937Y-110006774D01*
X177447205Y-109837256D01*
X177525226Y-109648898D01*
X177565000Y-109448939D01*
X177565000Y-109245061D01*
X177525226Y-109045102D01*
X177447205Y-108856744D01*
X177333937Y-108687226D01*
X177290000Y-108643289D01*
X177290000Y-107708610D01*
X177517778Y-107936388D01*
X177916595Y-108202869D01*
X178359737Y-108386424D01*
X178830173Y-108480000D01*
X179309827Y-108480000D01*
X179780263Y-108386424D01*
X180223405Y-108202869D01*
X180622222Y-107936388D01*
X180961388Y-107597222D01*
X181227869Y-107198405D01*
X181411424Y-106755263D01*
X181505000Y-106284827D01*
X181505000Y-105805173D01*
X181715000Y-105805173D01*
X181715000Y-106284827D01*
X181808576Y-106755263D01*
X181992131Y-107198405D01*
X182258612Y-107597222D01*
X182597778Y-107936388D01*
X182996595Y-108202869D01*
X183439737Y-108386424D01*
X183659293Y-108430097D01*
X183490226Y-108543063D01*
X183346063Y-108687226D01*
X183232795Y-108856744D01*
X183154774Y-109045102D01*
X183115000Y-109245061D01*
X183115000Y-109448939D01*
X183154774Y-109648898D01*
X183232795Y-109837256D01*
X183346063Y-110006774D01*
X183490226Y-110150937D01*
X183659744Y-110264205D01*
X183848102Y-110342226D01*
X184048061Y-110382000D01*
X184251939Y-110382000D01*
X184451898Y-110342226D01*
X184640256Y-110264205D01*
X184809774Y-110150937D01*
X184953937Y-110006774D01*
X185067205Y-109837256D01*
X185145226Y-109648898D01*
X185185000Y-109448939D01*
X185185000Y-109245061D01*
X185145226Y-109045102D01*
X185067205Y-108856744D01*
X184953937Y-108687226D01*
X184809774Y-108543063D01*
X184640707Y-108430097D01*
X184860263Y-108386424D01*
X185303405Y-108202869D01*
X185702222Y-107936388D01*
X186041388Y-107597222D01*
X186307869Y-107198405D01*
X186491424Y-106755263D01*
X186585000Y-106284827D01*
X186585000Y-105805173D01*
X186491424Y-105334737D01*
X186307869Y-104891595D01*
X186041388Y-104492778D01*
X185702222Y-104153612D01*
X185303405Y-103887131D01*
X184860263Y-103703576D01*
X184389827Y-103610000D01*
X183910173Y-103610000D01*
X183439737Y-103703576D01*
X182996595Y-103887131D01*
X182597778Y-104153612D01*
X182258612Y-104492778D01*
X181992131Y-104891595D01*
X181808576Y-105334737D01*
X181715000Y-105805173D01*
X181505000Y-105805173D01*
X181411424Y-105334737D01*
X181227869Y-104891595D01*
X180961388Y-104492778D01*
X180622222Y-104153612D01*
X180223405Y-103887131D01*
X180012500Y-103799771D01*
X180012500Y-96014669D01*
X180153413Y-96000790D01*
X180442761Y-95913017D01*
X180709427Y-95770481D01*
X180943161Y-95578661D01*
X181104000Y-95382677D01*
X181104000Y-101785289D01*
X181060063Y-101829226D01*
X180946795Y-101998744D01*
X180868774Y-102187102D01*
X180829000Y-102387061D01*
X180829000Y-102590939D01*
X180868774Y-102790898D01*
X180946795Y-102979256D01*
X181060063Y-103148774D01*
X181204226Y-103292937D01*
X181373744Y-103406205D01*
X181562102Y-103484226D01*
X181762061Y-103524000D01*
X181965939Y-103524000D01*
X182165898Y-103484226D01*
X182354256Y-103406205D01*
X182523774Y-103292937D01*
X182667937Y-103148774D01*
X182781205Y-102979256D01*
X182859226Y-102790898D01*
X182899000Y-102590939D01*
X182899000Y-102387061D01*
X182894654Y-102365214D01*
X183294554Y-102765114D01*
X183808021Y-103108201D01*
X184378554Y-103344524D01*
X184984229Y-103465000D01*
X185601771Y-103465000D01*
X186207446Y-103344524D01*
X186777979Y-103108201D01*
X187291446Y-102765114D01*
X187728114Y-102328446D01*
X188071201Y-101814979D01*
X188307524Y-101244446D01*
X188428000Y-100638771D01*
X188428000Y-100021229D01*
X188307524Y-99415554D01*
X188071201Y-98845021D01*
X187728114Y-98331554D01*
X187291446Y-97894886D01*
X186777979Y-97551799D01*
X186207446Y-97315476D01*
X185601771Y-97195000D01*
X184984229Y-97195000D01*
X184378554Y-97315476D01*
X183808021Y-97551799D01*
X183294554Y-97894886D01*
X182857886Y-98331554D01*
X182624000Y-98681590D01*
X182624000Y-94488000D01*
X184230073Y-94488000D01*
X184259710Y-94788913D01*
X184347483Y-95078261D01*
X184490019Y-95344927D01*
X184681839Y-95578661D01*
X184915573Y-95770481D01*
X185182239Y-95913017D01*
X185471587Y-96000790D01*
X185697092Y-96023000D01*
X187047908Y-96023000D01*
X187273413Y-96000790D01*
X187562761Y-95913017D01*
X187829427Y-95770481D01*
X188063161Y-95578661D01*
X188254981Y-95344927D01*
X188397517Y-95078261D01*
X188485290Y-94788913D01*
X188514927Y-94488000D01*
X188485290Y-94187087D01*
X188397517Y-93897739D01*
X188254981Y-93631073D01*
X188063161Y-93397339D01*
X187829427Y-93205519D01*
X187562761Y-93062983D01*
X187273413Y-92975210D01*
X187047908Y-92953000D01*
X185697092Y-92953000D01*
X185471587Y-92975210D01*
X185182239Y-93062983D01*
X184915573Y-93205519D01*
X184681839Y-93397339D01*
X184490019Y-93631073D01*
X184347483Y-93897739D01*
X184259710Y-94187087D01*
X184230073Y-94488000D01*
X182624000Y-94488000D01*
X182624000Y-92456000D01*
X185607289Y-92456000D01*
X185649226Y-92497937D01*
X185818744Y-92611205D01*
X186007102Y-92689226D01*
X186207061Y-92729000D01*
X186410939Y-92729000D01*
X186610898Y-92689226D01*
X186799256Y-92611205D01*
X186968774Y-92497937D01*
X187010711Y-92456000D01*
X188595000Y-92456000D01*
X188595000Y-110871000D01*
X164535459Y-110871000D01*
X164639898Y-110850226D01*
X164828256Y-110772205D01*
X164997774Y-110658937D01*
X165141937Y-110514774D01*
X165255205Y-110345256D01*
X165333226Y-110156898D01*
X165373000Y-109956939D01*
X165373000Y-109753061D01*
X165333226Y-109553102D01*
X165255205Y-109364744D01*
X165141937Y-109195226D01*
X165098000Y-109151289D01*
X165098000Y-107637711D01*
X165141937Y-107593774D01*
X165255205Y-107424256D01*
X165333226Y-107235898D01*
X165373000Y-107035939D01*
X165373000Y-106832061D01*
X165333226Y-106632102D01*
X165255205Y-106443744D01*
X165141937Y-106274226D01*
X164997774Y-106130063D01*
X164828256Y-106016795D01*
X164639898Y-105938774D01*
X164439939Y-105899000D01*
X164236061Y-105899000D01*
X164036102Y-105938774D01*
X163847744Y-106016795D01*
X163678226Y-106130063D01*
X163534063Y-106274226D01*
X163420795Y-106443744D01*
X163342774Y-106632102D01*
X163303000Y-106832061D01*
X163303000Y-107035939D01*
X163342774Y-107235898D01*
X163420795Y-107424256D01*
X163534063Y-107593774D01*
X163578001Y-107637712D01*
X163578000Y-109151289D01*
X163534063Y-109195226D01*
X163420795Y-109364744D01*
X163342774Y-109553102D01*
X163303000Y-109753061D01*
X163303000Y-109956939D01*
X163342774Y-110156898D01*
X163420795Y-110345256D01*
X163534063Y-110514774D01*
X163678226Y-110658937D01*
X163847744Y-110772205D01*
X164036102Y-110850226D01*
X164140541Y-110871000D01*
X147136459Y-110871000D01*
X147240898Y-110850226D01*
X147429256Y-110772205D01*
X147598774Y-110658937D01*
X147742937Y-110514774D01*
X147856205Y-110345256D01*
X147934226Y-110156898D01*
X147974000Y-109956939D01*
X147974000Y-109753061D01*
X147934226Y-109553102D01*
X147856205Y-109364744D01*
X147742937Y-109195226D01*
X147699000Y-109151289D01*
X147699000Y-109053072D01*
X148339000Y-109053072D01*
X148463482Y-109040812D01*
X148583180Y-109004502D01*
X148693494Y-108945537D01*
X148790185Y-108866185D01*
X148869537Y-108769494D01*
X148928502Y-108659180D01*
X148964812Y-108539482D01*
X148977072Y-108415000D01*
X148977072Y-108241766D01*
X148999421Y-108283578D01*
X149216234Y-108547766D01*
X149480422Y-108764579D01*
X149781832Y-108925686D01*
X150108881Y-109024895D01*
X150363775Y-109050000D01*
X151134225Y-109050000D01*
X151389119Y-109024895D01*
X151716168Y-108925686D01*
X152017578Y-108764579D01*
X152281766Y-108547766D01*
X152498579Y-108283578D01*
X152659686Y-107982168D01*
X152660213Y-107980431D01*
X152745843Y-108173317D01*
X152942367Y-108452027D01*
X153189489Y-108687042D01*
X153477712Y-108869330D01*
X153795959Y-108991886D01*
X154132000Y-109050000D01*
X154432000Y-109050000D01*
X154432000Y-107442000D01*
X154686000Y-107442000D01*
X154686000Y-109050000D01*
X154986000Y-109050000D01*
X155322041Y-108991886D01*
X155640288Y-108869330D01*
X155928511Y-108687042D01*
X156175633Y-108452027D01*
X156372157Y-108173317D01*
X156510531Y-107861622D01*
X156548175Y-107711122D01*
X156430125Y-107442000D01*
X154686000Y-107442000D01*
X154432000Y-107442000D01*
X154412000Y-107442000D01*
X154412000Y-107188000D01*
X154432000Y-107188000D01*
X154432000Y-105580000D01*
X154686000Y-105580000D01*
X154686000Y-107188000D01*
X156430125Y-107188000D01*
X156548175Y-106918878D01*
X156510531Y-106768378D01*
X156372157Y-106456683D01*
X156175633Y-106177973D01*
X155928511Y-105942958D01*
X155640288Y-105760670D01*
X155322041Y-105638114D01*
X154986000Y-105580000D01*
X154686000Y-105580000D01*
X154432000Y-105580000D01*
X154132000Y-105580000D01*
X153795959Y-105638114D01*
X153477712Y-105760670D01*
X153189489Y-105942958D01*
X152942367Y-106177973D01*
X152745843Y-106456683D01*
X152660213Y-106649569D01*
X152659686Y-106647832D01*
X152498579Y-106346422D01*
X152281766Y-106082234D01*
X152017578Y-105865421D01*
X151716168Y-105704314D01*
X151389119Y-105605105D01*
X151134225Y-105580000D01*
X150850802Y-105580000D01*
X150112000Y-104841199D01*
X150112000Y-103953210D01*
X150171047Y-103978563D01*
X150265110Y-103999476D01*
X150495000Y-103878155D01*
X150495000Y-102235000D01*
X150475000Y-102235000D01*
X150475000Y-101981000D01*
X150495000Y-101981000D01*
X150495000Y-100337845D01*
X150749000Y-100337845D01*
X150749000Y-101981000D01*
X150769000Y-101981000D01*
X150769000Y-102235000D01*
X150749000Y-102235000D01*
X150749000Y-103878155D01*
X150978890Y-103999476D01*
X151072953Y-103978563D01*
X151341426Y-103863291D01*
X151582252Y-103697857D01*
X151786176Y-103488619D01*
X151890105Y-103328662D01*
X151921294Y-103387013D01*
X152106866Y-103613134D01*
X152332986Y-103798706D01*
X152590966Y-103936599D01*
X152870889Y-104021513D01*
X153162000Y-104050185D01*
X153453110Y-104021513D01*
X153733033Y-103936599D01*
X153991013Y-103798706D01*
X154217134Y-103613134D01*
X154402706Y-103387014D01*
X154432000Y-103332208D01*
X154461294Y-103387013D01*
X154646866Y-103613134D01*
X154872986Y-103798706D01*
X155130966Y-103936599D01*
X155410889Y-104021513D01*
X155702000Y-104050185D01*
X155993110Y-104021513D01*
X156273033Y-103936599D01*
X156531013Y-103798706D01*
X156757134Y-103613134D01*
X156942706Y-103387014D01*
X156972000Y-103332208D01*
X157001294Y-103387013D01*
X157186866Y-103613134D01*
X157412986Y-103798706D01*
X157670966Y-103936599D01*
X157950889Y-104021513D01*
X158242000Y-104050185D01*
X158533110Y-104021513D01*
X158813033Y-103936599D01*
X159071013Y-103798706D01*
X159297134Y-103613134D01*
X159482706Y-103387014D01*
X159512000Y-103332208D01*
X159541294Y-103387013D01*
X159726866Y-103613134D01*
X159952986Y-103798706D01*
X160210966Y-103936599D01*
X160490889Y-104021513D01*
X160782000Y-104050185D01*
X161073110Y-104021513D01*
X161353033Y-103936599D01*
X161611013Y-103798706D01*
X161837134Y-103613134D01*
X162022706Y-103387014D01*
X162053895Y-103328663D01*
X162157824Y-103488619D01*
X162361748Y-103697857D01*
X162602574Y-103863291D01*
X162871047Y-103978563D01*
X162965110Y-103999476D01*
X163195000Y-103878155D01*
X163195000Y-102235000D01*
X163175000Y-102235000D01*
X163175000Y-101981000D01*
X163195000Y-101981000D01*
X163195000Y-100337845D01*
X162965110Y-100216524D01*
X162871047Y-100237437D01*
X162602574Y-100352709D01*
X162361748Y-100518143D01*
X162157824Y-100727381D01*
X162053895Y-100887337D01*
X162022706Y-100828986D01*
X161837134Y-100602866D01*
X161611014Y-100417294D01*
X161353034Y-100279401D01*
X161073111Y-100194487D01*
X160782000Y-100165815D01*
X160490890Y-100194487D01*
X160210967Y-100279401D01*
X159952987Y-100417294D01*
X159726867Y-100602866D01*
X159541294Y-100828986D01*
X159512000Y-100883791D01*
X159482706Y-100828986D01*
X159297134Y-100602866D01*
X159071014Y-100417294D01*
X158813034Y-100279401D01*
X158533111Y-100194487D01*
X158242000Y-100165815D01*
X157950890Y-100194487D01*
X157670967Y-100279401D01*
X157412987Y-100417294D01*
X157186867Y-100602866D01*
X157001294Y-100828986D01*
X156972000Y-100883791D01*
X156942706Y-100828986D01*
X156757134Y-100602866D01*
X156531014Y-100417294D01*
X156273034Y-100279401D01*
X155993111Y-100194487D01*
X155702000Y-100165815D01*
X155410890Y-100194487D01*
X155130967Y-100279401D01*
X154872987Y-100417294D01*
X154646867Y-100602866D01*
X154461294Y-100828986D01*
X154432000Y-100883791D01*
X154402706Y-100828986D01*
X154217134Y-100602866D01*
X153991014Y-100417294D01*
X153733034Y-100279401D01*
X153453111Y-100194487D01*
X153162000Y-100165815D01*
X152870890Y-100194487D01*
X152590967Y-100279401D01*
X152332987Y-100417294D01*
X152106867Y-100602866D01*
X151921294Y-100828986D01*
X151890105Y-100887337D01*
X151786176Y-100727381D01*
X151582252Y-100518143D01*
X151341426Y-100352709D01*
X151072953Y-100237437D01*
X150978890Y-100216524D01*
X150749000Y-100337845D01*
X150495000Y-100337845D01*
X150265110Y-100216524D01*
X150171047Y-100237437D01*
X150112000Y-100262790D01*
X150112000Y-92524711D01*
X150155937Y-92480774D01*
X150269205Y-92311256D01*
X150347226Y-92122898D01*
X150387000Y-91922939D01*
X150387000Y-91719061D01*
X150347226Y-91519102D01*
X150269205Y-91330744D01*
X150155937Y-91161226D01*
X150011774Y-91017063D01*
X149842256Y-90903795D01*
X149653898Y-90825774D01*
X149453939Y-90786000D01*
X149250061Y-90786000D01*
X149050102Y-90825774D01*
X148861744Y-90903795D01*
X148692226Y-91017063D01*
X148548063Y-91161226D01*
X148434795Y-91330744D01*
X148356774Y-91519102D01*
X148317000Y-91719061D01*
X148317000Y-91922939D01*
X148356774Y-92122898D01*
X148434795Y-92311256D01*
X148548063Y-92480774D01*
X148592001Y-92524712D01*
X148592000Y-100260887D01*
X148373111Y-100194487D01*
X148082000Y-100165815D01*
X147790890Y-100194487D01*
X147510967Y-100279401D01*
X147252987Y-100417294D01*
X147026867Y-100602866D01*
X146841294Y-100828986D01*
X146812000Y-100883791D01*
X146782706Y-100828986D01*
X146597134Y-100602866D01*
X146371014Y-100417294D01*
X146113034Y-100279401D01*
X145833111Y-100194487D01*
X145542000Y-100165815D01*
X145250890Y-100194487D01*
X144970967Y-100279401D01*
X144712987Y-100417294D01*
X144486867Y-100602866D01*
X144301294Y-100828986D01*
X144272000Y-100883791D01*
X144242706Y-100828986D01*
X144057134Y-100602866D01*
X143831014Y-100417294D01*
X143573034Y-100279401D01*
X143293111Y-100194487D01*
X143002000Y-100165815D01*
X142710890Y-100194487D01*
X142492000Y-100260887D01*
X142492000Y-99628801D01*
X142944002Y-99176799D01*
X142973001Y-99153001D01*
X143067974Y-99037276D01*
X143138546Y-98905247D01*
X143182003Y-98761986D01*
X143193000Y-98650333D01*
X143193000Y-98650325D01*
X143196676Y-98613000D01*
X143193000Y-98575675D01*
X143193000Y-95887711D01*
X143236937Y-95843774D01*
X143350205Y-95674256D01*
X143428226Y-95485898D01*
X143468000Y-95285939D01*
X143468000Y-95082061D01*
X143428226Y-94882102D01*
X143350205Y-94693744D01*
X143236937Y-94524226D01*
X143092774Y-94380063D01*
X142923256Y-94266795D01*
X142734898Y-94188774D01*
X142534939Y-94149000D01*
X142331061Y-94149000D01*
X142131102Y-94188774D01*
X141942744Y-94266795D01*
X141773226Y-94380063D01*
X141629063Y-94524226D01*
X141603000Y-94563232D01*
X141603000Y-93786801D01*
X142243003Y-93146799D01*
X142272001Y-93123001D01*
X142366974Y-93007276D01*
X142437546Y-92875247D01*
X142481003Y-92731986D01*
X142492000Y-92620333D01*
X142492000Y-92620323D01*
X142495676Y-92583000D01*
X142492000Y-92545677D01*
X142492000Y-86175114D01*
X142710889Y-86241513D01*
X143002000Y-86270185D01*
X143293110Y-86241513D01*
X143573033Y-86156599D01*
X143831013Y-86018706D01*
X144057134Y-85833134D01*
X144242706Y-85607014D01*
X144272000Y-85552208D01*
X144301294Y-85607013D01*
X144486866Y-85833134D01*
X144712986Y-86018706D01*
X144970966Y-86156599D01*
X145250889Y-86241513D01*
X145542000Y-86270185D01*
X145833110Y-86241513D01*
X145957011Y-86203928D01*
X145957011Y-88576648D01*
X145957010Y-88576658D01*
X145957011Y-92609278D01*
X145913073Y-92653216D01*
X145799805Y-92822734D01*
X145721784Y-93011092D01*
X145682010Y-93211051D01*
X145682010Y-93414929D01*
X145721784Y-93614888D01*
X145799805Y-93803246D01*
X145913073Y-93972764D01*
X146057236Y-94116927D01*
X146226754Y-94230195D01*
X146415112Y-94308216D01*
X146615071Y-94347990D01*
X146818949Y-94347990D01*
X147018908Y-94308216D01*
X147207266Y-94230195D01*
X147376784Y-94116927D01*
X147520947Y-93972764D01*
X147634215Y-93803246D01*
X147712236Y-93614888D01*
X147752010Y-93414929D01*
X147752010Y-93211051D01*
X147712236Y-93011092D01*
X147634215Y-92822734D01*
X147520947Y-92653216D01*
X147477010Y-92609279D01*
X147477010Y-86138449D01*
X147510966Y-86156599D01*
X147790889Y-86241513D01*
X148082000Y-86270185D01*
X148373110Y-86241513D01*
X148653033Y-86156599D01*
X148911013Y-86018706D01*
X149137134Y-85833134D01*
X149322706Y-85607014D01*
X149353895Y-85548663D01*
X149457824Y-85708619D01*
X149661748Y-85917857D01*
X149902574Y-86083291D01*
X150171047Y-86198563D01*
X150265110Y-86219476D01*
X150495000Y-86098155D01*
X150495000Y-84455000D01*
X150475000Y-84455000D01*
X150475000Y-84201000D01*
X150495000Y-84201000D01*
X150495000Y-82557845D01*
X150265110Y-82436524D01*
X150171047Y-82457437D01*
X149902574Y-82572709D01*
X149661748Y-82738143D01*
X149457824Y-82947381D01*
X149353895Y-83107337D01*
X149322706Y-83048986D01*
X149137134Y-82822866D01*
X148911014Y-82637294D01*
X148842000Y-82600405D01*
X148842000Y-79189711D01*
X148885937Y-79145774D01*
X148999205Y-78976256D01*
X149077226Y-78787898D01*
X149117000Y-78587939D01*
X149117000Y-78384061D01*
X149077226Y-78184102D01*
X148999205Y-77995744D01*
X148885937Y-77826226D01*
X148741774Y-77682063D01*
X148572256Y-77568795D01*
X148383898Y-77490774D01*
X148183939Y-77451000D01*
X147980061Y-77451000D01*
X147826000Y-77481644D01*
X147826000Y-71653061D01*
X149206000Y-71653061D01*
X149206000Y-71856939D01*
X149245774Y-72056898D01*
X149323795Y-72245256D01*
X149437063Y-72414774D01*
X149481000Y-72458711D01*
X149481001Y-77147288D01*
X149437063Y-77191226D01*
X149323795Y-77360744D01*
X149245774Y-77549102D01*
X149206000Y-77749061D01*
X149206000Y-77952939D01*
X149245774Y-78152898D01*
X149323795Y-78341256D01*
X149437063Y-78510774D01*
X149581226Y-78654937D01*
X149750744Y-78768205D01*
X149939102Y-78846226D01*
X150139061Y-78886000D01*
X150342939Y-78886000D01*
X150542898Y-78846226D01*
X150731256Y-78768205D01*
X150900774Y-78654937D01*
X151044937Y-78510774D01*
X151158205Y-78341256D01*
X151236226Y-78152898D01*
X151276000Y-77952939D01*
X151276000Y-77749061D01*
X151236226Y-77549102D01*
X151158205Y-77360744D01*
X151044937Y-77191226D01*
X151001000Y-77147289D01*
X151001000Y-72458711D01*
X151044937Y-72414774D01*
X151158205Y-72245256D01*
X151236226Y-72056898D01*
X151276000Y-71856939D01*
X151276000Y-71653061D01*
X151236226Y-71453102D01*
X151158205Y-71264744D01*
X151044937Y-71095226D01*
X150900774Y-70951063D01*
X150731256Y-70837795D01*
X150542898Y-70759774D01*
X150342939Y-70720000D01*
X150139061Y-70720000D01*
X149939102Y-70759774D01*
X149750744Y-70837795D01*
X149581226Y-70951063D01*
X149437063Y-71095226D01*
X149323795Y-71264744D01*
X149245774Y-71453102D01*
X149206000Y-71653061D01*
X147826000Y-71653061D01*
X147826000Y-71180801D01*
X149482003Y-69524799D01*
X149511001Y-69501001D01*
X149605974Y-69385276D01*
X149676546Y-69253247D01*
X149720003Y-69109986D01*
X149731000Y-68998333D01*
X149731000Y-68998323D01*
X149734676Y-68961000D01*
X149731000Y-68923677D01*
X149731000Y-68775711D01*
X149774937Y-68731774D01*
X149888205Y-68562256D01*
X149966226Y-68373898D01*
X150006000Y-68173939D01*
X150006000Y-67970061D01*
X149966226Y-67770102D01*
X149888205Y-67581744D01*
X149774937Y-67412226D01*
X149630774Y-67268063D01*
X149461256Y-67154795D01*
X149272898Y-67076774D01*
X149072939Y-67037000D01*
X148869061Y-67037000D01*
X148669102Y-67076774D01*
X148480744Y-67154795D01*
X148311226Y-67268063D01*
X148167063Y-67412226D01*
X148053795Y-67581744D01*
X147975774Y-67770102D01*
X147936000Y-67970061D01*
X147936000Y-68173939D01*
X147975774Y-68373898D01*
X148053795Y-68562256D01*
X148150385Y-68706813D01*
X146555003Y-70302196D01*
X146525999Y-70325999D01*
X146495238Y-70363482D01*
X146431026Y-70441724D01*
X146387048Y-70524000D01*
X146360454Y-70573754D01*
X146316997Y-70717015D01*
X146306000Y-70828668D01*
X146306000Y-70828678D01*
X146302324Y-70866000D01*
X146306000Y-70903322D01*
X146306001Y-78294290D01*
X146201774Y-78190063D01*
X146032256Y-78076795D01*
X145843898Y-77998774D01*
X145643939Y-77959000D01*
X145440061Y-77959000D01*
X145240102Y-77998774D01*
X145051744Y-78076795D01*
X144882226Y-78190063D01*
X144738063Y-78334226D01*
X144624795Y-78503744D01*
X144546774Y-78692102D01*
X144507000Y-78892061D01*
X144507000Y-79095939D01*
X144546774Y-79295898D01*
X144624795Y-79484256D01*
X144738063Y-79653774D01*
X144782001Y-79697712D01*
X144782000Y-82600406D01*
X144712987Y-82637294D01*
X144486867Y-82822866D01*
X144301294Y-83048986D01*
X144272000Y-83103791D01*
X144242706Y-83048986D01*
X144057134Y-82822866D01*
X143831014Y-82637294D01*
X143573034Y-82499401D01*
X143293111Y-82414487D01*
X143002000Y-82385815D01*
X142710890Y-82414487D01*
X142492000Y-82480887D01*
X142492000Y-81094711D01*
X142535937Y-81050774D01*
X142649205Y-80881256D01*
X142727226Y-80692898D01*
X142767000Y-80492939D01*
X142767000Y-80289061D01*
X142727226Y-80089102D01*
X142649205Y-79900744D01*
X142639855Y-79886750D01*
X142772774Y-79797937D01*
X142916937Y-79653774D01*
X143030205Y-79484256D01*
X143108226Y-79295898D01*
X143148000Y-79095939D01*
X143148000Y-78892061D01*
X143108226Y-78692102D01*
X143030205Y-78503744D01*
X142916937Y-78334226D01*
X142873000Y-78290289D01*
X142873000Y-74840322D01*
X142876676Y-74802999D01*
X142873000Y-74765676D01*
X142873000Y-74765667D01*
X142862003Y-74654014D01*
X142818546Y-74510753D01*
X142747974Y-74378724D01*
X142653001Y-74262999D01*
X142624002Y-74239201D01*
X142127000Y-73742199D01*
X142127000Y-72950711D01*
X142170937Y-72906774D01*
X142284205Y-72737256D01*
X142362226Y-72548898D01*
X142402000Y-72348939D01*
X142402000Y-72145061D01*
X142362226Y-71945102D01*
X142284205Y-71756744D01*
X142170937Y-71587226D01*
X142026774Y-71443063D01*
X141857256Y-71329795D01*
X141668898Y-71251774D01*
X141468939Y-71212000D01*
X141265061Y-71212000D01*
X141065102Y-71251774D01*
X140876744Y-71329795D01*
X140707226Y-71443063D01*
X140563063Y-71587226D01*
X140449795Y-71756744D01*
X140371774Y-71945102D01*
X140332000Y-72145061D01*
X140332000Y-72348939D01*
X140371774Y-72548898D01*
X140449795Y-72737256D01*
X140563063Y-72906774D01*
X140607000Y-72950711D01*
X140607001Y-74019668D01*
X140603324Y-74057000D01*
X140617998Y-74205985D01*
X140661454Y-74349246D01*
X140732026Y-74481276D01*
X140803201Y-74568002D01*
X140820091Y-74588582D01*
X140448721Y-74340440D01*
X140014679Y-74160654D01*
X139553902Y-74069000D01*
X139084098Y-74069000D01*
X138623321Y-74160654D01*
X138189279Y-74340440D01*
X137798651Y-74601450D01*
X137466450Y-74933651D01*
X137205440Y-75324279D01*
X137025654Y-75758321D01*
X136934000Y-76219098D01*
X136934000Y-76688902D01*
X137025654Y-77149679D01*
X137205440Y-77583721D01*
X137466450Y-77974349D01*
X137798651Y-78306550D01*
X138189279Y-78567560D01*
X138623321Y-78747346D01*
X139084098Y-78839000D01*
X139553902Y-78839000D01*
X140014679Y-78747346D01*
X140448721Y-78567560D01*
X140839349Y-78306550D01*
X141171550Y-77974349D01*
X141353000Y-77702790D01*
X141353000Y-78290289D01*
X141309063Y-78334226D01*
X141195795Y-78503744D01*
X141117774Y-78692102D01*
X141078000Y-78892061D01*
X141078000Y-79095939D01*
X141117774Y-79295898D01*
X141195795Y-79484256D01*
X141205145Y-79498250D01*
X141072226Y-79587063D01*
X140928063Y-79731226D01*
X140814795Y-79900744D01*
X140736774Y-80089102D01*
X140697000Y-80289061D01*
X140697000Y-80492939D01*
X140736774Y-80692898D01*
X140814795Y-80881256D01*
X140928063Y-81050774D01*
X140972000Y-81094711D01*
X140972000Y-82480887D01*
X140753111Y-82414487D01*
X140462000Y-82385815D01*
X140170890Y-82414487D01*
X139890967Y-82499401D01*
X139632987Y-82637294D01*
X139406867Y-82822866D01*
X139221294Y-83048986D01*
X139190105Y-83107337D01*
X139086176Y-82947381D01*
X138882252Y-82738143D01*
X138641426Y-82572709D01*
X138372953Y-82457437D01*
X138278890Y-82436524D01*
X138049000Y-82557845D01*
X138049000Y-84201000D01*
X138069000Y-84201000D01*
X138069000Y-84455000D01*
X138049000Y-84455000D01*
X138049000Y-86098155D01*
X138278890Y-86219476D01*
X138372953Y-86198563D01*
X138641426Y-86083291D01*
X138882252Y-85917857D01*
X139086176Y-85708619D01*
X139190105Y-85548662D01*
X139221294Y-85607013D01*
X139406866Y-85833134D01*
X139632986Y-86018706D01*
X139890966Y-86156599D01*
X140170889Y-86241513D01*
X140462000Y-86270185D01*
X140753110Y-86241513D01*
X140972000Y-86175113D01*
X140972001Y-92268197D01*
X140332002Y-92908197D01*
X140302999Y-92931999D01*
X140247871Y-92999174D01*
X140208026Y-93047724D01*
X140162704Y-93132515D01*
X140137454Y-93179754D01*
X140093997Y-93323015D01*
X140083000Y-93434668D01*
X140083000Y-93434678D01*
X140079324Y-93472000D01*
X140083000Y-93509323D01*
X140083001Y-97594288D01*
X140055063Y-97622226D01*
X139941795Y-97791744D01*
X139863774Y-97980102D01*
X139824000Y-98180061D01*
X139824000Y-98383939D01*
X139863774Y-98583898D01*
X139941795Y-98772256D01*
X140055063Y-98941774D01*
X140199226Y-99085937D01*
X140368744Y-99199205D01*
X140557102Y-99277226D01*
X140757061Y-99317000D01*
X140960939Y-99317000D01*
X140968472Y-99315502D01*
X140972000Y-99351323D01*
X140972000Y-100260887D01*
X140753111Y-100194487D01*
X140462000Y-100165815D01*
X140170890Y-100194487D01*
X139890967Y-100279401D01*
X139632987Y-100417294D01*
X139406867Y-100602866D01*
X139221294Y-100828986D01*
X139190105Y-100887337D01*
X139086176Y-100727381D01*
X138882252Y-100518143D01*
X138641426Y-100352709D01*
X138372953Y-100237437D01*
X138278890Y-100216524D01*
X138049000Y-100337845D01*
X138049000Y-101981000D01*
X138069000Y-101981000D01*
X138069000Y-102235000D01*
X138049000Y-102235000D01*
X138049000Y-103878155D01*
X138278890Y-103999476D01*
X138372953Y-103978563D01*
X138641426Y-103863291D01*
X138882252Y-103697857D01*
X139086176Y-103488619D01*
X139190105Y-103328662D01*
X139221294Y-103387013D01*
X139406866Y-103613134D01*
X139632986Y-103798706D01*
X139890966Y-103936599D01*
X140170889Y-104021513D01*
X140462000Y-104050185D01*
X140753110Y-104021513D01*
X140972001Y-103955113D01*
X140972001Y-104864668D01*
X140968324Y-104902000D01*
X140972001Y-104939333D01*
X140979553Y-105016003D01*
X140982998Y-105050985D01*
X141026454Y-105194246D01*
X141097026Y-105326276D01*
X141147589Y-105387886D01*
X141192000Y-105442001D01*
X141220998Y-105465799D01*
X141459000Y-105703801D01*
X141459000Y-105765939D01*
X141498774Y-105965898D01*
X141576795Y-106154256D01*
X141690063Y-106323774D01*
X141834226Y-106467937D01*
X142003744Y-106581205D01*
X142192102Y-106659226D01*
X142392061Y-106699000D01*
X142595939Y-106699000D01*
X142795898Y-106659226D01*
X142984256Y-106581205D01*
X143153774Y-106467937D01*
X143297937Y-106323774D01*
X143411205Y-106154256D01*
X143489226Y-105965898D01*
X143529000Y-105765939D01*
X143529000Y-105562061D01*
X143489226Y-105362102D01*
X143411205Y-105173744D01*
X143297937Y-105004226D01*
X143153774Y-104860063D01*
X142984256Y-104746795D01*
X142795898Y-104668774D01*
X142595939Y-104629000D01*
X142533801Y-104629000D01*
X142492000Y-104587199D01*
X142492000Y-103955114D01*
X142710889Y-104021513D01*
X143002000Y-104050185D01*
X143293110Y-104021513D01*
X143573033Y-103936599D01*
X143831013Y-103798706D01*
X144057134Y-103613134D01*
X144242706Y-103387014D01*
X144272000Y-103332208D01*
X144301294Y-103387013D01*
X144486866Y-103613134D01*
X144712986Y-103798706D01*
X144970966Y-103936599D01*
X145250889Y-104021513D01*
X145542000Y-104050185D01*
X145833110Y-104021513D01*
X146113033Y-103936599D01*
X146371013Y-103798706D01*
X146597134Y-103613134D01*
X146782706Y-103387014D01*
X146812000Y-103332208D01*
X146841294Y-103387013D01*
X147026866Y-103613134D01*
X147252986Y-103798706D01*
X147510966Y-103936599D01*
X147790889Y-104021513D01*
X148082000Y-104050185D01*
X148373110Y-104021513D01*
X148592000Y-103955113D01*
X148592000Y-105118678D01*
X148588324Y-105156000D01*
X148592000Y-105193322D01*
X148592000Y-105193332D01*
X148602997Y-105304985D01*
X148635763Y-105413002D01*
X148646454Y-105448246D01*
X148717026Y-105580276D01*
X148746428Y-105616102D01*
X148811999Y-105696001D01*
X148841003Y-105719804D01*
X149210464Y-106089265D01*
X148999421Y-106346422D01*
X148977072Y-106388234D01*
X148977072Y-106215000D01*
X148964812Y-106090518D01*
X148928502Y-105970820D01*
X148869537Y-105860506D01*
X148790185Y-105763815D01*
X148693494Y-105684463D01*
X148583180Y-105625498D01*
X148463482Y-105589188D01*
X148339000Y-105576928D01*
X145539000Y-105576928D01*
X145414518Y-105589188D01*
X145294820Y-105625498D01*
X145184506Y-105684463D01*
X145087815Y-105763815D01*
X145008463Y-105860506D01*
X144949498Y-105970820D01*
X144913188Y-106090518D01*
X144900928Y-106215000D01*
X144900928Y-108415000D01*
X144913188Y-108539482D01*
X144949498Y-108659180D01*
X145008463Y-108769494D01*
X145087815Y-108866185D01*
X145184506Y-108945537D01*
X145294820Y-109004502D01*
X145414518Y-109040812D01*
X145539000Y-109053072D01*
X146179001Y-109053072D01*
X146179001Y-109151288D01*
X146135063Y-109195226D01*
X146021795Y-109364744D01*
X145943774Y-109553102D01*
X145904000Y-109753061D01*
X145904000Y-109956939D01*
X145943774Y-110156898D01*
X146021795Y-110345256D01*
X146135063Y-110514774D01*
X146279226Y-110658937D01*
X146448744Y-110772205D01*
X146637102Y-110850226D01*
X146741541Y-110871000D01*
X116824150Y-110871000D01*
X116992446Y-110837524D01*
X117562979Y-110601201D01*
X118076446Y-110258114D01*
X118513114Y-109821446D01*
X118856201Y-109307979D01*
X119092524Y-108737446D01*
X119213000Y-108131771D01*
X119213000Y-107514229D01*
X119092524Y-106908554D01*
X118856201Y-106338021D01*
X118513114Y-105824554D01*
X118504621Y-105816061D01*
X125203000Y-105816061D01*
X125203000Y-106019939D01*
X125242774Y-106219898D01*
X125320795Y-106408256D01*
X125434063Y-106577774D01*
X125578226Y-106721937D01*
X125747744Y-106835205D01*
X125936102Y-106913226D01*
X126136061Y-106953000D01*
X126339939Y-106953000D01*
X126539898Y-106913226D01*
X126728256Y-106835205D01*
X126897774Y-106721937D01*
X127041937Y-106577774D01*
X127155205Y-106408256D01*
X127233226Y-106219898D01*
X127234200Y-106215000D01*
X128644928Y-106215000D01*
X128644928Y-108415000D01*
X128657188Y-108539482D01*
X128693498Y-108659180D01*
X128752463Y-108769494D01*
X128831815Y-108866185D01*
X128928506Y-108945537D01*
X129038820Y-109004502D01*
X129158518Y-109040812D01*
X129283000Y-109053072D01*
X132083000Y-109053072D01*
X132207482Y-109040812D01*
X132327180Y-109004502D01*
X132437494Y-108945537D01*
X132534185Y-108866185D01*
X132613537Y-108769494D01*
X132672502Y-108659180D01*
X132708812Y-108539482D01*
X132721072Y-108415000D01*
X132721072Y-108241766D01*
X132743421Y-108283578D01*
X132960234Y-108547766D01*
X133224422Y-108764579D01*
X133525832Y-108925686D01*
X133852881Y-109024895D01*
X134107775Y-109050000D01*
X134878225Y-109050000D01*
X135133119Y-109024895D01*
X135460168Y-108925686D01*
X135761578Y-108764579D01*
X136025766Y-108547766D01*
X136242579Y-108283578D01*
X136403686Y-107982168D01*
X136404213Y-107980431D01*
X136489843Y-108173317D01*
X136686367Y-108452027D01*
X136933489Y-108687042D01*
X137221712Y-108869330D01*
X137539959Y-108991886D01*
X137876000Y-109050000D01*
X138176000Y-109050000D01*
X138176000Y-107442000D01*
X138430000Y-107442000D01*
X138430000Y-109050000D01*
X138730000Y-109050000D01*
X139066041Y-108991886D01*
X139384288Y-108869330D01*
X139672511Y-108687042D01*
X139919633Y-108452027D01*
X140116157Y-108173317D01*
X140254531Y-107861622D01*
X140292175Y-107711122D01*
X140174125Y-107442000D01*
X138430000Y-107442000D01*
X138176000Y-107442000D01*
X138156000Y-107442000D01*
X138156000Y-107188000D01*
X138176000Y-107188000D01*
X138176000Y-105580000D01*
X138430000Y-105580000D01*
X138430000Y-107188000D01*
X140174125Y-107188000D01*
X140292175Y-106918878D01*
X140254531Y-106768378D01*
X140116157Y-106456683D01*
X139919633Y-106177973D01*
X139672511Y-105942958D01*
X139384288Y-105760670D01*
X139066041Y-105638114D01*
X138730000Y-105580000D01*
X138430000Y-105580000D01*
X138176000Y-105580000D01*
X137876000Y-105580000D01*
X137539959Y-105638114D01*
X137221712Y-105760670D01*
X136933489Y-105942958D01*
X136686367Y-106177973D01*
X136489843Y-106456683D01*
X136404213Y-106649569D01*
X136403686Y-106647832D01*
X136242579Y-106346422D01*
X136025766Y-106082234D01*
X135761578Y-105865421D01*
X135460168Y-105704314D01*
X135133119Y-105605105D01*
X134878225Y-105580000D01*
X134107775Y-105580000D01*
X133852881Y-105605105D01*
X133525832Y-105704314D01*
X133224422Y-105865421D01*
X132960234Y-106082234D01*
X132743421Y-106346422D01*
X132721072Y-106388234D01*
X132721072Y-106215000D01*
X132708812Y-106090518D01*
X132672502Y-105970820D01*
X132613537Y-105860506D01*
X132534185Y-105763815D01*
X132437494Y-105684463D01*
X132327180Y-105625498D01*
X132207482Y-105589188D01*
X132083000Y-105576928D01*
X129283000Y-105576928D01*
X129158518Y-105589188D01*
X129038820Y-105625498D01*
X128928506Y-105684463D01*
X128831815Y-105763815D01*
X128752463Y-105860506D01*
X128693498Y-105970820D01*
X128657188Y-106090518D01*
X128644928Y-106215000D01*
X127234200Y-106215000D01*
X127273000Y-106019939D01*
X127273000Y-105816061D01*
X127233226Y-105616102D01*
X127155205Y-105427744D01*
X127041937Y-105258226D01*
X126998000Y-105214289D01*
X126998000Y-103833457D01*
X127190966Y-103936599D01*
X127470889Y-104021513D01*
X127762000Y-104050185D01*
X128053110Y-104021513D01*
X128333033Y-103936599D01*
X128591013Y-103798706D01*
X128817134Y-103613134D01*
X129002706Y-103387014D01*
X129032000Y-103332208D01*
X129061294Y-103387013D01*
X129246866Y-103613134D01*
X129472986Y-103798706D01*
X129730966Y-103936599D01*
X130010889Y-104021513D01*
X130302000Y-104050185D01*
X130593110Y-104021513D01*
X130873033Y-103936599D01*
X131131013Y-103798706D01*
X131357134Y-103613134D01*
X131542706Y-103387014D01*
X131572000Y-103332208D01*
X131601294Y-103387013D01*
X131786866Y-103613134D01*
X132012986Y-103798706D01*
X132270966Y-103936599D01*
X132550889Y-104021513D01*
X132842000Y-104050185D01*
X133133110Y-104021513D01*
X133413033Y-103936599D01*
X133671013Y-103798706D01*
X133897134Y-103613134D01*
X134082706Y-103387014D01*
X134112000Y-103332208D01*
X134141294Y-103387013D01*
X134326866Y-103613134D01*
X134552986Y-103798706D01*
X134810966Y-103936599D01*
X135090889Y-104021513D01*
X135382000Y-104050185D01*
X135673110Y-104021513D01*
X135953033Y-103936599D01*
X136211013Y-103798706D01*
X136437134Y-103613134D01*
X136622706Y-103387014D01*
X136653895Y-103328663D01*
X136757824Y-103488619D01*
X136961748Y-103697857D01*
X137202574Y-103863291D01*
X137471047Y-103978563D01*
X137565110Y-103999476D01*
X137795000Y-103878155D01*
X137795000Y-102235000D01*
X137775000Y-102235000D01*
X137775000Y-101981000D01*
X137795000Y-101981000D01*
X137795000Y-100337845D01*
X137565110Y-100216524D01*
X137471047Y-100237437D01*
X137202574Y-100352709D01*
X136961748Y-100518143D01*
X136757824Y-100727381D01*
X136653895Y-100887337D01*
X136622706Y-100828986D01*
X136437134Y-100602866D01*
X136211014Y-100417294D01*
X135953034Y-100279401D01*
X135673111Y-100194487D01*
X135382000Y-100165815D01*
X135090890Y-100194487D01*
X134810967Y-100279401D01*
X134552987Y-100417294D01*
X134326867Y-100602866D01*
X134141294Y-100828986D01*
X134112000Y-100883791D01*
X134082706Y-100828986D01*
X133897134Y-100602866D01*
X133671014Y-100417294D01*
X133602000Y-100380405D01*
X133602000Y-88714711D01*
X133645937Y-88670774D01*
X133759205Y-88501256D01*
X133837226Y-88312898D01*
X133877000Y-88112939D01*
X133877000Y-87909061D01*
X133837226Y-87709102D01*
X133759205Y-87520744D01*
X133645937Y-87351226D01*
X133501774Y-87207063D01*
X133332256Y-87093795D01*
X133143898Y-87015774D01*
X132943939Y-86976000D01*
X132740061Y-86976000D01*
X132540102Y-87015774D01*
X132351744Y-87093795D01*
X132182226Y-87207063D01*
X132038063Y-87351226D01*
X131924795Y-87520744D01*
X131846774Y-87709102D01*
X131807000Y-87909061D01*
X131807000Y-88112939D01*
X131846774Y-88312898D01*
X131924795Y-88501256D01*
X132038063Y-88670774D01*
X132082000Y-88714711D01*
X132082001Y-100380405D01*
X132012987Y-100417294D01*
X131786867Y-100602866D01*
X131601294Y-100828986D01*
X131572000Y-100883791D01*
X131542706Y-100828986D01*
X131357134Y-100602866D01*
X131131014Y-100417294D01*
X130873034Y-100279401D01*
X130593111Y-100194487D01*
X130302000Y-100165815D01*
X130010890Y-100194487D01*
X129730967Y-100279401D01*
X129472987Y-100417294D01*
X129246867Y-100602866D01*
X129061294Y-100828986D01*
X129032000Y-100883791D01*
X129002706Y-100828986D01*
X128817134Y-100602866D01*
X128591014Y-100417294D01*
X128333034Y-100279401D01*
X128053111Y-100194487D01*
X127762000Y-100165815D01*
X127470890Y-100194487D01*
X127252000Y-100260887D01*
X127252000Y-99001711D01*
X127295937Y-98957774D01*
X127409205Y-98788256D01*
X127487226Y-98599898D01*
X127527000Y-98399939D01*
X127527000Y-98196061D01*
X127487226Y-97996102D01*
X127409205Y-97807744D01*
X127295937Y-97638226D01*
X127151774Y-97494063D01*
X126982256Y-97380795D01*
X126793898Y-97302774D01*
X126593939Y-97263000D01*
X126390061Y-97263000D01*
X126190102Y-97302774D01*
X126001744Y-97380795D01*
X125832226Y-97494063D01*
X125688063Y-97638226D01*
X125574795Y-97807744D01*
X125496774Y-97996102D01*
X125457000Y-98196061D01*
X125457000Y-98399939D01*
X125496774Y-98599898D01*
X125574795Y-98788256D01*
X125688063Y-98957774D01*
X125732001Y-99001712D01*
X125732001Y-100262790D01*
X125672953Y-100237437D01*
X125578890Y-100216524D01*
X125349000Y-100337845D01*
X125349000Y-101981000D01*
X125369000Y-101981000D01*
X125369000Y-102235000D01*
X125349000Y-102235000D01*
X125349000Y-103878155D01*
X125478001Y-103946233D01*
X125478000Y-105214289D01*
X125434063Y-105258226D01*
X125320795Y-105427744D01*
X125242774Y-105616102D01*
X125203000Y-105816061D01*
X118504621Y-105816061D01*
X118076446Y-105387886D01*
X117562979Y-105044799D01*
X116992446Y-104808476D01*
X116386771Y-104688000D01*
X115769229Y-104688000D01*
X115163554Y-104808476D01*
X114593021Y-105044799D01*
X114079554Y-105387886D01*
X113642886Y-105824554D01*
X113538000Y-105981527D01*
X113538000Y-101585050D01*
X118657000Y-101585050D01*
X118657000Y-102630949D01*
X118678487Y-102849110D01*
X118763401Y-103129033D01*
X118901294Y-103387013D01*
X119086866Y-103613134D01*
X119312986Y-103798706D01*
X119570966Y-103936599D01*
X119850889Y-104021513D01*
X120142000Y-104050185D01*
X120433110Y-104021513D01*
X120713033Y-103936599D01*
X120971013Y-103798706D01*
X121197134Y-103613134D01*
X121382706Y-103387014D01*
X121412000Y-103332208D01*
X121441294Y-103387013D01*
X121626866Y-103613134D01*
X121852986Y-103798706D01*
X122110966Y-103936599D01*
X122390889Y-104021513D01*
X122682000Y-104050185D01*
X122973110Y-104021513D01*
X123253033Y-103936599D01*
X123511013Y-103798706D01*
X123737134Y-103613134D01*
X123922706Y-103387014D01*
X123953895Y-103328663D01*
X124057824Y-103488619D01*
X124261748Y-103697857D01*
X124502574Y-103863291D01*
X124771047Y-103978563D01*
X124865110Y-103999476D01*
X125095000Y-103878155D01*
X125095000Y-102235000D01*
X125075000Y-102235000D01*
X125075000Y-101981000D01*
X125095000Y-101981000D01*
X125095000Y-100337845D01*
X124865110Y-100216524D01*
X124771047Y-100237437D01*
X124502574Y-100352709D01*
X124261748Y-100518143D01*
X124057824Y-100727381D01*
X123953895Y-100887337D01*
X123922706Y-100828986D01*
X123737134Y-100602866D01*
X123511014Y-100417294D01*
X123442000Y-100380405D01*
X123442000Y-96969711D01*
X123485937Y-96925774D01*
X123599205Y-96756256D01*
X123677226Y-96567898D01*
X123717000Y-96367939D01*
X123717000Y-96164061D01*
X123677226Y-95964102D01*
X123599205Y-95775744D01*
X123485937Y-95606226D01*
X123341774Y-95462063D01*
X123172256Y-95348795D01*
X122983898Y-95270774D01*
X122783939Y-95231000D01*
X122580061Y-95231000D01*
X122380102Y-95270774D01*
X122191744Y-95348795D01*
X122022226Y-95462063D01*
X121878063Y-95606226D01*
X121764795Y-95775744D01*
X121686774Y-95964102D01*
X121647000Y-96164061D01*
X121647000Y-96367939D01*
X121686774Y-96567898D01*
X121764795Y-96756256D01*
X121878063Y-96925774D01*
X121922001Y-96969712D01*
X121922000Y-100380406D01*
X121852987Y-100417294D01*
X121626867Y-100602866D01*
X121441294Y-100828986D01*
X121412000Y-100883791D01*
X121382706Y-100828986D01*
X121197134Y-100602866D01*
X120971014Y-100417294D01*
X120713034Y-100279401D01*
X120433111Y-100194487D01*
X120142000Y-100165815D01*
X119850890Y-100194487D01*
X119570967Y-100279401D01*
X119312987Y-100417294D01*
X119086867Y-100602866D01*
X118901294Y-100828986D01*
X118763401Y-101086966D01*
X118678487Y-101366889D01*
X118657000Y-101585050D01*
X113538000Y-101585050D01*
X113538000Y-95082061D01*
X114601000Y-95082061D01*
X114601000Y-95285939D01*
X114640774Y-95485898D01*
X114718795Y-95674256D01*
X114832063Y-95843774D01*
X114976226Y-95987937D01*
X115145744Y-96101205D01*
X115334102Y-96179226D01*
X115534061Y-96219000D01*
X115737939Y-96219000D01*
X115937898Y-96179226D01*
X116126256Y-96101205D01*
X116295774Y-95987937D01*
X116339711Y-95944000D01*
X119631289Y-95944000D01*
X119675226Y-95987937D01*
X119844744Y-96101205D01*
X120033102Y-96179226D01*
X120233061Y-96219000D01*
X120436939Y-96219000D01*
X120636898Y-96179226D01*
X120825256Y-96101205D01*
X120994774Y-95987937D01*
X121138937Y-95843774D01*
X121252205Y-95674256D01*
X121330226Y-95485898D01*
X121370000Y-95285939D01*
X121370000Y-95082061D01*
X121330226Y-94882102D01*
X121252205Y-94693744D01*
X121138937Y-94524226D01*
X120994774Y-94380063D01*
X120825256Y-94266795D01*
X120636898Y-94188774D01*
X120436939Y-94149000D01*
X120233061Y-94149000D01*
X120033102Y-94188774D01*
X119844744Y-94266795D01*
X119675226Y-94380063D01*
X119631289Y-94424000D01*
X116339711Y-94424000D01*
X116295774Y-94380063D01*
X116126256Y-94266795D01*
X115937898Y-94188774D01*
X115737939Y-94149000D01*
X115534061Y-94149000D01*
X115334102Y-94188774D01*
X115145744Y-94266795D01*
X114976226Y-94380063D01*
X114832063Y-94524226D01*
X114718795Y-94693744D01*
X114640774Y-94882102D01*
X114601000Y-95082061D01*
X113538000Y-95082061D01*
X113538000Y-83805050D01*
X118657000Y-83805050D01*
X118657000Y-84850949D01*
X118678487Y-85069110D01*
X118763401Y-85349033D01*
X118901294Y-85607013D01*
X119086866Y-85833134D01*
X119312986Y-86018706D01*
X119570966Y-86156599D01*
X119850889Y-86241513D01*
X120142000Y-86270185D01*
X120433110Y-86241513D01*
X120713033Y-86156599D01*
X120971013Y-86018706D01*
X121197134Y-85833134D01*
X121382706Y-85607014D01*
X121412000Y-85552208D01*
X121441294Y-85607013D01*
X121626866Y-85833134D01*
X121852986Y-86018706D01*
X122110966Y-86156599D01*
X122390889Y-86241513D01*
X122682000Y-86270185D01*
X122973110Y-86241513D01*
X123253033Y-86156599D01*
X123511013Y-86018706D01*
X123737134Y-85833134D01*
X123922706Y-85607014D01*
X123953895Y-85548663D01*
X124057824Y-85708619D01*
X124261748Y-85917857D01*
X124502574Y-86083291D01*
X124771047Y-86198563D01*
X124865110Y-86219476D01*
X125095000Y-86098155D01*
X125095000Y-84455000D01*
X125075000Y-84455000D01*
X125075000Y-84201000D01*
X125095000Y-84201000D01*
X125095000Y-82557845D01*
X125349000Y-82557845D01*
X125349000Y-84201000D01*
X125369000Y-84201000D01*
X125369000Y-84455000D01*
X125349000Y-84455000D01*
X125349000Y-86098155D01*
X125578890Y-86219476D01*
X125672953Y-86198563D01*
X125941426Y-86083291D01*
X126182252Y-85917857D01*
X126386176Y-85708619D01*
X126490105Y-85548662D01*
X126521294Y-85607013D01*
X126706866Y-85833134D01*
X126932986Y-86018706D01*
X127002001Y-86055595D01*
X127002000Y-91117289D01*
X126958063Y-91161226D01*
X126844795Y-91330744D01*
X126766774Y-91519102D01*
X126727000Y-91719061D01*
X126727000Y-91922939D01*
X126766774Y-92122898D01*
X126844795Y-92311256D01*
X126958063Y-92480774D01*
X127102226Y-92624937D01*
X127271744Y-92738205D01*
X127460102Y-92816226D01*
X127660061Y-92856000D01*
X127863939Y-92856000D01*
X128063898Y-92816226D01*
X128252256Y-92738205D01*
X128421774Y-92624937D01*
X128565937Y-92480774D01*
X128679205Y-92311256D01*
X128757226Y-92122898D01*
X128797000Y-91922939D01*
X128797000Y-91719061D01*
X128757226Y-91519102D01*
X128679205Y-91330744D01*
X128565937Y-91161226D01*
X128522000Y-91117289D01*
X128522000Y-86055594D01*
X128591013Y-86018706D01*
X128817134Y-85833134D01*
X129002706Y-85607014D01*
X129032000Y-85552208D01*
X129061294Y-85607013D01*
X129246866Y-85833134D01*
X129472986Y-86018706D01*
X129730966Y-86156599D01*
X130010889Y-86241513D01*
X130302000Y-86270185D01*
X130593110Y-86241513D01*
X130873033Y-86156599D01*
X131131013Y-86018706D01*
X131357134Y-85833134D01*
X131542706Y-85607014D01*
X131572000Y-85552208D01*
X131601294Y-85607013D01*
X131786866Y-85833134D01*
X132012986Y-86018706D01*
X132270966Y-86156599D01*
X132550889Y-86241513D01*
X132842000Y-86270185D01*
X133133110Y-86241513D01*
X133413033Y-86156599D01*
X133671013Y-86018706D01*
X133897134Y-85833134D01*
X134082706Y-85607014D01*
X134112000Y-85552208D01*
X134141294Y-85607013D01*
X134326866Y-85833134D01*
X134552986Y-86018706D01*
X134810966Y-86156599D01*
X135090889Y-86241513D01*
X135382000Y-86270185D01*
X135673110Y-86241513D01*
X135953033Y-86156599D01*
X136211013Y-86018706D01*
X136437134Y-85833134D01*
X136622706Y-85607014D01*
X136653895Y-85548663D01*
X136757824Y-85708619D01*
X136961748Y-85917857D01*
X137202574Y-86083291D01*
X137471047Y-86198563D01*
X137565110Y-86219476D01*
X137795000Y-86098155D01*
X137795000Y-84455000D01*
X137775000Y-84455000D01*
X137775000Y-84201000D01*
X137795000Y-84201000D01*
X137795000Y-82557845D01*
X137565110Y-82436524D01*
X137471047Y-82457437D01*
X137202574Y-82572709D01*
X136961748Y-82738143D01*
X136757824Y-82947381D01*
X136653895Y-83107337D01*
X136622706Y-83048986D01*
X136437134Y-82822866D01*
X136211014Y-82637294D01*
X135953034Y-82499401D01*
X135673111Y-82414487D01*
X135382000Y-82385815D01*
X135090890Y-82414487D01*
X134810967Y-82499401D01*
X134552987Y-82637294D01*
X134326867Y-82822866D01*
X134141294Y-83048986D01*
X134112000Y-83103791D01*
X134082706Y-83048986D01*
X133897134Y-82822866D01*
X133671014Y-82637294D01*
X133413034Y-82499401D01*
X133133111Y-82414487D01*
X132842000Y-82385815D01*
X132550890Y-82414487D01*
X132270967Y-82499401D01*
X132012987Y-82637294D01*
X131786867Y-82822866D01*
X131601294Y-83048986D01*
X131572000Y-83103791D01*
X131542706Y-83048986D01*
X131357134Y-82822866D01*
X131131014Y-82637294D01*
X130873034Y-82499401D01*
X130593111Y-82414487D01*
X130302000Y-82385815D01*
X130010890Y-82414487D01*
X129730967Y-82499401D01*
X129472987Y-82637294D01*
X129246867Y-82822866D01*
X129061294Y-83048986D01*
X129032000Y-83103791D01*
X129002706Y-83048986D01*
X128817134Y-82822866D01*
X128591014Y-82637294D01*
X128333034Y-82499401D01*
X128053111Y-82414487D01*
X127762000Y-82385815D01*
X127470890Y-82414487D01*
X127190967Y-82499401D01*
X126932987Y-82637294D01*
X126706867Y-82822866D01*
X126521294Y-83048986D01*
X126490105Y-83107337D01*
X126386176Y-82947381D01*
X126182252Y-82738143D01*
X125941426Y-82572709D01*
X125672953Y-82457437D01*
X125578890Y-82436524D01*
X125349000Y-82557845D01*
X125095000Y-82557845D01*
X124865110Y-82436524D01*
X124771047Y-82457437D01*
X124502574Y-82572709D01*
X124261748Y-82738143D01*
X124057824Y-82947381D01*
X123953895Y-83107337D01*
X123922706Y-83048986D01*
X123737134Y-82822866D01*
X123511014Y-82637294D01*
X123253034Y-82499401D01*
X122973111Y-82414487D01*
X122682000Y-82385815D01*
X122390890Y-82414487D01*
X122110967Y-82499401D01*
X121852987Y-82637294D01*
X121626867Y-82822866D01*
X121441294Y-83048986D01*
X121412000Y-83103791D01*
X121382706Y-83048986D01*
X121197134Y-82822866D01*
X120971014Y-82637294D01*
X120713034Y-82499401D01*
X120433111Y-82414487D01*
X120142000Y-82385815D01*
X119850890Y-82414487D01*
X119570967Y-82499401D01*
X119312987Y-82637294D01*
X119086867Y-82822866D01*
X118901294Y-83048986D01*
X118763401Y-83306966D01*
X118678487Y-83586889D01*
X118657000Y-83805050D01*
X113538000Y-83805050D01*
X113538000Y-76219098D01*
X114963000Y-76219098D01*
X114963000Y-76688902D01*
X115054654Y-77149679D01*
X115234440Y-77583721D01*
X115495450Y-77974349D01*
X115827651Y-78306550D01*
X116218279Y-78567560D01*
X116652321Y-78747346D01*
X117113098Y-78839000D01*
X117582902Y-78839000D01*
X118043679Y-78747346D01*
X118477721Y-78567560D01*
X118868349Y-78306550D01*
X119200550Y-77974349D01*
X119461560Y-77583721D01*
X119641346Y-77149679D01*
X119733000Y-76688902D01*
X119733000Y-76478050D01*
X123056000Y-76478050D01*
X123056000Y-77423949D01*
X123077487Y-77642110D01*
X123162401Y-77922033D01*
X123300294Y-78180013D01*
X123485866Y-78406134D01*
X123711986Y-78591706D01*
X123969966Y-78729599D01*
X124249889Y-78814513D01*
X124541000Y-78843185D01*
X124832110Y-78814513D01*
X125112033Y-78729599D01*
X125370013Y-78591706D01*
X125596134Y-78406134D01*
X125781706Y-78180014D01*
X125811000Y-78125208D01*
X125840294Y-78180013D01*
X126025866Y-78406134D01*
X126251986Y-78591706D01*
X126509966Y-78729599D01*
X126789889Y-78814513D01*
X127081000Y-78843185D01*
X127372110Y-78814513D01*
X127652033Y-78729599D01*
X127910013Y-78591706D01*
X128136134Y-78406134D01*
X128321706Y-78180014D01*
X128351000Y-78125208D01*
X128380294Y-78180013D01*
X128565866Y-78406134D01*
X128791986Y-78591706D01*
X129049966Y-78729599D01*
X129329889Y-78814513D01*
X129621000Y-78843185D01*
X129912110Y-78814513D01*
X130192033Y-78729599D01*
X130450013Y-78591706D01*
X130676134Y-78406134D01*
X130861706Y-78180014D01*
X130892895Y-78121663D01*
X130996824Y-78281619D01*
X131200748Y-78490857D01*
X131441574Y-78656291D01*
X131710047Y-78771563D01*
X131804110Y-78792476D01*
X132034000Y-78671155D01*
X132034000Y-77078000D01*
X132288000Y-77078000D01*
X132288000Y-78671155D01*
X132517890Y-78792476D01*
X132611953Y-78771563D01*
X132880426Y-78656291D01*
X133121252Y-78490857D01*
X133325176Y-78281619D01*
X133484361Y-78036618D01*
X133592690Y-77765269D01*
X133646000Y-77478000D01*
X133646000Y-77078000D01*
X132288000Y-77078000D01*
X132034000Y-77078000D01*
X132014000Y-77078000D01*
X132014000Y-76824000D01*
X132034000Y-76824000D01*
X132034000Y-75230845D01*
X132288000Y-75230845D01*
X132288000Y-76824000D01*
X133646000Y-76824000D01*
X133646000Y-76424000D01*
X133592690Y-76136731D01*
X133484361Y-75865382D01*
X133325176Y-75620381D01*
X133121252Y-75411143D01*
X132880426Y-75245709D01*
X132611953Y-75130437D01*
X132517890Y-75109524D01*
X132288000Y-75230845D01*
X132034000Y-75230845D01*
X131804110Y-75109524D01*
X131710047Y-75130437D01*
X131441574Y-75245709D01*
X131200748Y-75411143D01*
X130996824Y-75620381D01*
X130892895Y-75780337D01*
X130861706Y-75721986D01*
X130676134Y-75495866D01*
X130450014Y-75310294D01*
X130447000Y-75308683D01*
X130447000Y-70914711D01*
X130490937Y-70870774D01*
X130604205Y-70701256D01*
X130682226Y-70512898D01*
X130722000Y-70312939D01*
X130722000Y-70145061D01*
X142840000Y-70145061D01*
X142840000Y-70348939D01*
X142879774Y-70548898D01*
X142957795Y-70737256D01*
X143071063Y-70906774D01*
X143215226Y-71050937D01*
X143384744Y-71164205D01*
X143573102Y-71242226D01*
X143773061Y-71282000D01*
X143976939Y-71282000D01*
X144176898Y-71242226D01*
X144365256Y-71164205D01*
X144534774Y-71050937D01*
X144678937Y-70906774D01*
X144792205Y-70737256D01*
X144870226Y-70548898D01*
X144910000Y-70348939D01*
X144910000Y-70145061D01*
X144870226Y-69945102D01*
X144792205Y-69756744D01*
X144678937Y-69587226D01*
X144534774Y-69443063D01*
X144365256Y-69329795D01*
X144176898Y-69251774D01*
X143976939Y-69212000D01*
X143773061Y-69212000D01*
X143573102Y-69251774D01*
X143384744Y-69329795D01*
X143215226Y-69443063D01*
X143071063Y-69587226D01*
X142957795Y-69756744D01*
X142879774Y-69945102D01*
X142840000Y-70145061D01*
X130722000Y-70145061D01*
X130722000Y-70109061D01*
X130682226Y-69909102D01*
X130604205Y-69720744D01*
X130490937Y-69551226D01*
X130346774Y-69407063D01*
X130177256Y-69293795D01*
X129988898Y-69215774D01*
X129788939Y-69176000D01*
X129585061Y-69176000D01*
X129385102Y-69215774D01*
X129196744Y-69293795D01*
X129027226Y-69407063D01*
X128883063Y-69551226D01*
X128769795Y-69720744D01*
X128691774Y-69909102D01*
X128652000Y-70109061D01*
X128652000Y-70312939D01*
X128691774Y-70512898D01*
X128769795Y-70701256D01*
X128883063Y-70870774D01*
X128927000Y-70914711D01*
X128927001Y-75238128D01*
X128791987Y-75310294D01*
X128565866Y-75495866D01*
X128380294Y-75721986D01*
X128351000Y-75776791D01*
X128321706Y-75721986D01*
X128136134Y-75495866D01*
X127910014Y-75310294D01*
X127903000Y-75306545D01*
X127903000Y-72950711D01*
X127946937Y-72906774D01*
X128060205Y-72737256D01*
X128138226Y-72548898D01*
X128178000Y-72348939D01*
X128178000Y-72145061D01*
X128138226Y-71945102D01*
X128060205Y-71756744D01*
X127946937Y-71587226D01*
X127802774Y-71443063D01*
X127633256Y-71329795D01*
X127444898Y-71251774D01*
X127244939Y-71212000D01*
X127041061Y-71212000D01*
X126841102Y-71251774D01*
X126652744Y-71329795D01*
X126483226Y-71443063D01*
X126339063Y-71587226D01*
X126225795Y-71756744D01*
X126147774Y-71945102D01*
X126108000Y-72145061D01*
X126108000Y-72348939D01*
X126147774Y-72548898D01*
X126225795Y-72737256D01*
X126339063Y-72906774D01*
X126383000Y-72950711D01*
X126383001Y-75240266D01*
X126251987Y-75310294D01*
X126025866Y-75495866D01*
X125840294Y-75721986D01*
X125811000Y-75776791D01*
X125781706Y-75721986D01*
X125596134Y-75495866D01*
X125370014Y-75310294D01*
X125112034Y-75172401D01*
X124832111Y-75087487D01*
X124541000Y-75058815D01*
X124249890Y-75087487D01*
X123969967Y-75172401D01*
X123711987Y-75310294D01*
X123485866Y-75495866D01*
X123300294Y-75721986D01*
X123162401Y-75979966D01*
X123077487Y-76259889D01*
X123056000Y-76478050D01*
X119733000Y-76478050D01*
X119733000Y-76219098D01*
X119641346Y-75758321D01*
X119461560Y-75324279D01*
X119200550Y-74933651D01*
X118868349Y-74601450D01*
X118477721Y-74340440D01*
X118043679Y-74160654D01*
X117582902Y-74069000D01*
X117113098Y-74069000D01*
X116652321Y-74160654D01*
X116218279Y-74340440D01*
X115827651Y-74601450D01*
X115495450Y-74933651D01*
X115234440Y-75324279D01*
X115054654Y-75758321D01*
X114963000Y-76219098D01*
X113538000Y-76219098D01*
X113538000Y-66573061D01*
X144634000Y-66573061D01*
X144634000Y-66776939D01*
X144673774Y-66976898D01*
X144751795Y-67165256D01*
X144865063Y-67334774D01*
X145009226Y-67478937D01*
X145178744Y-67592205D01*
X145367102Y-67670226D01*
X145567061Y-67710000D01*
X145770939Y-67710000D01*
X145970898Y-67670226D01*
X146159256Y-67592205D01*
X146328774Y-67478937D01*
X146472937Y-67334774D01*
X146586205Y-67165256D01*
X146664226Y-66976898D01*
X146704000Y-66776939D01*
X146704000Y-66573061D01*
X146664226Y-66373102D01*
X146586205Y-66184744D01*
X146480000Y-66025797D01*
X146480000Y-63771711D01*
X146523937Y-63727774D01*
X146637205Y-63558256D01*
X146715226Y-63369898D01*
X146755000Y-63169939D01*
X146755000Y-62966061D01*
X146715226Y-62766102D01*
X146637205Y-62577744D01*
X146523937Y-62408226D01*
X146379774Y-62264063D01*
X146210256Y-62150795D01*
X146021898Y-62072774D01*
X145821939Y-62033000D01*
X145618061Y-62033000D01*
X145418102Y-62072774D01*
X145229744Y-62150795D01*
X145060226Y-62264063D01*
X144916063Y-62408226D01*
X144802795Y-62577744D01*
X144724774Y-62766102D01*
X144685000Y-62966061D01*
X144685000Y-63169939D01*
X144724774Y-63369898D01*
X144802795Y-63558256D01*
X144916063Y-63727774D01*
X144960000Y-63771711D01*
X144960001Y-65920288D01*
X144865063Y-66015226D01*
X144751795Y-66184744D01*
X144673774Y-66373102D01*
X144634000Y-66573061D01*
X113538000Y-66573061D01*
X113538000Y-60815485D01*
X155130500Y-60815485D01*
X155153470Y-61048703D01*
X155244245Y-61347948D01*
X155391655Y-61623734D01*
X155590037Y-61865463D01*
X155831765Y-62063845D01*
X156107551Y-62211255D01*
X156406796Y-62302030D01*
X156718000Y-62332681D01*
X157029203Y-62302030D01*
X157328448Y-62211255D01*
X157604234Y-62063845D01*
X157845963Y-61865463D01*
X157987789Y-61692648D01*
X158008599Y-61725065D01*
X158225270Y-61949835D01*
X158481628Y-62128016D01*
X158767822Y-62252760D01*
X158885020Y-62280563D01*
X159131000Y-62160594D01*
X159131000Y-59817000D01*
X159111000Y-59817000D01*
X159111000Y-59563000D01*
X159131000Y-59563000D01*
X159131000Y-57219406D01*
X158885020Y-57099437D01*
X158767822Y-57127240D01*
X158481628Y-57251984D01*
X158225270Y-57430165D01*
X158008599Y-57654935D01*
X157987789Y-57687352D01*
X157845963Y-57514537D01*
X157604235Y-57316155D01*
X157328449Y-57168745D01*
X157029204Y-57077970D01*
X156718000Y-57047319D01*
X156406797Y-57077970D01*
X156107552Y-57168745D01*
X155831766Y-57316155D01*
X155590038Y-57514537D01*
X155391656Y-57756265D01*
X155244246Y-58032051D01*
X155153471Y-58331296D01*
X155130501Y-58564514D01*
X155130500Y-60815485D01*
X113538000Y-60815485D01*
X113538000Y-56902687D01*
X143509936Y-56902687D01*
X143630597Y-57344120D01*
X143835058Y-57753531D01*
X144115463Y-58115187D01*
X144461036Y-58415190D01*
X144858496Y-58642011D01*
X145292570Y-58786933D01*
X145321070Y-58793832D01*
X145684240Y-58683401D01*
X145684240Y-56537860D01*
X145938240Y-56537860D01*
X145938240Y-58683401D01*
X146301410Y-58793832D01*
X146329910Y-58786933D01*
X146763984Y-58642011D01*
X147161444Y-58415190D01*
X147507017Y-58115187D01*
X147787422Y-57753531D01*
X147991883Y-57344120D01*
X148112544Y-56902687D01*
X147986756Y-56537860D01*
X145938240Y-56537860D01*
X145684240Y-56537860D01*
X143635724Y-56537860D01*
X143509936Y-56902687D01*
X113538000Y-56902687D01*
X113538000Y-54248098D01*
X114963000Y-54248098D01*
X114963000Y-54717902D01*
X115054654Y-55178679D01*
X115234440Y-55612721D01*
X115495450Y-56003349D01*
X115827651Y-56335550D01*
X116218279Y-56596560D01*
X116652321Y-56776346D01*
X117113098Y-56868000D01*
X117582902Y-56868000D01*
X118043679Y-56776346D01*
X118477721Y-56596560D01*
X118868349Y-56335550D01*
X119200550Y-56003349D01*
X119461560Y-55612721D01*
X119641346Y-55178679D01*
X119733000Y-54717902D01*
X119733000Y-54248098D01*
X136934000Y-54248098D01*
X136934000Y-54717902D01*
X137025654Y-55178679D01*
X137205440Y-55612721D01*
X137466450Y-56003349D01*
X137798651Y-56335550D01*
X138189279Y-56596560D01*
X138623321Y-56776346D01*
X139084098Y-56868000D01*
X139553902Y-56868000D01*
X140014679Y-56776346D01*
X140448721Y-56596560D01*
X140839349Y-56335550D01*
X141171550Y-56003349D01*
X141227888Y-55919033D01*
X143509936Y-55919033D01*
X143635724Y-56283860D01*
X145684240Y-56283860D01*
X145684240Y-54138319D01*
X145938240Y-54138319D01*
X145938240Y-56283860D01*
X147986756Y-56283860D01*
X148112544Y-55919033D01*
X147991883Y-55477600D01*
X147787422Y-55068189D01*
X147507017Y-54706533D01*
X147396812Y-54610860D01*
X148553168Y-54610860D01*
X148553168Y-58210860D01*
X148565428Y-58335342D01*
X148601738Y-58455040D01*
X148660703Y-58565354D01*
X148740055Y-58662045D01*
X148836746Y-58741397D01*
X148947060Y-58800362D01*
X149066758Y-58836672D01*
X149191240Y-58848932D01*
X152591240Y-58848932D01*
X152715722Y-58836672D01*
X152835420Y-58800362D01*
X152945734Y-58741397D01*
X153042425Y-58662045D01*
X153121777Y-58565354D01*
X153180742Y-58455040D01*
X153217052Y-58335342D01*
X153229312Y-58210860D01*
X153229312Y-54610860D01*
X153217052Y-54486378D01*
X153180742Y-54366680D01*
X153121777Y-54256366D01*
X153042425Y-54159675D01*
X152945734Y-54080323D01*
X152835420Y-54021358D01*
X152715722Y-53985048D01*
X152591240Y-53972788D01*
X149191240Y-53972788D01*
X149066758Y-53985048D01*
X148947060Y-54021358D01*
X148836746Y-54080323D01*
X148740055Y-54159675D01*
X148660703Y-54256366D01*
X148601738Y-54366680D01*
X148565428Y-54486378D01*
X148553168Y-54610860D01*
X147396812Y-54610860D01*
X147161444Y-54406530D01*
X146763984Y-54179709D01*
X146329910Y-54034787D01*
X146301410Y-54027888D01*
X145938240Y-54138319D01*
X145684240Y-54138319D01*
X145321070Y-54027888D01*
X145292570Y-54034787D01*
X144858496Y-54179709D01*
X144461036Y-54406530D01*
X144115463Y-54706533D01*
X143835058Y-55068189D01*
X143630597Y-55477600D01*
X143509936Y-55919033D01*
X141227888Y-55919033D01*
X141432560Y-55612721D01*
X141612346Y-55178679D01*
X141704000Y-54717902D01*
X141704000Y-54248098D01*
X141612346Y-53787321D01*
X141432560Y-53353279D01*
X141171550Y-52962651D01*
X140839349Y-52630450D01*
X140448721Y-52369440D01*
X140014679Y-52189654D01*
X139553902Y-52098000D01*
X139084098Y-52098000D01*
X138623321Y-52189654D01*
X138189279Y-52369440D01*
X137798651Y-52630450D01*
X137466450Y-52962651D01*
X137205440Y-53353279D01*
X137025654Y-53787321D01*
X136934000Y-54248098D01*
X119733000Y-54248098D01*
X119641346Y-53787321D01*
X119461560Y-53353279D01*
X119200550Y-52962651D01*
X118868349Y-52630450D01*
X118477721Y-52369440D01*
X118043679Y-52189654D01*
X117582902Y-52098000D01*
X117113098Y-52098000D01*
X116652321Y-52189654D01*
X116218279Y-52369440D01*
X115827651Y-52630450D01*
X115495450Y-52962651D01*
X115234440Y-53353279D01*
X115054654Y-53787321D01*
X114963000Y-54248098D01*
X113538000Y-54248098D01*
X113538000Y-51562347D01*
X159893000Y-51688655D01*
G37*
%TD.AperFunction*%
%TD*%
M02*
