%TF.GenerationSoftware,KiCad,Pcbnew,(5.1.10)-1*%
%TF.CreationDate,2024-09-14T21:02:55+02:00*%
%TF.ProjectId,LightningDetector_V1_0,4c696768-746e-4696-9e67-446574656374,rev?*%
%TF.SameCoordinates,Original*%
%TF.FileFunction,Paste,Top*%
%TF.FilePolarity,Positive*%
%FSLAX46Y46*%
G04 Gerber Fmt 4.6, Leading zero omitted, Abs format (unit mm)*
G04 Created by KiCad (PCBNEW (5.1.10)-1) date 2024-09-14 21:02:55*
%MOMM*%
%LPD*%
G01*
G04 APERTURE LIST*
%ADD10R,2.300000X2.200000*%
%ADD11R,0.850000X0.400000*%
%ADD12R,0.400000X0.850000*%
%ADD13R,1.200000X1.900000*%
%ADD14R,1.900000X1.200000*%
%ADD15R,1.900000X2.540000*%
%ADD16R,0.800000X1.300000*%
%ADD17R,3.200000X1.300000*%
%ADD18R,1.400000X1.000000*%
%ADD19R,2.540000X1.900000*%
%ADD20R,1.000000X2.500000*%
%ADD21R,1.000000X1.400000*%
%ADD22R,1.300000X0.800000*%
%ADD23R,1.500000X2.000000*%
%ADD24R,3.800000X2.000000*%
G04 APERTURE END LIST*
D10*
%TO.C,D3*%
X178689000Y-59146000D03*
X178689000Y-54646000D03*
%TD*%
D11*
%TO.C,U2*%
X170815000Y-76073000D03*
X170815000Y-75423000D03*
X170815000Y-74123000D03*
X170815000Y-74773000D03*
X166865000Y-75423000D03*
X166865000Y-74123000D03*
X166865000Y-74773000D03*
X166865000Y-76073000D03*
D12*
X169165000Y-77073000D03*
X169815000Y-77073000D03*
X168515000Y-77073000D03*
X167865000Y-77073000D03*
X168515000Y-73123000D03*
X169815000Y-73123000D03*
X169165000Y-73123000D03*
X167865000Y-73123000D03*
%TD*%
D13*
%TO.C,C1*%
X159436000Y-106807000D03*
X162636000Y-106807000D03*
%TD*%
%TO.C,C2*%
G36*
G01*
X165253000Y-107409000D02*
X165253000Y-106459000D01*
G75*
G02*
X165503000Y-106209000I250000J0D01*
G01*
X166178000Y-106209000D01*
G75*
G02*
X166428000Y-106459000I0J-250000D01*
G01*
X166428000Y-107409000D01*
G75*
G02*
X166178000Y-107659000I-250000J0D01*
G01*
X165503000Y-107659000D01*
G75*
G02*
X165253000Y-107409000I0J250000D01*
G01*
G37*
G36*
G01*
X167328000Y-107409000D02*
X167328000Y-106459000D01*
G75*
G02*
X167578000Y-106209000I250000J0D01*
G01*
X168253000Y-106209000D01*
G75*
G02*
X168503000Y-106459000I0J-250000D01*
G01*
X168503000Y-107409000D01*
G75*
G02*
X168253000Y-107659000I-250000J0D01*
G01*
X167578000Y-107659000D01*
G75*
G02*
X167328000Y-107409000I0J250000D01*
G01*
G37*
%TD*%
D14*
%TO.C,C3*%
X171450000Y-63170000D03*
X171450000Y-66370000D03*
%TD*%
%TO.C,C4*%
G36*
G01*
X174846000Y-63812000D02*
X173896000Y-63812000D01*
G75*
G02*
X173646000Y-63562000I0J250000D01*
G01*
X173646000Y-62887000D01*
G75*
G02*
X173896000Y-62637000I250000J0D01*
G01*
X174846000Y-62637000D01*
G75*
G02*
X175096000Y-62887000I0J-250000D01*
G01*
X175096000Y-63562000D01*
G75*
G02*
X174846000Y-63812000I-250000J0D01*
G01*
G37*
G36*
G01*
X174846000Y-65887000D02*
X173896000Y-65887000D01*
G75*
G02*
X173646000Y-65637000I0J250000D01*
G01*
X173646000Y-64962000D01*
G75*
G02*
X173896000Y-64712000I250000J0D01*
G01*
X174846000Y-64712000D01*
G75*
G02*
X175096000Y-64962000I0J-250000D01*
G01*
X175096000Y-65637000D01*
G75*
G02*
X174846000Y-65887000I-250000J0D01*
G01*
G37*
%TD*%
%TO.C,C5*%
X172847000Y-82880000D03*
X172847000Y-79680000D03*
%TD*%
D13*
%TO.C,C6*%
X155270000Y-65532000D03*
X152070000Y-65532000D03*
%TD*%
%TO.C,C7*%
G36*
G01*
X157760000Y-66007000D02*
X157760000Y-65057000D01*
G75*
G02*
X158010000Y-64807000I250000J0D01*
G01*
X158685000Y-64807000D01*
G75*
G02*
X158935000Y-65057000I0J-250000D01*
G01*
X158935000Y-66007000D01*
G75*
G02*
X158685000Y-66257000I-250000J0D01*
G01*
X158010000Y-66257000D01*
G75*
G02*
X157760000Y-66007000I0J250000D01*
G01*
G37*
G36*
G01*
X159835000Y-66007000D02*
X159835000Y-65057000D01*
G75*
G02*
X160085000Y-64807000I250000J0D01*
G01*
X160760000Y-64807000D01*
G75*
G02*
X161010000Y-65057000I0J-250000D01*
G01*
X161010000Y-66007000D01*
G75*
G02*
X160760000Y-66257000I-250000J0D01*
G01*
X160085000Y-66257000D01*
G75*
G02*
X159835000Y-66007000I0J250000D01*
G01*
G37*
%TD*%
%TO.C,D1*%
G36*
G01*
X117027000Y-89350001D02*
X117027000Y-88449999D01*
G75*
G02*
X117276999Y-88200000I249999J0D01*
G01*
X117927001Y-88200000D01*
G75*
G02*
X118177000Y-88449999I0J-249999D01*
G01*
X118177000Y-89350001D01*
G75*
G02*
X117927001Y-89600000I-249999J0D01*
G01*
X117276999Y-89600000D01*
G75*
G02*
X117027000Y-89350001I0J249999D01*
G01*
G37*
G36*
G01*
X114977000Y-89350001D02*
X114977000Y-88449999D01*
G75*
G02*
X115226999Y-88200000I249999J0D01*
G01*
X115877001Y-88200000D01*
G75*
G02*
X116127000Y-88449999I0J-249999D01*
G01*
X116127000Y-89350001D01*
G75*
G02*
X115877001Y-89600000I-249999J0D01*
G01*
X115226999Y-89600000D01*
G75*
G02*
X114977000Y-89350001I0J249999D01*
G01*
G37*
%TD*%
D15*
%TO.C,D2*%
X162433000Y-54356000D03*
X156733000Y-54356000D03*
%TD*%
D16*
%TO.C,Q1*%
X120462000Y-109347000D03*
X122362000Y-109347000D03*
X121520000Y-107061000D03*
%TD*%
%TO.C,Q2*%
X116694000Y-91567000D03*
X117536000Y-93853000D03*
X115636000Y-93853000D03*
%TD*%
%TO.C,R1*%
G36*
G01*
X130251000Y-79940999D02*
X130251000Y-80841001D01*
G75*
G02*
X130001001Y-81091000I-249999J0D01*
G01*
X129300999Y-81091000D01*
G75*
G02*
X129051000Y-80841001I0J249999D01*
G01*
X129051000Y-79940999D01*
G75*
G02*
X129300999Y-79691000I249999J0D01*
G01*
X130001001Y-79691000D01*
G75*
G02*
X130251000Y-79940999I0J-249999D01*
G01*
G37*
G36*
G01*
X128251000Y-79940999D02*
X128251000Y-80841001D01*
G75*
G02*
X128001001Y-81091000I-249999J0D01*
G01*
X127300999Y-81091000D01*
G75*
G02*
X127051000Y-80841001I0J249999D01*
G01*
X127051000Y-79940999D01*
G75*
G02*
X127300999Y-79691000I249999J0D01*
G01*
X128001001Y-79691000D01*
G75*
G02*
X128251000Y-79940999I0J-249999D01*
G01*
G37*
%TD*%
%TO.C,R2*%
G36*
G01*
X116186000Y-84893999D02*
X116186000Y-85794001D01*
G75*
G02*
X115936001Y-86044000I-249999J0D01*
G01*
X115235999Y-86044000D01*
G75*
G02*
X114986000Y-85794001I0J249999D01*
G01*
X114986000Y-84893999D01*
G75*
G02*
X115235999Y-84644000I249999J0D01*
G01*
X115936001Y-84644000D01*
G75*
G02*
X116186000Y-84893999I0J-249999D01*
G01*
G37*
G36*
G01*
X118186000Y-84893999D02*
X118186000Y-85794001D01*
G75*
G02*
X117936001Y-86044000I-249999J0D01*
G01*
X117235999Y-86044000D01*
G75*
G02*
X116986000Y-85794001I0J249999D01*
G01*
X116986000Y-84893999D01*
G75*
G02*
X117235999Y-84644000I249999J0D01*
G01*
X117936001Y-84644000D01*
G75*
G02*
X118186000Y-84893999I0J-249999D01*
G01*
G37*
%TD*%
%TO.C,R6*%
G36*
G01*
X142297999Y-71647000D02*
X143198001Y-71647000D01*
G75*
G02*
X143448000Y-71896999I0J-249999D01*
G01*
X143448000Y-72597001D01*
G75*
G02*
X143198001Y-72847000I-249999J0D01*
G01*
X142297999Y-72847000D01*
G75*
G02*
X142048000Y-72597001I0J249999D01*
G01*
X142048000Y-71896999D01*
G75*
G02*
X142297999Y-71647000I249999J0D01*
G01*
G37*
G36*
G01*
X142297999Y-69647000D02*
X143198001Y-69647000D01*
G75*
G02*
X143448000Y-69896999I0J-249999D01*
G01*
X143448000Y-70597001D01*
G75*
G02*
X143198001Y-70847000I-249999J0D01*
G01*
X142297999Y-70847000D01*
G75*
G02*
X142048000Y-70597001I0J249999D01*
G01*
X142048000Y-69896999D01*
G75*
G02*
X142297999Y-69647000I249999J0D01*
G01*
G37*
%TD*%
%TO.C,R7*%
G36*
G01*
X144583999Y-69647000D02*
X145484001Y-69647000D01*
G75*
G02*
X145734000Y-69896999I0J-249999D01*
G01*
X145734000Y-70597001D01*
G75*
G02*
X145484001Y-70847000I-249999J0D01*
G01*
X144583999Y-70847000D01*
G75*
G02*
X144334000Y-70597001I0J249999D01*
G01*
X144334000Y-69896999D01*
G75*
G02*
X144583999Y-69647000I249999J0D01*
G01*
G37*
G36*
G01*
X144583999Y-71647000D02*
X145484001Y-71647000D01*
G75*
G02*
X145734000Y-71896999I0J-249999D01*
G01*
X145734000Y-72597001D01*
G75*
G02*
X145484001Y-72847000I-249999J0D01*
G01*
X144583999Y-72847000D01*
G75*
G02*
X144334000Y-72597001I0J249999D01*
G01*
X144334000Y-71896999D01*
G75*
G02*
X144583999Y-71647000I249999J0D01*
G01*
G37*
%TD*%
%TO.C,R8*%
G36*
G01*
X125787999Y-106731000D02*
X126688001Y-106731000D01*
G75*
G02*
X126938000Y-106980999I0J-249999D01*
G01*
X126938000Y-107681001D01*
G75*
G02*
X126688001Y-107931000I-249999J0D01*
G01*
X125787999Y-107931000D01*
G75*
G02*
X125538000Y-107681001I0J249999D01*
G01*
X125538000Y-106980999D01*
G75*
G02*
X125787999Y-106731000I249999J0D01*
G01*
G37*
G36*
G01*
X125787999Y-108731000D02*
X126688001Y-108731000D01*
G75*
G02*
X126938000Y-108980999I0J-249999D01*
G01*
X126938000Y-109681001D01*
G75*
G02*
X126688001Y-109931000I-249999J0D01*
G01*
X125787999Y-109931000D01*
G75*
G02*
X125538000Y-109681001I0J249999D01*
G01*
X125538000Y-108980999D01*
G75*
G02*
X125787999Y-108731000I249999J0D01*
G01*
G37*
%TD*%
%TO.C,R9*%
G36*
G01*
X117925001Y-98882000D02*
X117024999Y-98882000D01*
G75*
G02*
X116775000Y-98632001I0J249999D01*
G01*
X116775000Y-97931999D01*
G75*
G02*
X117024999Y-97682000I249999J0D01*
G01*
X117925001Y-97682000D01*
G75*
G02*
X118175000Y-97931999I0J-249999D01*
G01*
X118175000Y-98632001D01*
G75*
G02*
X117925001Y-98882000I-249999J0D01*
G01*
G37*
G36*
G01*
X117925001Y-96882000D02*
X117024999Y-96882000D01*
G75*
G02*
X116775000Y-96632001I0J249999D01*
G01*
X116775000Y-95931999D01*
G75*
G02*
X117024999Y-95682000I249999J0D01*
G01*
X117925001Y-95682000D01*
G75*
G02*
X118175000Y-95931999I0J-249999D01*
G01*
X118175000Y-96632001D01*
G75*
G02*
X117925001Y-96882000I-249999J0D01*
G01*
G37*
%TD*%
%TO.C,R10*%
G36*
G01*
X116897999Y-103524000D02*
X117798001Y-103524000D01*
G75*
G02*
X118048000Y-103773999I0J-249999D01*
G01*
X118048000Y-104474001D01*
G75*
G02*
X117798001Y-104724000I-249999J0D01*
G01*
X116897999Y-104724000D01*
G75*
G02*
X116648000Y-104474001I0J249999D01*
G01*
X116648000Y-103773999D01*
G75*
G02*
X116897999Y-103524000I249999J0D01*
G01*
G37*
G36*
G01*
X116897999Y-101524000D02*
X117798001Y-101524000D01*
G75*
G02*
X118048000Y-101773999I0J-249999D01*
G01*
X118048000Y-102474001D01*
G75*
G02*
X117798001Y-102724000I-249999J0D01*
G01*
X116897999Y-102724000D01*
G75*
G02*
X116648000Y-102474001I0J249999D01*
G01*
X116648000Y-101773999D01*
G75*
G02*
X116897999Y-101524000I249999J0D01*
G01*
G37*
%TD*%
%TO.C,R11*%
G36*
G01*
X142043999Y-106731000D02*
X142944001Y-106731000D01*
G75*
G02*
X143194000Y-106980999I0J-249999D01*
G01*
X143194000Y-107681001D01*
G75*
G02*
X142944001Y-107931000I-249999J0D01*
G01*
X142043999Y-107931000D01*
G75*
G02*
X141794000Y-107681001I0J249999D01*
G01*
X141794000Y-106980999D01*
G75*
G02*
X142043999Y-106731000I249999J0D01*
G01*
G37*
G36*
G01*
X142043999Y-108731000D02*
X142944001Y-108731000D01*
G75*
G02*
X143194000Y-108980999I0J-249999D01*
G01*
X143194000Y-109681001D01*
G75*
G02*
X142944001Y-109931000I-249999J0D01*
G01*
X142043999Y-109931000D01*
G75*
G02*
X141794000Y-109681001I0J249999D01*
G01*
X141794000Y-108980999D01*
G75*
G02*
X142043999Y-108731000I249999J0D01*
G01*
G37*
%TD*%
D17*
%TO.C,L2*%
X185674000Y-76327000D03*
X185674000Y-67027000D03*
%TD*%
D18*
%TO.C,LK1*%
X150291800Y-80933800D03*
X150291800Y-79311500D03*
%TD*%
%TO.C,C9*%
G36*
G01*
X182974000Y-73253000D02*
X182024000Y-73253000D01*
G75*
G02*
X181774000Y-73003000I0J250000D01*
G01*
X181774000Y-72328000D01*
G75*
G02*
X182024000Y-72078000I250000J0D01*
G01*
X182974000Y-72078000D01*
G75*
G02*
X183224000Y-72328000I0J-250000D01*
G01*
X183224000Y-73003000D01*
G75*
G02*
X182974000Y-73253000I-250000J0D01*
G01*
G37*
G36*
G01*
X182974000Y-71178000D02*
X182024000Y-71178000D01*
G75*
G02*
X181774000Y-70928000I0J250000D01*
G01*
X181774000Y-70253000D01*
G75*
G02*
X182024000Y-70003000I250000J0D01*
G01*
X182974000Y-70003000D01*
G75*
G02*
X183224000Y-70253000I0J-250000D01*
G01*
X183224000Y-70928000D01*
G75*
G02*
X182974000Y-71178000I-250000J0D01*
G01*
G37*
%TD*%
%TO.C,R12*%
G36*
G01*
X180663001Y-71228000D02*
X179762999Y-71228000D01*
G75*
G02*
X179513000Y-70978001I0J249999D01*
G01*
X179513000Y-70277999D01*
G75*
G02*
X179762999Y-70028000I249999J0D01*
G01*
X180663001Y-70028000D01*
G75*
G02*
X180913000Y-70277999I0J-249999D01*
G01*
X180913000Y-70978001D01*
G75*
G02*
X180663001Y-71228000I-249999J0D01*
G01*
G37*
G36*
G01*
X180663001Y-73228000D02*
X179762999Y-73228000D01*
G75*
G02*
X179513000Y-72978001I0J249999D01*
G01*
X179513000Y-72277999D01*
G75*
G02*
X179762999Y-72028000I249999J0D01*
G01*
X180663001Y-72028000D01*
G75*
G02*
X180913000Y-72277999I0J-249999D01*
G01*
X180913000Y-72978001D01*
G75*
G02*
X180663001Y-73228000I-249999J0D01*
G01*
G37*
%TD*%
%TO.C,R13*%
G36*
G01*
X167564000Y-81222001D02*
X167564000Y-80321999D01*
G75*
G02*
X167813999Y-80072000I249999J0D01*
G01*
X168514001Y-80072000D01*
G75*
G02*
X168764000Y-80321999I0J-249999D01*
G01*
X168764000Y-81222001D01*
G75*
G02*
X168514001Y-81472000I-249999J0D01*
G01*
X167813999Y-81472000D01*
G75*
G02*
X167564000Y-81222001I0J249999D01*
G01*
G37*
G36*
G01*
X169564000Y-81222001D02*
X169564000Y-80321999D01*
G75*
G02*
X169813999Y-80072000I249999J0D01*
G01*
X170514001Y-80072000D01*
G75*
G02*
X170764000Y-80321999I0J-249999D01*
G01*
X170764000Y-81222001D01*
G75*
G02*
X170514001Y-81472000I-249999J0D01*
G01*
X169813999Y-81472000D01*
G75*
G02*
X169564000Y-81222001I0J249999D01*
G01*
G37*
%TD*%
%TO.C,C10*%
G36*
G01*
X178402000Y-73253000D02*
X177452000Y-73253000D01*
G75*
G02*
X177202000Y-73003000I0J250000D01*
G01*
X177202000Y-72328000D01*
G75*
G02*
X177452000Y-72078000I250000J0D01*
G01*
X178402000Y-72078000D01*
G75*
G02*
X178652000Y-72328000I0J-250000D01*
G01*
X178652000Y-73003000D01*
G75*
G02*
X178402000Y-73253000I-250000J0D01*
G01*
G37*
G36*
G01*
X178402000Y-71178000D02*
X177452000Y-71178000D01*
G75*
G02*
X177202000Y-70928000I0J250000D01*
G01*
X177202000Y-70253000D01*
G75*
G02*
X177452000Y-70003000I250000J0D01*
G01*
X178402000Y-70003000D01*
G75*
G02*
X178652000Y-70253000I0J-250000D01*
G01*
X178652000Y-70928000D01*
G75*
G02*
X178402000Y-71178000I-250000J0D01*
G01*
G37*
%TD*%
D14*
%TO.C,C11*%
X148209000Y-59868000D03*
X148209000Y-63068000D03*
%TD*%
D19*
%TO.C,D4*%
X175006000Y-89281000D03*
X175006000Y-94981000D03*
%TD*%
D20*
%TO.C,L1*%
X164974000Y-67437000D03*
X168274000Y-67437000D03*
%TD*%
%TO.C,L3*%
X168274000Y-63627000D03*
X164974000Y-63627000D03*
%TD*%
D21*
%TO.C,LK2*%
X149577300Y-66675000D03*
X147955000Y-66675000D03*
%TD*%
D22*
%TO.C,Q3*%
X175133000Y-100057000D03*
X172847000Y-100899000D03*
X172847000Y-98999000D03*
%TD*%
D23*
%TO.C,U6*%
X152541000Y-69875000D03*
X147941000Y-69875000D03*
X150241000Y-69875000D03*
D24*
X150241000Y-76175000D03*
%TD*%
M02*
